<?xml version="1.0" standalone="no"?>
<!DOCTYPE svg PUBLIC "-//W3C//DTD SVG 1.1//EN" "http://www.w3.org/Graphics/SVG/1.1/DTD/svg11.dtd" >
<svg xmlns="http://www.w3.org/2000/svg" xmlns:xlink="http://www.w3.org/1999/xlink" version="1.1">
<metadata>
Created by FontForge 20150824 at Tue Apr 12 07:00:44 2016
 By Everything Fonts
Copyright (c) 2013, Natanael Gama (www.ndiscovered.com . info(at)ndiscovered.com), with Reserved Font Name Exo. This Font Software is licensed under the SIL Open Font License, Version 1.1.
</metadata>
<defs>
<font id="Exo2BoldItalic" horiz-adv-x="578" >
  <font-face 
    font-family="Exo2BoldItalic"
    font-weight="700"
    font-style="italic"
    font-stretch="normal"
    units-per-em="1000"
    panose-1="0 0 8 0 0 0 0 0 0 0"
    ascent="800"
    descent="-200"
    x-height="493"
    cap-height="690"
    bbox="-217 -294 1251.02 952"
    underline-thickness="50"
    underline-position="-150"
    slope="-8"
    unicode-range="U+0020-FB02"
  />
<missing-glyph horiz-adv-x="600" 
 />
    <glyph glyph-name=".notdef" horiz-adv-x="600" 
 />
    <glyph glyph-name=".null" horiz-adv-x="0" 
 />
    <glyph glyph-name="nonmarkingreturn" horiz-adv-x="333" 
 />
    <glyph glyph-name="space" unicode=" " horiz-adv-x="217" 
 />
    <glyph glyph-name="exclam" unicode="!" horiz-adv-x="298" 
d="M240 425l-43 -206h-116l13 206l38 270h146zM109 151h32q58 0 49 -54l-6 -48q-6 -49 -57 -49h-32q-56 0 -49 55l7 48q6 48 56 48z" />
    <glyph glyph-name="quotedbl" unicode="&#x22;" horiz-adv-x="374" 
d="M176 469h-91l22 221h109zM338 469h-92l23 221h108z" />
    <glyph glyph-name="numbersign" unicode="#" horiz-adv-x="711" 
d="M570 426l-44 -140h110l-30 -89h-108l-62 -197h-113l63 197h-139l-62 -197h-113l63 197h-117l29 89h115l44 140h-114l30 88h112l55 176h113l-55 -176h138l55 176h113l-55 -176h112l-30 -88h-110zM457 426h-138l-44 -140h138z" />
    <glyph glyph-name="dollar" unicode="$" horiz-adv-x="572" 
d="M562 675l-15 -103q-89 3 -212 3q-59 1 -81 -10t-28 -56q-5 -34 5.5 -47.5t48.5 -28.5l122 -48q78 -32 102.5 -78.5t14.5 -126.5q-14 -111 -69 -151t-185 -42l-24 -106h-111l26 111q-70 5 -141 22l16 109q208 -5 213 -5q68 0 92.5 13.5t30.5 57.5q5 34 -5 47.5t-43 25.5
l-129 53q-74 31 -99.5 80t-16.5 123q14 108 73 145.5t182 39.5l23 91h111l-24 -96q63 -6 123 -23z" />
    <glyph glyph-name="percent" unicode="%" horiz-adv-x="907" 
d="M251 703q98 0 132.5 -47.5t18.5 -163.5q-16 -113 -57.5 -156t-133.5 -43q-96 0 -130.5 47.5t-18.5 163.5q16 113 57 156t132 43zM255 0h-101l511 690h100zM252 621q-42 0 -57 -25t-26 -104q-10 -70 -1.5 -93.5t43.5 -23.5q42 0 57.5 25t26.5 104q9 70 0.5 93.5
t-43.5 23.5zM709 399q97 0 132 -48t19 -163q-17 -113 -58 -156.5t-134 -43.5q-96 0 -130.5 48t-18.5 163q17 113 58 156.5t132 43.5zM709 316q-41 0 -56 -24.5t-26 -103.5q-10 -71 -2 -94t43 -23q43 0 58.5 24.5t25.5 103.5q9 71 1 94t-44 23z" />
    <glyph glyph-name="ampersand" unicode="&#x26;" horiz-adv-x="748" 
d="M721 304h-86q-14 -86 -49 -147q-93 -169 -338 -169q-126 0 -177.5 46t-39.5 147q18 165 159 175l1 5q-55 4 -79 49t-12 116q8 45 25 77t39.5 51t57 30t69.5 14.5t84 3.5q95 0 173 -22l-24 -105q-63 13 -143 13q-70 0 -97 -17.5t-35 -74.5q-7 -52 10 -70.5t70 -18.5h190
q2 33 2 106h127q1 -49 -2 -106h90zM506 304h-192q-58 0 -85.5 -22.5t-35.5 -81.5q-7 -50 11.5 -70t73.5 -20q132 0 189 95q26 37 39 99z" />
    <glyph glyph-name="quotesingle" unicode="'" horiz-adv-x="213" 
d="M176 469h-91l22 221h109z" />
    <glyph glyph-name="parenleft" unicode="(" horiz-adv-x="364" 
d="M393 791l17 -67q-179 -75 -226 -417q-25 -154 -1 -260t104 -148l-19 -61q-143 47 -198.5 165.5t-27.5 314.5q28 198 112 312t239 161z" />
    <glyph glyph-name="parenright" unicode=")" horiz-adv-x="364" 
d="M83 726l19 62q143 -47 198.5 -165t27.5 -317q-28 -196 -112 -310t-239 -162l-17 67q179 80 226 418q26 157 2 262.5t-105 144.5z" />
    <glyph glyph-name="asterisk" unicode="*" horiz-adv-x="452" 
d="M287 524l89 -129l-68 -49l-54 122l-87 -121l-62 48l125 128l11 168h83zM217 563l-4 -35l-21 -22l-121 29l33 77zM448 532l-125 -27l-16 22l5 36l120 49z" />
    <glyph glyph-name="plus" unicode="+" horiz-adv-x="536" 
d="M489 247h-173l-23 -167h-109l23 167h-173l16 108h172l24 168h110l-24 -168h172z" />
    <glyph glyph-name="comma" unicode="," horiz-adv-x="244" 
d="M86 151h33q29 0 40 -12.5t7 -41.5l-9 -64q-13 -96 -73 -182l-65 23q27 78 38 129q-46 -3 -41 45l8 53q5 29 18.5 39.5t43.5 10.5z" />
    <glyph glyph-name="hyphen" unicode="-" horiz-adv-x="414" 
d="M344 206h-298l14 97h297z" />
    <glyph glyph-name="period" unicode="." horiz-adv-x="241" 
d="M80 151h37q57 0 49 -54l-7 -48q-6 -49 -56 -49h-37q-56 0 -50 55l7 48q7 48 57 48z" />
    <glyph glyph-name="slash" unicode="/" horiz-adv-x="559" 
d="M92 -72h-121l500 762h121z" />
    <glyph glyph-name="zero" unicode="0" horiz-adv-x="627" 
d="M362 703q148 0 199 -84t23 -280q-27 -195 -95 -273.5t-211 -78.5q-144 0 -196.5 84t-24.5 280q27 195 95 273.5t210 78.5zM357 582q-70 0 -101.5 -49t-50.5 -190q-20 -141 -4.5 -188t82.5 -47q71 0 102.5 49t50.5 190t3 188t-82 47z" />
    <glyph glyph-name="one" unicode="1" horiz-adv-x="429" 
d="M295 0h-152l70 489q5 43 15 74l-166 -44l-8 101l188 70h150z" />
    <glyph glyph-name="two" unicode="2" horiz-adv-x="572" 
d="M98 563l1 116q117 23 227 23q57 0 96.5 -7t70.5 -25t43 -51t7 -83q-7 -59 -36.5 -108t-100.5 -115l-201 -185q42 9 101 9h203l-18 -137h-489l13 88q7 43 25 62l195 181q82 75 116 117t39 78q4 29 -14 37.5t-65 8.5q-111 0 -213 -9z" />
    <glyph glyph-name="three" unicode="3" horiz-adv-x="559" 
d="M104 575v110q111 18 211 18q118 0 168.5 -39.5t42.5 -126.5q-5 -65 -36.5 -115.5t-90.5 -56.5l-1 -4q123 -19 102 -167q-13 -99 -80 -152t-202 -55q-82 -3 -214 18l14 112q141 -7 184 -5q132 6 149 105q8 45 -11 67t-74 23l-135 2l14 102h131q57 0 79 24.5t27 73.5
q4 42 -13 56t-82 14q-81 0 -183 -4z" />
    <glyph glyph-name="four" unicode="4" horiz-adv-x="631" 
d="M596 260l-13 -94l-82 -14h-2l-22 -152h-140l20 152h-254q-54 0 -77 38.5t2 81.5l236 418h148l-221 -400q-18 -30 11 -30h170l26 186l41 110h116l-41 -296h82z" />
    <glyph glyph-name="five" unicode="5" horiz-adv-x="545" 
d="M516 572h-275l-26 -128l79 -9q222 -25 199 -216q-28 -218 -269 -231q-98 -5 -221 22l23 118q95 -17 167 -12q72 4 108 31.5t44 81.5q6 47 -20 66t-103 26l-95 11q-26 3 -39.5 21.5t-9.5 43.5l58 293h403z" />
    <glyph glyph-name="six" unicode="6" horiz-adv-x="584" 
d="M551 683l-14 -99q-52 2 -150 2q-84 0 -117.5 -35.5t-55.5 -149.5q69 54 152 54q103 0 145 -51.5t25 -173.5q-19 -128 -78.5 -185t-194.5 -57q-147 0 -191 78.5t-15 276.5q13 93 33.5 157.5t45.5 104t63 61t78 29t100 7.5q80 0 174 -19zM394 239q9 63 -4 84t-65 21
q-62 0 -130 -54q-18 -115 -4 -150t79 -35q64 0 88.5 30t35.5 104z" />
    <glyph glyph-name="seven" unicode="7" horiz-adv-x="527" 
d="M80 690h412q42 0 57 -23.5t-2 -60.5l-297 -606h-151l247 503q16 34 40 63h-317z" />
    <glyph glyph-name="eight" unicode="8" horiz-adv-x="616" 
d="M178 358l1 4q-100 14 -80 162q13 97 67.5 138t187.5 40q140 0 188 -44.5t34 -145.5q-21 -140 -125 -153l-1 -4q119 -12 94 -189q-13 -97 -69 -137.5t-199 -41.5q-144 0 -199.5 46.5t-43.5 144.5q11 80 44 127t101 53zM348 593q-64 0 -85.5 -19.5t-29.5 -79.5
q-7 -50 10.5 -66.5t82.5 -16.5q61 0 82.5 19t29.5 76q8 53 -9 70t-81 17zM306 305q-67 0 -92 -20t-34 -88q-8 -55 12 -73.5t91 -18.5q65 0 90 21t33 82q9 60 -10 78.5t-90 18.5z" />
    <glyph glyph-name="nine" unicode="9" horiz-adv-x="584" 
d="M33 7l15 100q51 -2 164 -2q83 2 118.5 41t55.5 144q-63 -56 -150 -56q-57 0 -95.5 20t-54.5 52t-22 73.5t2 83.5q16 133 76.5 185.5t196.5 52.5q99 0 147.5 -30.5t63.5 -109.5t-8 -215q-16 -110 -40 -178.5t-63.5 -109.5t-90.5 -56t-129 -15q-96 0 -186 20zM206 462
q-8 -66 6 -92t64 -26q36 0 64 11.5t63 41.5q18 116 4.5 152t-81.5 36q-63 0 -87.5 -26.5t-32.5 -96.5z" />
    <glyph glyph-name="colon" unicode=":" horiz-adv-x="257" 
d="M116 451h37q56 0 49 -55l-7 -47q-6 -49 -56 -49h-37q-56 0 -50 54l7 49q7 48 57 48zM74 152h37q56 0 49 -55l-7 -48q-6 -49 -56 -49h-37q-56 0 -50 55l7 48q7 49 57 49z" />
    <glyph glyph-name="semicolon" unicode=";" horiz-adv-x="260" 
d="M130 451h37q56 0 49 -55l-7 -47q-6 -49 -56 -49h-37q-58 0 -50 54l7 49q7 48 57 48zM95 151h33q29 0 40 -12.5t7 -41.5l-9 -64q-13 -96 -73 -182l-65 23q27 78 38 129q-46 -3 -41 45l8 53q5 29 18.5 39.5t43.5 10.5z" />
    <glyph glyph-name="less" unicode="&#x3c;" horiz-adv-x="515" 
d="M474 403l-310 -103l280 -109l-16 -113l-397 166l16 114l443 164z" />
    <glyph glyph-name="equal" unicode="=" horiz-adv-x="579" 
d="M526 348h-458l15 108h459zM497 137h-459l16 108h459z" />
    <glyph glyph-name="greater" unicode="&#x3e;" horiz-adv-x="514" 
d="M485 358l-16 -114l-442 -165l16 119l309 108l-278 108l15 109z" />
    <glyph glyph-name="question" unicode="?" horiz-adv-x="516" 
d="M80 587v101q8 2 30.5 6t30 5t26.5 4t31.5 4t32.5 2.5t42 2t48 0.5q107 0 158.5 -40t40.5 -121q-6 -40 -27.5 -73.5t-50.5 -59t-58.5 -52t-55.5 -64.5t-36 -84h-118q6 58 33.5 109t58 80.5t58.5 63t34 58.5q8 38 -8 50.5t-64 12.5q-93 0 -206 -5zM205 151h32q57 0 50 -54
l-7 -48q-6 -49 -56 -49h-32q-56 0 -50 55l7 47q6 49 56 49z" />
    <glyph glyph-name="at" unicode="@" horiz-adv-x="799" 
d="M94 544l9 100q149 8 329 10q78 1 128.5 -3t92.5 -17.5t63 -35.5t32.5 -60.5t10.5 -90t-12 -127.5q-26 -198 -75 -264t-180 -66q-122 0 -143 93q-72 -95 -171 -95q-175 0 -135 243q12 72 32.5 118t53 68.5t66.5 30t86 7.5q93 0 247 -28l-46 -289q-4 -40 26 -40
q49 0 67.5 44t39.5 186q7 43 10.5 71t1.5 53t-4 38.5t-15.5 25.5t-23.5 16.5t-38.5 7.5t-50 3.5t-66.5 0.5h-335zM379 351l-67 1q-70 0 -94.5 -21.5t-38.5 -106.5q-12 -82 -3.5 -102t44.5 -20t65.5 22t67.5 74z" />
    <glyph glyph-name="A" unicode="A" horiz-adv-x="647" 
d="M432 180h-238l-74 -180h-159l290 653q14 37 55 37h144q19 0 33.5 -12.5t15.5 -30.5l108 -647h-152zM416 301l-27 209q-3 22 -5 67h-29q-18 -51 -24 -66l-87 -210h172z" />
    <glyph glyph-name="B" unicode="B" horiz-adv-x="635" 
d="M28 0l97 690q89 8 251 8q133 0 185 -40t38 -146q-11 -74 -43 -110t-97 -42l-1 -6q144 -11 118 -188q-15 -103 -70 -138.5t-181 -35.5q-196 0 -297 8zM235 409h105q57 0 81 19.5t31 74.5q7 48 -10 63.5t-72 15.5h-111zM192 108h107q67 0 92.5 19.5t34.5 79.5
q8 59 -10.5 78.5t-79.5 20.5h-116z" />
    <glyph glyph-name="C" unicode="C" horiz-adv-x="583" 
d="M516 129l6 -114q-90 -27 -220 -27q-160 0 -217.5 84.5t-30.5 278.5q28 200 100 275.5t232 75.5q115 0 206 -24l-20 -113q-81 5 -192 5q-53 0 -83 -17t-50.5 -66.5t-33.5 -147.5q-18 -129 1 -174t93 -45q119 -1 209 9z" />
    <glyph glyph-name="D" unicode="D" horiz-adv-x="678" 
d="M28 0l97 690q130 9 247 9q114 0 177 -32t85.5 -111t3.5 -217q-16 -112 -40.5 -180t-68 -105.5t-97.5 -50t-143 -12.5q-113 0 -261 9zM262 579l-66 -467q17 0 48 -0.5t43 -0.5q48 0 76.5 8.5t52.5 34t37.5 72.5t24.5 125q11 75 11.5 118t-13 69t-38.5 34t-71 8z" />
    <glyph glyph-name="E" unicode="E" horiz-adv-x="572" 
d="M564 570h-258q-29 0 -41.5 -11.5t-16.5 -42.5l-15 -104h272l-14 -108h-273l-18 -133q-4 -28 6.5 -39.5t38.5 -11.5h255l-4 -113q-88 -10 -299 -10q-84 0 -123 44.5t-29 121.5l55 394q9 64 51.5 100t113.5 36q218 0 318 -11z" />
    <glyph glyph-name="F" unicode="F" horiz-adv-x="551" 
d="M558 570h-241q-34 0 -48 -11t-18 -43l-16 -117h263l-15 -108h-263l-41 -291h-153l77 553q10 67 53 103.5t112 36.5q213 0 309 -12z" />
    <glyph glyph-name="G" unicode="G" horiz-adv-x="643" 
d="M460 399h146l-56 -399h-111l-4 85q-90 -98 -208 -98q-106 0 -150.5 87t-21.5 277q14 108 41.5 178t73 108t100.5 52t137 14q124 0 211 -25l-19 -111q-113 5 -190 5q-97 0 -136.5 -45.5t-58.5 -187.5q-16 -127 0 -173.5t76 -46.5q42 0 72 16.5t69 52.5z" />
    <glyph glyph-name="H" unicode="H" horiz-adv-x="684" 
d="M670 690l-97 -690h-152l43 307h-239l-44 -307h-153l97 690h153l-37 -264h240l37 264h152z" />
    <glyph glyph-name="I" unicode="I" horiz-adv-x="292" 
d="M181 0h-153l97 690h153z" />
    <glyph glyph-name="J" unicode="J" horiz-adv-x="365" 
d="M354 690l-77 -548q-10 -75 -53.5 -114.5t-112.5 -39.5q-81 0 -127 21l26 101h41q68 0 76 56l74 524h153z" />
    <glyph glyph-name="K" unicode="K" horiz-adv-x="630" 
d="M396 353l-1 -4q24 -20 45 -63l143 -286h-168l-142 304h-57q3 -33 -2 -69l-33 -235h-153l97 690h153l-29 -203q-5 -38 -16 -74h56l206 277h176l-215 -284q-24 -33 -60 -53z" />
    <glyph glyph-name="L" unicode="L" horiz-adv-x="528" 
d="M275 690l-73 -515q-3 -26 6.5 -38.5t38.5 -12.5h236l-3 -117q-98 -10 -290 -10q-74 0 -113 42.5t-28 116.5l73 534h153z" />
    <glyph glyph-name="M" unicode="M" horiz-adv-x="909" 
d="M673 690h147q28 0 42 -16t11 -43l-62 -631h-144l60 571h-17l-163 -430q-15 -46 -65 -46h-100q-52 0 -57 51l-49 425h-17l-99 -571h-144l115 636q5 28 19 41t41 13h143q49 0 54 -52l39 -344q5 -41 5 -98h14q14 46 32 95l130 352q15 46 65 47z" />
    <glyph glyph-name="N" unicode="N" horiz-adv-x="717" 
d="M704 690l-90 -638q-7 -52 -57 -52h-85q-23 0 -34.5 11t-22.5 37l-137 368q-19 50 -30 104h-10q-2 -61 -8 -108l-57 -412h-145l90 638q7 52 58 52h84q22 0 34 -11.5t22 -36.5l133 -356q23 -61 36 -112h12q0 59 7 111l55 405h145z" />
    <glyph glyph-name="O" unicode="O" horiz-adv-x="680" 
d="M388 703q159 0 220 -81.5t33 -282.5q-27 -202 -100.5 -277t-231.5 -75q-162 0 -222 80t-33 284q28 199 101.5 275.5t232.5 76.5zM383 580q-80 0 -114 -48.5t-55 -192.5q-19 -135 1 -182t97 -47q79 0 114 49.5t56 191.5q20 137 -0.5 183t-98.5 46z" />
    <glyph glyph-name="P" unicode="P" horiz-adv-x="609" 
d="M28 0l97 690q92 9 254 9q139 0 191 -51.5t34 -179.5q-18 -132 -73 -176t-186 -44q-69 0 -129 9l-36 -257h-152zM231 365h104q62 0 85.5 22t33.5 92q9 60 -8 81.5t-71 21.5l-113 -1z" />
    <glyph glyph-name="Q" unicode="Q" horiz-adv-x="680" 
d="M388 703q159 0 220 -81.5t33 -282.5q-27 -202 -100.5 -277t-231.5 -75q-162 0 -222 80t-33 284q28 199 101.5 275.5t232.5 76.5zM383 580q-80 0 -114 -48.5t-55 -192.5q-19 -135 1 -182t97 -47q79 0 114 49.5t56 191.5q20 137 -0.5 183t-98.5 46zM191 -116l49 80
q117 -47 292 -74l-58 -136q-161 45 -283 130z" />
    <glyph glyph-name="R" unicode="R" horiz-adv-x="641" 
d="M28 0l97 690q92 9 255 9q129 0 188.5 -47.5t43.5 -162.5q-10 -73 -45.5 -114.5t-109.5 -50.5l-1 -6q69 -16 83 -106l36 -212h-156l-32 214q-4 32 -17 43.5t-41 11.5l-114 1l-38 -270h-149zM232 387h108q60 0 85.5 22t34.5 82q8 52 -10 71.5t-73 19.5l-118 -1z" />
    <glyph glyph-name="S" unicode="S" 
d="M323 262l-131 53q-75 31 -101 80t-17 123q15 110 76.5 147.5t191.5 37.5q129 0 225 -28l-15 -103q-90 3 -214 3q-61 1 -83 -9.5t-29 -56.5q-5 -34 5.5 -47.5t49.5 -28.5l124 -48q79 -31 104 -77.5t15 -127.5q-15 -114 -73.5 -153.5t-198.5 -39.5q-116 0 -237 27l16 109
q212 -5 215 -5q70 0 95 13.5t32 57.5q4 34 -6 47t-44 26z" />
    <glyph glyph-name="T" unicode="T" horiz-adv-x="594" 
d="M617 566h-206l-79 -566h-153l80 566h-205l17 124h563z" />
    <glyph glyph-name="U" unicode="U" horiz-adv-x="677" 
d="M670 690l-60 -418q-23 -158 -90 -221.5t-211 -63.5q-147 0 -208 68t-40 223l58 412h153l-59 -418q-14 -94 6 -128t90 -34q72 0 104 36t46 132l58 412h153z" />
    <glyph glyph-name="V" unicode="V" horiz-adv-x="633" 
d="M682 690l-281 -651q-16 -39 -55 -39h-138q-19 0 -33 13t-16 31l-98 646h154l54 -496q4 -40 6 -81h25q9 36 27 82l194 495h161z" />
    <glyph glyph-name="W" unicode="W" horiz-adv-x="967" 
d="M998 690l-202 -651q-12 -39 -56 -39h-144q-20 0 -35 13.5t-16 32.5l-13 446v88h-19q-13 -55 -23 -89l-137 -451q-12 -40 -57 -40h-145q-20 0 -35.5 13t-15.5 32l-21 645h152v-482q0 -17 -1.5 -53.5t-1.5 -46.5h20q5 21 29 106l133 432q13 44 58 44h129q21 0 34.5 -14.5
t13.5 -35.5l19 -433q2 -65 1 -99h21q15 68 25 104l132 478h155z" />
    <glyph glyph-name="X" unicode="X" horiz-adv-x="638" 
d="M458 354l129 -354h-153l-100 307h-11l-187 -307h-168l230 354l-117 336h151l90 -285h13l177 285h160z" />
    <glyph glyph-name="Y" unicode="Y" horiz-adv-x="605" 
d="M367 225l-31 -225h-154l33 233l-160 457h153l78 -256q11 -44 13 -89h11q10 46 36 91l150 254h164z" />
    <glyph glyph-name="Z" unicode="Z" 
d="M187 117h328l-16 -117h-500l15 117l385 456h-312l16 117h485l-17 -117z" />
    <glyph glyph-name="bracketleft" unicode="[" horiz-adv-x="344" 
d="M366 676h-76q-23 0 -26 -22l-100 -709q-2 -18 14 -18h83l-13 -92h-156q-81 0 -70 80l109 779q5 35 27.5 54.5t56.5 19.5h164z" />
    <glyph glyph-name="backslash" unicode="\" horiz-adv-x="543" 
d="M474 -72h-111l-289 762h111z" />
    <glyph glyph-name="bracketright" unicode="]" horiz-adv-x="344" 
d="M99 768h155q34 0 55 -23t16 -57l-110 -779q-5 -34 -27.5 -54t-56.5 -20h-163l12 92h76q23 0 26 22l100 709q3 18 -14 18h-82z" />
    <glyph glyph-name="asciicircum" unicode="^" horiz-adv-x="461" 
d="M453 402l-60 -32l-113 166h-8l-165 -166l-56 32l177 225h107z" />
    <glyph glyph-name="underscore" unicode="_" horiz-adv-x="558" 
d="M446 -97h-444l14 97h444z" />
    <glyph glyph-name="grave" unicode="`" horiz-adv-x="353" 
d="M344 587l-49 -63l-221 114l66 97z" />
    <glyph glyph-name="a" unicode="a" horiz-adv-x="590" 
d="M490 0h-115l1 89q-76 -98 -202 -101q-93 -3 -125.5 60.5t-11.5 207.5q10 68 28 114.5t40 73.5t57 41t67.5 18t82.5 4q53 0 127 -9t118 -21zM399 398h-76q-72 0 -98 -25t-39 -119q-13 -95 -6 -121.5t43 -24.5q66 1 148 93z" />
    <glyph glyph-name="b" unicode="b" horiz-adv-x="592" 
d="M263 700l-22 -171q-8 -64 -28 -117q98 94 195 94q90 0 123 -60t12 -204q-19 -140 -78 -197.5t-179 -57.5q-60 0 -139.5 11t-125.5 28l95 674h147zM210 313l-30 -215q64 -2 77 -2q73 1 98 29t39 127q11 86 3.5 110t-42.5 24q-58 0 -145 -73z" />
    <glyph glyph-name="c" unicode="c" horiz-adv-x="507" 
d="M435 117l10 -97q-76 -32 -192 -32q-134 0 -187 62t-33 203q20 139 80 196.5t192 57.5q117 0 189 -32l-20 -90q-116 2 -149 2q-69 0 -98.5 -28.5t-39.5 -112.5q-11 -87 7.5 -112.5t84.5 -25.5q93 0 156 9z" />
    <glyph glyph-name="d" unicode="d" horiz-adv-x="592" 
d="M590 700l-99 -700h-116v90q-100 -102 -205 -102q-83 0 -118 63t-16 205q11 79 31 130t50.5 76.5t63 35t77.5 9.5q79 0 159 -13q2 62 7 97l18 109h148zM399 403h-79q-73 0 -97 -25.5t-37 -123.5q-12 -83 -5 -112.5t43 -28.5t68.5 18.5t76.5 56.5z" />
    <glyph glyph-name="e" unicode="e" horiz-adv-x="560" 
d="M472 117l10 -94q-83 -35 -217 -35q-141 0 -194 66t-37 203q18 144 82 197t204 53q130 0 176.5 -43t34.5 -127q-10 -70 -57 -100t-145 -37l-146 -11q1 -49 24.5 -66t74.5 -17q97 0 190 11zM192 276l115 11q40 3 58.5 16t22.5 48q3 33 -12.5 41t-65.5 7q-58 0 -81.5 -24.5
t-36.5 -98.5z" />
    <glyph glyph-name="f" unicode="f" horiz-adv-x="401" 
d="M455 612h-88q-39 0 -56.5 -13.5t-23.5 -52.5l-7 -53h135l-13 -99h-137l-63 -439q-21 -150 -173 -150q-43 0 -137 11l23 98h64q40 0 57.5 13.5t23.5 52.5l59 414h-85l12 94l87 5l11 77q21 150 173 150q99 0 162 -10z" />
    <glyph glyph-name="g" unicode="g" horiz-adv-x="593" 
d="M560 477l-61 -433q-16 -133 -92.5 -191.5t-213.5 -58.5q-117 0 -184 27l11 87q34 -1 141 -1q160 0 190 91q4 11 10.5 34.5t13.5 43t18 35.5q-37 -54 -93.5 -86t-125.5 -33q-90 -2 -123.5 60t-12.5 204q10 68 27.5 115t37.5 73.5t51 41t59 18t71 3.5q154 0 276 -30z
M402 398h-80q-73 0 -96.5 -25.5t-37.5 -118.5q-14 -94 -6.5 -121t43.5 -25q67 3 148 93z" />
    <glyph glyph-name="h" unicode="h" horiz-adv-x="596" 
d="M265 700l-24 -174q-9 -62 -26 -121q114 102 210 102q68 0 101.5 -36.5t23.5 -103.5l-52 -367h-147l46 327q4 33 -2.5 44t-28.5 11q-33 0 -68.5 -18.5t-89.5 -60.5l-41 -303h-148l98 700h148z" />
    <glyph glyph-name="i" unicode="i" horiz-adv-x="275" 
d="M162 711h62q47 0 42 -46l-7 -54q-6 -40 -48 -40h-63q-46 0 -40 46l7 53q4 41 47 41zM170 0h-147l69 493h147z" />
    <glyph glyph-name="j" unicode="j" horiz-adv-x="276" 
d="M162 711h62q47 0 41 -46l-7 -54q-6 -40 -48 -40h-62q-47 0 -41 46l8 53q4 41 47 41zM240 493l-67 -473q-9 -69 -48.5 -128t-100.5 -90l-81 68q72 70 83 156l67 467h147z" />
    <glyph glyph-name="k" unicode="k" horiz-adv-x="563" 
d="M396 493h151q-37 -140 -162 -227q23 -24 41 -62l91 -204h-154l-87 204q-37 -17 -85 -36l-24 -168h-148l98 700h148l-41 -301q-8 -59 -36 -122q77 40 134.5 96.5t73.5 119.5z" />
    <glyph glyph-name="l" unicode="l" horiz-adv-x="325" 
d="M265 700l-77 -542q-4 -27 5.5 -37t40.5 -10h43l7 -105q-35 -18 -115 -18q-69 0 -104.5 37t-27.5 102l81 573h147z" />
    <glyph glyph-name="m" unicode="m" horiz-adv-x="876" 
d="M203 493v-89q54 54 100.5 78.5t97.5 24.5q54 0 85 -24t36 -68q93 92 186 92q68 0 99.5 -37.5t22.5 -102.5l-51 -367h-147l46 327q4 31 -5 43t-31 12q-25 0 -53 -16t-76 -59l-43 -307h-142l45 327q5 30 -3 42.5t-32 12.5q-26 0 -54.5 -15.5t-74.5 -55.5l-43 -311h-147
l69 493h115z" />
    <glyph glyph-name="n" unicode="n" horiz-adv-x="596" 
d="M204 493v-98q115 112 225 112q63 0 97 -36.5t24 -103.5l-52 -367h-147l45 323q5 35 -2 47.5t-31 11.5q-56 -1 -154 -78l-42 -304h-148l69 493h116z" />
    <glyph glyph-name="o" unicode="o" horiz-adv-x="586" 
d="M315 507q137 0 191 -62t34 -205q-19 -139 -82.5 -196t-197.5 -57q-136 0 -191.5 62t-35.5 203q20 140 83 197.5t199 57.5zM314 396q-61 0 -87.5 -31t-39.5 -125q-12 -86 3 -114t73 -28q60 0 86 31.5t39 122.5q13 86 -2.5 115t-71.5 29z" />
    <glyph glyph-name="p" unicode="p" horiz-adv-x="593" 
d="M205 493l-2 -95q44 45 99 76t108 31q87 0 120 -61t13 -207q-9 -64 -24.5 -109.5t-35.5 -72.5t-48.5 -42.5t-57 -20.5t-67.5 -5q-73 0 -147 13q0 -47 -7 -93l-16 -97h-148l96 683h117zM181 90h76q76 0 99.5 25.5t36.5 123.5q12 94 4.5 120.5t-41.5 26.5q-26 0 -66 -22
t-80 -59z" />
    <glyph glyph-name="q" unicode="q" horiz-adv-x="589" 
d="M315 -190l22 152q8 67 27 116q-94 -90 -191 -90q-86 0 -122 61t-16 203q21 145 77 200t176 55q64 0 143 -11t125 -28l-94 -658h-147zM369 187l29 209q-33 2 -79 2q-71 -2 -95.5 -27.5t-38.5 -120.5q-12 -82 -4 -109.5t44 -27.5q35 0 66.5 17.5t77.5 56.5z" />
    <glyph glyph-name="r" unicode="r" horiz-adv-x="423" 
d="M443 507l-33 -137h-36q-31 0 -65.5 -13.5t-99.5 -47.5l-42 -309h-148l69 493h115v-93q113 107 210 107h30z" />
    <glyph glyph-name="s" unicode="s" horiz-adv-x="524" 
d="M268 177l-119 49q-60 24 -84 61t-17 93q8 68 59.5 98t161.5 29q136 -2 228 -20l-14 -94q-192 3 -195 3q-58 0 -77 -4.5t-22 -21.5q-2 -17 9.5 -25.5t44.5 -21.5l121 -48q61 -24 86 -58t18 -91q-6 -44 -23.5 -72t-50.5 -42t-71 -18.5t-97 -4.5q-90 0 -217 18l14 95
q36 -2 157 -2q86 0 114 6t32 26q2 15 -7.5 22t-37.5 18q-8 3 -13 5z" />
    <glyph glyph-name="t" unicode="t" horiz-adv-x="410" 
d="M266 394l-33 -236q-4 -28 4.5 -37.5t38.5 -9.5h66l7 -104q-53 -19 -138 -19q-70 0 -104 38.5t-24 106.5l38 261h-89l12 94l91 5l20 138h145l-19 -138h136l-14 -99h-137z" />
    <glyph glyph-name="u" unicode="u" horiz-adv-x="587" 
d="M555 493l-68 -493h-114v93q-110 -106 -213 -106q-71 0 -103.5 37t-22.5 102l51 367h148l-47 -327q-4 -30 4.5 -42.5t32.5 -12.5q32 0 62.5 17t81.5 60l42 305h146z" />
    <glyph glyph-name="v" unicode="v" horiz-adv-x="567" 
d="M404 493h158q-21 -124 -69 -252q-36 -98 -77 -163q-28 -44 -59 -61t-86 -17h-113q-17 0 -29.5 10.5t-14.5 27.5l-77 455h158l40 -393h12q20 0 31.5 8.5t26.5 35.5q26 49 53 136q26 80 46 213z" />
    <glyph glyph-name="w" unicode="w" horiz-adv-x="888" 
d="M226 102h11q29 0 48 50q17 40 33 115q13 57 31 190q6 36 42 36h139q16 0 26.5 -10t11.5 -25l27 -356h10q14 0 22.5 13t17.5 38q23 49 46 128q27 98 39 212h150q-25 -139 -63 -249q-34 -102 -68 -159q-25 -47 -56 -66t-90 -19h-73q-18 0 -30 11t-13 28l-23 364h-12
q-6 -69 -26 -165q-20 -84 -43 -134q-24 -63 -61.5 -83.5t-96.5 -20.5h-80q-18 0 -30 11t-14 28l-61 455h152z" />
    <glyph glyph-name="x" unicode="x" horiz-adv-x="562" 
d="M396 253l115 -253h-143l-88 207h-8l-147 -207h-157l188 254l-105 239h141l78 -190h12l136 190h153z" />
    <glyph glyph-name="y" unicode="y" 
d="M417 493h156q-21 -114 -62.5 -232.5t-87.5 -203.5q-75 -136 -160.5 -194.5t-203.5 -67.5l-18 91q69 18 112.5 40.5t83.5 73.5h-59q-24 0 -40.5 14t-21.5 36l-81 443h159l47 -377q2 -16 17 -16h40l4 9q79 164 115 384z" />
    <glyph glyph-name="z" unicode="z" horiz-adv-x="522" 
d="M492 388l-306 -282h270l-14 -106h-443l14 106h-1l307 282h-261l14 105h433z" />
    <glyph glyph-name="braceleft" unicode="{" horiz-adv-x="341" 
d="M367 768l-8 -91q-43 0 -62.5 -13.5t-23.5 -50.5l-22 -152q-8 -66 -32 -95t-88 -39q56 -18 75.5 -48.5t11.5 -84.5l-29 -207q-5 -34 8.5 -47.5t56.5 -13.5l-5 -91q-111 -14 -162 25.5t-39 116.5l33 239q1 7 1 13t0.5 10.5t-1.5 8.5t-2.5 6.5t-4.5 5.5t-5 4.5t-7.5 4.5
t-8 3.5t-10.5 4t-11 4.5l12 96q21 6 28.5 9t17 11t13.5 20t7 33l25 181q23 163 232 137z" />
    <glyph glyph-name="bar" unicode="|" horiz-adv-x="260" 
d="M117 -169h-104l133 950h105z" />
    <glyph glyph-name="braceright" unicode="}" horiz-adv-x="342" 
d="M93 677l5 91q113 15 162.5 -25.5t39.5 -116.5l-25 -182q-1 -9 -1.5 -15.5t-1 -12.5t0.5 -10t1.5 -7t4 -6t4.5 -4.5t6.5 -3.5t8 -3t10.5 -3.5t12 -3.5l-13 -96q-27 -10 -37 -14.5t-19.5 -18t-12.5 -36.5l-34 -238q-11 -79 -65.5 -115t-166.5 -22l8 91q44 0 62.5 13
t23.5 50l29 210q9 56 34.5 84.5t90.5 45.5q-56 10 -74.5 41.5t-8.5 95.5l22 152q5 34 -8.5 46.5t-57.5 12.5z" />
    <glyph glyph-name="asciitilde" unicode="~" horiz-adv-x="511" 
d="M117 214l-66 6q-1 72 25.5 108t66.5 35q35 -1 111 -25t88 -26q25 -4 36 7.5t15 40.5l66 -5q1 -71 -24.5 -107.5t-67.5 -34.5q-38 1 -113 25t-87 26q-25 4 -35.5 -8t-14.5 -42z" />
    <glyph glyph-name="uni00A0" unicode="&#xa0;" horiz-adv-x="217" 
 />
    <glyph glyph-name="exclamdown" unicode="&#xa1;" horiz-adv-x="283" 
d="M152 507h32q56 0 49 -55l-7 -48q-6 -49 -56 -49h-32q-57 0 -49 54l6 48q7 50 57 50zM185 82l-37 -267h-146l37 267l44 206h116z" />
    <glyph glyph-name="cent" unicode="&#xa2;" horiz-adv-x="518" 
d="M505 575l-21 -90q-114 2 -147 2q-68 0 -96.5 -28.5t-39.5 -112.5q-11 -87 7.5 -112.5t83.5 -25.5q92 0 155 9l9 -97q-67 -27 -166 -31l-22 -89h-110l24 96q-85 17 -118 79t-16 178q19 136 76 193.5t180 60.5l21 83h111l-23 -90q56 -9 92 -25z" />
    <glyph glyph-name="sterling" unicode="&#xa3;" horiz-adv-x="581" 
d="M572 692l-15 -114q-43 1 -177 1q-47 0 -66.5 -15t-23.5 -57l-6 -104h178l-15 -78h-168l-3 -45q-4 -62 -26.5 -97.5t-68.5 -68.5q25 9 73 9h264l-17 -123h-492l15 125q94 40 103 161l3 39h-77l10 78h72l8 115q9 110 60 147t161 37q95 0 208 -10z" />
    <glyph glyph-name="currency" unicode="&#xa4;" horiz-adv-x="585" 
d="M565 525l-78 -69q23 -49 14 -110q-7 -61 -43 -109l67 -72l-66 -60l-67 74q-49 -29 -113 -29t-110 32l-74 -66l-59 66l76 68q-23 50 -14 108q7 62 44 111l-65 72l66 61l66 -75q50 28 110 28q65 0 111 -31l76 68zM182 351q-7 -55 21.5 -87t79.5 -32q55 0 91.5 33t42.5 90
q7 54 -21.5 86t-80.5 32q-55 0 -90.5 -33t-42.5 -89z" />
    <glyph glyph-name="yen" unicode="&#xa5;" horiz-adv-x="653" 
d="M466 350h101l-13 -94h-470l12 94h103l-120 340h153l77 -251q11 -39 13 -89h12q7 39 35 91l150 249h163zM79 227h472l-13 -94h-161l-18 -133h-154l20 133h-158z" />
    <glyph glyph-name="brokenbar" unicode="&#xa6;" horiz-adv-x="261" 
d="M195 381h-104l57 400h104zM118 -169h-104l56 400h104z" />
    <glyph glyph-name="section" unicode="&#xa7;" horiz-adv-x="543" 
d="M305 310l-140 90q-29 19 -46.5 36t-28.5 49.5t-5 75.5q11 84 67 113t161 29q125 0 225 -12l-17 -106q-45 3 -169 3q-59 1 -82.5 -7t-27.5 -35q-3 -21 7 -36t35 -30l119 -71q72 -42 83.5 -101.5t-28.5 -144.5l-103 3q11 58 1.5 87.5t-51.5 56.5zM76 359l104 -3
q-11 -59 -2.5 -86.5t51.5 -54.5l141 -87q28 -18 44 -32.5t29 -49.5t6 -83q-6 -45 -23.5 -73.5t-48.5 -43.5t-66.5 -20t-89.5 -5q-121 0 -224 12l17 106q104 -4 161 -4q60 0 86 8t31 37q4 22 -5 35.5t-32 26.5l-122 73q-73 40 -85 99t28 145z" />
    <glyph glyph-name="dieresis" unicode="&#xa8;" horiz-adv-x="423" 
d="M339 708h51q32 0 28 -31l-10 -63q-3 -30 -33 -30h-53q-32 0 -28 30l10 63q4 31 35 31zM165 708h50q32 0 28 -31l-10 -63q-3 -30 -33 -30h-53q-31 0 -28 30l10 62q4 32 36 32z" />
    <glyph glyph-name="copyright" unicode="&#xa9;" horiz-adv-x="811" 
d="M446 703q164 0 255.5 -100.5t72.5 -263.5q-18 -157 -125.5 -254.5t-270.5 -97.5q-165 0 -255.5 101t-70.5 263q19 157 126 254.5t268 97.5zM450 635q-133 0 -222 -81.5t-103 -214.5q-14 -129 54.5 -206.5t196.5 -77.5q131 0 220.5 81t104.5 215q14 127 -53.5 205.5
t-197.5 78.5zM535 236l6 -80q-61 -18 -135 -18q-118 0 -158 47.5t-24 166.5q15 115 64.5 158.5t161.5 43.5q67 0 127 -15l-12 -79q-88 2 -116 2q-60 0 -82.5 -21t-31.5 -96q-9 -68 4 -90.5t60 -22.5q81 -2 136 4z" />
    <glyph glyph-name="ordfeminine" unicode="&#xaa;" horiz-adv-x="448" 
d="M384 275h-86v54q-51 -60 -132 -61q-66 -2 -90 41t-11 138q6 46 19.5 77.5t28.5 49t40 26.5t46 11t55 2q98 2 175 -20zM314 536h-51q-46 0 -62 -15t-25 -76q-8 -59 -3 -75t27 -15q41 0 96 58z" />
    <glyph glyph-name="guillemotleft" unicode="&#xab;" horiz-adv-x="513" 
d="M276 413l-122 -162l88 -169l-75 -50l-139 206l2 32l176 195zM484 413l-122 -162l87 -169l-75 -50l-139 206l2 32l176 195z" />
    <glyph glyph-name="logicalnot" unicode="&#xac;" horiz-adv-x="579" 
d="M525 357l-32 -222h-114l16 113h-345l16 109h459z" />
    <glyph glyph-name="softhyphen" unicode="&#xad;" horiz-adv-x="414" 
d="M343 206h-298l14 97h298z" />
    <glyph glyph-name="registered" unicode="&#xae;" horiz-adv-x="525" 
d="M312 703q94 0 152 -61.5t46 -166.5q-12 -100 -77 -158.5t-166 -58.5q-100 0 -156.5 64t-43.5 164q12 99 77.5 158t167.5 59zM468 486q8 83 -36.5 130t-122.5 47q-86 0 -138 -50.5t-62 -134.5q-9 -85 36 -133t124 -48q85 0 137.5 50.5t61.5 138.5zM173 367l33 233
q34 3 104 3q51 0 76 -15.5t19 -57.5q-5 -44 -53 -54l-1 -2q21 -6 27 -37l14 -70h-65l-11 71q-4 18 -23 18h-45l-12 -89h-63zM254 497h41q25 1 34.5 6.5t12.5 25.5q2 18 -4 23.5t-27 5.5h-49z" />
    <glyph glyph-name="macron" unicode="&#xaf;" horiz-adv-x="400" 
d="M399 598h-299l13 95h299z" />
    <glyph glyph-name="degree" unicode="&#xb0;" horiz-adv-x="347" 
d="M219 701q62 0 99 -39.5t30 -97.5q-6 -57 -45.5 -92t-99.5 -35q-62 0 -97.5 39.5t-29.5 98.5q5 56 44 91t99 35zM216 628q-27 0 -43.5 -15t-18.5 -41q-3 -28 12 -45t42 -17q26 0 43 15.5t19 42.5q2 26 -12 43t-42 17z" />
    <glyph glyph-name="plusminus" unicode="&#xb1;" horiz-adv-x="571" 
d="M533 427l-16 -109h-173l-17 -119h-109l17 119h-173l16 109h172l17 120h110l-17 -120h173zM39 153h455l-16 -108h-455z" />
    <glyph glyph-name="twosuperior" unicode="&#xb2;" horiz-adv-x="413" 
d="M116 685v83q68 13 144 13t115.5 -22.5t31.5 -85.5q-4 -32 -21.5 -58.5t-60.5 -62.5l-118 -97q31 7 60 4h121l-14 -99h-315l9 65q4 34 17 45l109 93q85 68 94 101q4 14 -5.5 19.5t-32.5 5.5q-57 0 -134 -4z" />
    <glyph glyph-name="threesuperior" unicode="&#xb3;" horiz-adv-x="394" 
d="M117 689v82q70 11 138 11q80 0 112 -24.5t27 -76.5q-4 -38 -23 -69t-58 -34l-1 -2q81 -12 67 -106q-8 -55 -47.5 -86t-130.5 -32q-52 -1 -143 11l9 83q120 -2 123 -2q71 4 78 51q4 22 -6 32t-38 10h-89l10 75h86q29 0 41 11.5t14 35.5q2 19 -7.5 25.5t-43.5 6.5
q-28 0 -118 -2z" />
    <glyph glyph-name="acute" unicode="&#xb4;" horiz-adv-x="353" 
d="M371 631l-238 -107l-37 64l218 150z" />
    <glyph glyph-name="paragraph" unicode="&#xb6;" horiz-adv-x="591" 
d="M465 0h-97l85 611q-22 1 -59 1l-116 -822h-97l57 411q-115 13 -160.5 75.5t-28.5 179.5q19 136 96 191t242 55q102 0 174 -17z" />
    <glyph glyph-name="periodcentered" unicode="&#xb7;" horiz-adv-x="251" 
d="M110 334h36q58 0 49 -55l-6 -47q-6 -50 -56 -50h-37q-58 0 -50 55l7 48q6 49 57 49z" />
    <glyph glyph-name="cedilla" unicode="&#xb8;" horiz-adv-x="248" 
d="M21 -96l15 58q78 9 112.5 -5t25.5 -65q-12 -72 -71.5 -106.5t-142.5 -22.5l20 64q37 -1 64.5 14t33.5 44q2 12 -7.5 15.5t-49.5 3.5z" />
    <glyph glyph-name="onesuperior" unicode="&#xb9;" horiz-adv-x="300" 
d="M249 360h-112l39 273q6 36 11 49l-103 -24l-3 76l114 40h112z" />
    <glyph glyph-name="ordmasculine" unicode="&#xba;" horiz-adv-x="437" 
d="M254 615q99 0 136.5 -41.5t23.5 -139.5q-13 -93 -55.5 -130t-136.5 -37q-97 0 -135 41t-25 137q13 94 56 132t136 38zM253 535q-40 0 -56 -20t-24 -81q-7 -50 3 -69t48 -19t54.5 20.5t24.5 78.5q7 55 -3 72.5t-47 17.5z" />
    <glyph glyph-name="guillemotright" unicode="&#xbb;" horiz-adv-x="515" 
d="M17 82l123 162l-88 169l75 50l139 -206l-2 -32l-176 -194zM225 82l122 162l-88 169l75 50l139 -206l-2 -32l-176 -194z" />
    <glyph glyph-name="onequarter" unicode="&#xbc;" horiz-adv-x="903" 
d="M132 276l38 274q7 39 11 50l-102 -24l-3 73l114 41h113l-58 -414h-113zM720 690l-513 -690h-99l513 690h99zM845 95l-52 -9l-12 -86h-102l11 86h-176q-31 0 -43.5 22t4.5 53l147 253h105l-131 -234q-7 -16 9 -16h96l14 102l28 67h85l-24 -169h51z" />
    <glyph glyph-name="onehalf" unicode="&#xbd;" horiz-adv-x="908" 
d="M245 276h-114l39 274q3 27 11 50l-102 -24l-3 73l114 41h113zM201 0h-98l512 690h99zM556 326v82q72 13 146 13q89 0 128.5 -23t29.5 -89q-8 -56 -84 -118l-128 -98q23 5 61 5l135 -2l-13 -96h-333l9 62q3 31 18 46l114 92q83 65 97 101q6 16 -4 22t-36 6q-48 0 -140 -3z
" />
    <glyph glyph-name="threequarters" unicode="&#xbe;" horiz-adv-x="980" 
d="M305 496l-5 -3q48 -6 65.5 -33.5t11.5 -75.5q-8 -61 -46.5 -89.5t-127.5 -28.5q-60 0 -158 12l7 82q59 -3 128 -3q44 0 62.5 12.5t22.5 41.5q3 20 -6.5 30t-42.5 11h-92l10 74h89q55 0 59 48q3 20 -6.5 26.5t-42.5 6.5q-19 0 -62.5 -0.5t-66.5 -0.5l-1 80q71 11 143 11
q90 0 123 -22.5t25 -79.5q-11 -90 -89 -99zM809 690l-512 -690h-99l512 690h99zM923 96l-52 -9l-12 -86h-102l12 85h-176q-31 0 -43.5 22.5t4.5 53.5l146 253h106l-132 -234q-7 -16 9 -16h96l14 101l28 68h85l-24 -169h51z" />
    <glyph glyph-name="questiondown" unicode="&#xbf;" horiz-adv-x="509" 
d="M278 509h32q58 0 49 -55l-7 -48q-6 -49 -56 -49h-32q-56 0 -48 54l6 49q6 49 56 49zM208 288h118q-5 -50 -24 -92.5t-43.5 -71t-48.5 -52.5t-43.5 -48t-25.5 -45q-8 -32 8.5 -47t64.5 -15q129 0 205 5v-101q-8 -1 -30.5 -5.5t-29.5 -5.5t-26 -4t-31.5 -4t-32.5 -2.5
t-42 -2t-48 -0.5q-108 0 -158.5 42.5t-40.5 117.5q5 40 27 73.5t51.5 59t59.5 52t55 64t35 82.5z" />
    <glyph glyph-name="Agrave" unicode="&#xc0;" horiz-adv-x="647" 
d="M416 723l-221 114l66 97l204 -148zM432 180h-238l-74 -180h-159l290 653q14 37 55 37h144q19 0 33.5 -12.5t15.5 -30.5l108 -647h-152zM416 301l-27 209q-3 22 -5 67h-29q-18 -51 -24 -66l-87 -210h172z" />
    <glyph glyph-name="Aacute" unicode="&#xc1;" horiz-adv-x="647" 
d="M347 723l-37 63l218 151l57 -108zM432 180h-238l-74 -180h-159l290 653q14 37 55 37h144q19 0 33.5 -12.5t15.5 -30.5l108 -647h-152zM416 301l-27 209q-3 22 -5 67h-29q-18 -51 -24 -66l-87 -210h172z" />
    <glyph glyph-name="Acircumflex" unicode="&#xc2;" horiz-adv-x="647" 
d="M241 723l-37 56l149 133h101l127 -139l-45 -52l-131 98h-8zM432 180h-238l-74 -180h-159l290 653q14 37 55 37h144q19 0 33.5 -12.5t15.5 -30.5l108 -647h-152zM416 301l-27 209q-3 22 -5 67h-29q-18 -51 -24 -66l-87 -210h172z" />
    <glyph glyph-name="Atilde" unicode="&#xc3;" horiz-adv-x="647" 
d="M514 896l63 -5q1 -69 -24.5 -104.5t-67.5 -33.5q-36 2 -88 25t-66 25q-26 4 -37 -8.5t-15 -40.5l-63 6q0 70 26.5 105.5t67.5 33.5q33 -2 83.5 -24t67.5 -25q47 -8 53 46zM432 180h-238l-74 -180h-159l290 653q14 37 55 37h144q19 0 33.5 -12.5t15.5 -30.5l108 -647h-152
zM416 301l-27 209q-3 22 -5 67h-29q-18 -51 -24 -66l-87 -210h172z" />
    <glyph glyph-name="Adieresis" unicode="&#xc4;" horiz-adv-x="647" 
d="M330 763h-53q-32 0 -28 29l10 63q4 31 36 31h49q33 0 29 -30l-10 -63q-4 -30 -33 -30zM505 763h-53q-32 0 -28 29l10 63q4 31 35 31h50q33 0 29 -30l-10 -63q-4 -30 -33 -30zM432 180h-238l-74 -180h-159l290 653q14 37 55 37h144q19 0 33.5 -12.5t15.5 -30.5l108 -647
h-152zM416 301l-27 209q-3 22 -5 67h-29q-18 -51 -24 -66l-87 -210h172z" />
    <glyph glyph-name="Aring" unicode="&#xc5;" horiz-adv-x="647" 
d="M395 715q-53 0 -85.5 34t-26.5 84q5 46 38 77t84 31q52 0 85.5 -34t26.5 -85q-6 -46 -38.5 -76.5t-83.5 -30.5zM350 829q-2 -25 11 -39t35 -14q23 0 37.5 15t16.5 39q2 23 -11 36.5t-35 13.5t-37 -14.5t-17 -36.5zM432 180h-238l-74 -180h-159l290 653q14 37 55 37h144
q19 0 33.5 -12.5t15.5 -30.5l108 -647h-152zM416 301l-27 209q-3 22 -5 67h-29q-18 -51 -24 -66l-87 -210h172z" />
    <glyph glyph-name="AE" unicode="&#xc6;" horiz-adv-x="931" 
d="M924 571h-243q-28 0 -43 -12t-19 -42l-15 -106h260l-13 -105h-262l-19 -135q-3 -29 6.5 -40.5t38.5 -11.5h245l-4 -112q-95 -10 -295 -10q-72 0 -108.5 42t-26.5 113l5 34h-203l-120 -186h-159l368 561q48 75 110 102.5t191 27.5q221 0 325 -8zM448 307l31 224
q5 39 30 66h-7q-23 -22 -47 -58l-149 -232h142z" />
    <glyph glyph-name="Ccedilla" unicode="&#xc7;" horiz-adv-x="583" 
d="M516 129l6 -114q-90 -27 -220 -27q-160 0 -217.5 84.5t-30.5 278.5q28 200 100 275.5t232 75.5q115 0 206 -24l-20 -113q-81 5 -192 5q-53 0 -83 -17t-50.5 -66.5t-33.5 -147.5q-18 -129 1 -174t93 -45q119 -1 209 9zM197 -116l15 58q79 9 113 -5t26 -65
q-12 -72 -72 -106.5t-143 -22.5l21 64q37 -1 64 14t33 44q2 12 -7.5 15.5t-49.5 3.5z" />
    <glyph glyph-name="Egrave" unicode="&#xc8;" horiz-adv-x="572" 
d="M406 735l-221 114l66 97l203 -149zM564 570h-258q-29 0 -41.5 -11.5t-16.5 -42.5l-15 -104h272l-14 -108h-273l-18 -133q-4 -28 6.5 -39.5t38.5 -11.5h255l-4 -113q-88 -10 -299 -10q-84 0 -123 44.5t-29 121.5l55 394q9 64 51.5 100t113.5 36q218 0 318 -11z" />
    <glyph glyph-name="Eacute" unicode="&#xc9;" horiz-adv-x="572" 
d="M337 735l-37 63l218 151l57 -108zM564 570h-258q-29 0 -41.5 -11.5t-16.5 -42.5l-15 -104h272l-14 -108h-273l-18 -133q-4 -28 6.5 -39.5t38.5 -11.5h255l-4 -113q-88 -10 -299 -10q-84 0 -123 44.5t-29 121.5l55 394q9 64 51.5 100t113.5 36q218 0 318 -11z" />
    <glyph glyph-name="Ecircumflex" unicode="&#xca;" horiz-adv-x="572" 
d="M231 734l-37 56l149 133h101l127 -138l-45 -53l-131 99h-8zM564 570h-258q-29 0 -41.5 -11.5t-16.5 -42.5l-15 -104h272l-14 -108h-273l-18 -133q-4 -28 6.5 -39.5t38.5 -11.5h255l-4 -113q-88 -10 -299 -10q-84 0 -123 44.5t-29 121.5l55 394q9 64 51.5 100t113.5 36
q218 0 318 -11z" />
    <glyph glyph-name="Edieresis" unicode="&#xcb;" horiz-adv-x="572" 
d="M495 775h-53q-32 0 -28 29l10 63q4 31 35 31h50q33 0 29 -31l-10 -62q-4 -30 -33 -30zM320 775h-53q-32 0 -28 29l10 63q4 31 36 31h49q33 0 29 -31l-10 -63q-4 -29 -33 -29zM564 570h-258q-29 0 -41.5 -11.5t-16.5 -42.5l-15 -104h272l-14 -108h-273l-18 -133
q-4 -28 6.5 -39.5t38.5 -11.5h255l-4 -113q-88 -10 -299 -10q-84 0 -123 44.5t-29 121.5l55 394q9 64 51.5 100t113.5 36q218 0 318 -11z" />
    <glyph glyph-name="Igrave" unicode="&#xcc;" horiz-adv-x="292" 
d="M287 786l-49 -63l-221 114l66 97zM181 0h-153l97 690h153z" />
    <glyph glyph-name="Iacute" unicode="&#xcd;" horiz-adv-x="292" 
d="M407 829l-238 -106l-37 63l219 151zM181 0h-153l97 690h153z" />
    <glyph glyph-name="Icircumflex" unicode="&#xce;" horiz-adv-x="292" 
d="M403 773l-45 -52l-131 98h-8l-155 -96l-37 56l148 133h101zM181 0h-153l97 690h153z" />
    <glyph glyph-name="Idieresis" unicode="&#xcf;" horiz-adv-x="292" 
d="M291 886h51q32 0 28 -30l-10 -63q-3 -30 -33 -30h-53q-31 0 -28 29l10 63q4 31 35 31zM117 886h50q18 0 24 -7t4 -23l-10 -63q-3 -30 -33 -30h-53q-31 0 -28 29l10 63q4 31 36 31zM181 0h-153l97 690h153z" />
    <glyph glyph-name="Eth" unicode="&#xd0;" horiz-adv-x="678" 
d="M85 402l40 288q130 9 247 9q114 0 177 -32t85.5 -111t3.5 -217q-16 -112 -40.5 -180t-68 -105.5t-97.5 -50t-143 -12.5q-113 0 -261 9l46 326h-55l10 76h56zM226 326l-30 -214q17 0 48 -0.5t43 -0.5q48 0 76.5 8.5t52.5 34t37.5 72.5t24.5 125q11 75 11.5 118t-13 69
t-38.5 34t-71 8l-105 -1l-25 -177h122l-10 -76h-123z" />
    <glyph glyph-name="Ntilde" unicode="&#xd1;" horiz-adv-x="717" 
d="M315 754l-62 6q0 70 26 105.5t67 33.5q34 -2 84 -24t67 -25q27 -4 38.5 7.5t15.5 38.5l62 -5q1 -69 -24.5 -104.5t-67.5 -33.5q-36 2 -87.5 25t-65.5 25q-26 4 -37.5 -8.5t-15.5 -40.5zM704 690l-90 -638q-7 -52 -57 -52h-85q-23 0 -34.5 11t-22.5 37l-137 368
q-19 50 -30 104h-10q-2 -61 -8 -108l-57 -412h-145l90 638q7 52 58 52h84q22 0 34 -11.5t22 -36.5l133 -356q23 -61 36 -112h12q0 59 7 111l55 405h145z" />
    <glyph glyph-name="Ograve" unicode="&#xd2;" horiz-adv-x="680" 
d="M481 786l-49 -63l-221 114l66 97zM388 703q159 0 220 -81.5t33 -282.5q-27 -202 -100.5 -277t-231.5 -75q-162 0 -222 80t-33 284q28 199 101.5 275.5t232.5 76.5zM383 580q-80 0 -114 -48.5t-55 -192.5q-19 -135 1 -182t97 -47q79 0 114 49.5t56 191.5q20 137 -0.5 183
t-98.5 46z" />
    <glyph glyph-name="Oacute" unicode="&#xd3;" horiz-adv-x="680" 
d="M601 829l-237 -106l-38 63l219 151zM388 703q159 0 220 -81.5t33 -282.5q-27 -202 -100.5 -277t-231.5 -75q-162 0 -222 80t-33 284q28 199 101.5 275.5t232.5 76.5zM383 580q-80 0 -114 -48.5t-55 -192.5q-19 -135 1 -182t97 -47q79 0 114 49.5t56 191.5
q20 137 -0.5 183t-98.5 46z" />
    <glyph glyph-name="Ocircumflex" unicode="&#xd4;" horiz-adv-x="680" 
d="M598 773l-46 -52l-131 98h-8l-155 -96l-37 56l148 133h101zM388 703q159 0 220 -81.5t33 -282.5q-27 -202 -100.5 -277t-231.5 -75q-162 0 -222 80t-33 284q28 199 101.5 275.5t232.5 76.5zM383 580q-80 0 -114 -48.5t-55 -192.5q-19 -135 1 -182t97 -47q79 0 114 49.5
t56 191.5q20 137 -0.5 183t-98.5 46z" />
    <glyph glyph-name="Otilde" unicode="&#xd5;" horiz-adv-x="680" 
d="M295 754l-63 6q1 70 27 105.5t67 33.5q33 -2 83.5 -24t67.5 -25q27 -4 38.5 7.5t15.5 38.5l62 -5q1 -69 -24.5 -104.5t-67.5 -33.5q-36 2 -87.5 25t-65.5 25q-26 4 -37.5 -8.5t-15.5 -40.5zM388 703q159 0 220 -81.5t33 -282.5q-27 -202 -100.5 -277t-231.5 -75
q-162 0 -222 80t-33 284q28 199 101.5 275.5t232.5 76.5zM383 580q-80 0 -114 -48.5t-55 -192.5q-19 -135 1 -182t97 -47q79 0 114 49.5t56 191.5q20 137 -0.5 183t-98.5 46z" />
    <glyph glyph-name="Odieresis" unicode="&#xd6;" horiz-adv-x="680" 
d="M485 886h51q32 0 28 -30l-10 -63q-3 -30 -32 -30h-54q-31 0 -27 29l9 63q6 31 35 31zM311 886h50q18 0 24 -7t4 -23l-10 -63q-3 -30 -32 -30h-54q-31 0 -27 29l9 63q4 31 36 31zM388 703q159 0 220 -81.5t33 -282.5q-27 -202 -100.5 -277t-231.5 -75q-162 0 -222 80
t-33 284q28 199 101.5 275.5t232.5 76.5zM383 580q-80 0 -114 -48.5t-55 -192.5q-19 -135 1 -182t97 -47q79 0 114 49.5t56 191.5q20 137 -0.5 183t-98.5 46z" />
    <glyph glyph-name="multiply" unicode="&#xd7;" horiz-adv-x="525" 
d="M344 287l117 -119l-79 -84l-128 132l-168 -133l-60 91l152 119l-115 119l79 80l126 -128l172 136l59 -90z" />
    <glyph glyph-name="Oslash" unicode="&#xd8;" horiz-adv-x="680" 
d="M659 746l-64 -108q77 -83 46 -299q-27 -202 -100.5 -277t-231.5 -75q-58 0 -97 8l-60 -98l-106 56l58 95q-80 80 -50 303q28 199 101.5 275.5t232.5 76.5q56 0 100 -9l65 107zM482 351q20 137 -0.5 183t-98.5 46q-80 0 -114 -48.5t-55 -192.5q-19 -135 1 -182t97 -47
q79 0 114 49.5t56 191.5z" />
    <glyph glyph-name="Ugrave" unicode="&#xd9;" horiz-adv-x="677" 
d="M479 786l-49 -63l-221 114l66 97zM670 690l-60 -418q-23 -158 -90 -221.5t-211 -63.5q-147 0 -208 68t-40 223l58 412h153l-59 -418q-14 -94 6 -128t90 -34q72 0 104 36t46 132l58 412h153z" />
    <glyph glyph-name="Uacute" unicode="&#xda;" horiz-adv-x="677" 
d="M599 829l-237 -106l-38 63l219 151zM670 690l-60 -418q-23 -158 -90 -221.5t-211 -63.5q-147 0 -208 68t-40 223l58 412h153l-59 -418q-14 -94 6 -128t90 -34q72 0 104 36t46 132l58 412h153z" />
    <glyph glyph-name="Ucircumflex" unicode="&#xdb;" horiz-adv-x="677" 
d="M596 773l-46 -52l-131 98h-8l-155 -96l-37 56l148 133h101zM670 690l-60 -418q-23 -158 -90 -221.5t-211 -63.5q-147 0 -208 68t-40 223l58 412h153l-59 -418q-14 -94 6 -128t90 -34q72 0 104 36t46 132l58 412h153z" />
    <glyph glyph-name="Udieresis" unicode="&#xdc;" horiz-adv-x="677" 
d="M483 886h51q32 0 28 -30l-10 -63q-3 -30 -32 -30h-54q-31 0 -28 29l10 63q6 31 35 31zM309 886h50q18 0 24 -7t4 -23l-10 -63q-3 -30 -32 -30h-54q-31 0 -28 29l10 63q4 31 36 31zM670 690l-60 -418q-23 -158 -90 -221.5t-211 -63.5q-147 0 -208 68t-40 223l58 412h153
l-59 -418q-14 -94 6 -128t90 -34q72 0 104 36t46 132l58 412h153z" />
    <glyph glyph-name="Yacute" unicode="&#xdd;" horiz-adv-x="605" 
d="M321 723l-37 63l218 151l56 -108zM367 225l-31 -225h-154l33 233l-160 457h153l78 -256q11 -44 13 -89h11q10 46 36 91l150 254h164z" />
    <glyph glyph-name="Thorn" unicode="&#xde;" horiz-adv-x="609" 
d="M278 690l-16 -116h99q136 0 189.5 -51t35.5 -183q-18 -129 -73.5 -175t-179.5 -46q-60 0 -134 9l-18 -128h-153l97 690h153zM214 237h103q59 0 83 22.5t34 92.5q9 63 -6.5 84t-70.5 21l-112 -1z" />
    <glyph glyph-name="germandbls" unicode="&#xdf;" horiz-adv-x="701" 
d="M521 312l71 -53q42 -34 57 -65t9 -76q-11 -73 -57.5 -101t-148.5 -28q-74 0 -166 11l15 100q84 -2 118 -2q48 0 68.5 8t22.5 33q2 18 -8 30.5t-43 40.5l-66 45q-69 53 -60 119q3 23 18.5 44.5t31 35t52.5 42.5q36 28 49 45t16 37q3 24 -13.5 34.5t-73.5 10.5
q-68 0 -94.5 -18t-33.5 -70l-81 -580q-12 -74 -54 -112t-124 -38q-39 0 -132 11l23 98h64q39 0 56 13.5t24 52.5l58 414h-86l12 94l88 5l9 64q14 103 73.5 139t189.5 36q145 0 196 -35.5t37 -120.5q-11 -69 -81 -124q-7 -6 -27 -20.5t-28 -21t-17 -17.5t-11 -21
q-4 -21 40 -54q4 -4 7 -6z" />
    <glyph glyph-name="agrave" unicode="&#xe0;" horiz-adv-x="590" 
d="M364 541l-221 113l66 98l204 -149zM490 0h-115l1 89q-76 -98 -202 -101q-93 -3 -125.5 60.5t-11.5 207.5q10 68 28 114.5t40 73.5t57 41t67.5 18t82.5 4q53 0 127 -9t118 -21zM399 398h-76q-72 0 -98 -25t-39 -119q-13 -95 -6 -121.5t43 -24.5q66 1 148 93z" />
    <glyph glyph-name="aacute" unicode="&#xe1;" horiz-adv-x="590" 
d="M296 541l-37 63l218 150l56 -107zM490 0h-115l1 89q-76 -98 -202 -101q-93 -3 -125.5 60.5t-11.5 207.5q10 68 28 114.5t40 73.5t57 41t67.5 18t82.5 4q53 0 127 -9t118 -21zM399 398h-76q-72 0 -98 -25t-39 -119q-13 -95 -6 -121.5t43 -24.5q66 1 148 93z" />
    <glyph glyph-name="acircumflex" unicode="&#xe2;" horiz-adv-x="590" 
d="M190 540l-37 56l148 133h101l128 -139l-45 -52l-132 99h-8zM490 0h-115l1 89q-76 -98 -202 -101q-93 -3 -125.5 60.5t-11.5 207.5q10 68 28 114.5t40 73.5t57 41t67.5 18t82.5 4q53 0 127 -9t118 -21zM399 398h-76q-72 0 -98 -25t-39 -119q-13 -95 -6 -121.5t43 -24.5
q66 1 148 93z" />
    <glyph glyph-name="atilde" unicode="&#xe3;" horiz-adv-x="590" 
d="M463 714l62 -6q1 -69 -24.5 -104t-67.5 -33q-36 2 -87.5 24.5t-65.5 24.5q-26 4 -37.5 -8t-15.5 -40l-62 5q0 71 26 106t67 33q33 -2 83 -23.5t68 -24.5q27 -4 38.5 7t15.5 39zM490 0h-115l1 89q-76 -98 -202 -101q-93 -3 -125.5 60.5t-11.5 207.5q10 68 28 114.5
t40 73.5t57 41t67.5 18t82.5 4q53 0 127 -9t118 -21zM399 398h-76q-72 0 -98 -25t-39 -119q-13 -95 -6 -121.5t43 -24.5q66 1 148 93z" />
    <glyph glyph-name="adieresis" unicode="&#xe4;" horiz-adv-x="590" 
d="M279 580h-54q-31 0 -27 30l9 62q4 32 36 32h50q34 0 28 -31l-10 -63q-3 -30 -32 -30zM454 580h-54q-32 0 -27 30l9 63q6 31 35 31h51q34 0 28 -31l-10 -63q-3 -30 -32 -30zM490 0h-115l1 89q-76 -98 -202 -101q-93 -3 -125.5 60.5t-11.5 207.5q10 68 28 114.5t40 73.5
t57 41t67.5 18t82.5 4q53 0 127 -9t118 -21zM399 398h-76q-72 0 -98 -25t-39 -119q-13 -95 -6 -121.5t43 -24.5q66 1 148 93z" />
    <glyph glyph-name="aring" unicode="&#xe5;" horiz-adv-x="590" 
d="M343 532q-53 0 -85.5 34t-25.5 85q5 45 37.5 76.5t83.5 31.5q53 0 86 -34t27 -85q-6 -46 -39 -77t-84 -31zM299 647q-3 -25 10.5 -39t35.5 -14q23 0 37.5 15t16.5 39q2 22 -11.5 35.5t-35.5 13.5t-36.5 -14t-16.5 -36zM490 0h-115l1 89q-76 -98 -202 -101
q-93 -3 -125.5 60.5t-11.5 207.5q10 68 28 114.5t40 73.5t57 41t67.5 18t82.5 4q53 0 127 -9t118 -21zM399 398h-76q-72 0 -98 -25t-39 -119q-13 -95 -6 -121.5t43 -24.5q66 1 148 93z" />
    <glyph glyph-name="ae" unicode="&#xe6;" horiz-adv-x="891" 
d="M800 117l9 -94q-79 -35 -211 -35q-174 0 -218 108q-77 -105 -206 -108q-93 -3 -125 60.5t-12 207.5q9 68 26.5 114.5t37.5 73t52.5 41t62.5 18.5t77 4q114 0 216 -20q54 20 143 20q129 0 175.5 -43t35.5 -127q-11 -70 -57.5 -100t-143.5 -37l-147 -12q1 -49 24.5 -65.5
t75.5 -16.5q95 0 185 11zM523 276l116 11q40 3 58 16t22 48q4 33 -12 41t-65 7q-58 0 -82 -24.5t-37 -98.5zM224 108q63 0 140 87q0 18 4 62q12 90 38 140l-84 1q-72 0 -96.5 -24.5t-37.5 -119.5t-6.5 -121.5t42.5 -24.5z" />
    <glyph glyph-name="ccedilla" unicode="&#xe7;" horiz-adv-x="507" 
d="M435 117l10 -97q-76 -32 -192 -32q-134 0 -187 62t-33 203q20 139 80 196.5t192 57.5q117 0 189 -32l-20 -90q-116 2 -149 2q-69 0 -98.5 -28.5t-39.5 -112.5q-11 -87 7.5 -112.5t84.5 -25.5q93 0 156 9zM152 -108l15 58q79 9 113 -5t26 -65q-12 -72 -72 -106.5
t-143 -22.5l21 64q37 -1 64 14t33 44q2 12 -7.5 15.5t-49.5 3.5z" />
    <glyph glyph-name="egrave" unicode="&#xe8;" horiz-adv-x="560" 
d="M357 541l-221 113l66 98l204 -149zM472 117l10 -94q-83 -35 -217 -35q-141 0 -194 66t-37 203q18 144 82 197t204 53q130 0 176.5 -43t34.5 -127q-10 -70 -57 -100t-145 -37l-146 -11q1 -49 24.5 -66t74.5 -17q97 0 190 11zM192 276l115 11q40 3 58.5 16t22.5 48
q3 33 -12.5 41t-65.5 7q-58 0 -81.5 -24.5t-36.5 -98.5z" />
    <glyph glyph-name="eacute" unicode="&#xe9;" horiz-adv-x="560" 
d="M288 541l-37 63l219 150l56 -107zM472 117l10 -94q-83 -35 -217 -35q-141 0 -194 66t-37 203q18 144 82 197t204 53q130 0 176.5 -43t34.5 -127q-10 -70 -57 -100t-145 -37l-146 -11q1 -49 24.5 -66t74.5 -17q97 0 190 11zM192 276l115 11q40 3 58.5 16t22.5 48
q3 33 -12.5 41t-65.5 7q-58 0 -81.5 -24.5t-36.5 -98.5z" />
    <glyph glyph-name="ecircumflex" unicode="&#xea;" horiz-adv-x="560" 
d="M183 540l-37 56l148 133h101l127 -139l-45 -52l-131 99h-8zM472 117l10 -94q-83 -35 -217 -35q-141 0 -194 66t-37 203q18 144 82 197t204 53q130 0 176.5 -43t34.5 -127q-10 -70 -57 -100t-145 -37l-146 -11q1 -49 24.5 -66t74.5 -17q97 0 190 11zM192 276l115 11
q40 3 58.5 16t22.5 48q3 33 -12.5 41t-65.5 7q-58 0 -81.5 -24.5t-36.5 -98.5z" />
    <glyph glyph-name="edieresis" unicode="&#xeb;" horiz-adv-x="560" 
d="M271 580h-53q-31 0 -28 30l10 62q4 32 36 32h50q32 0 28 -31l-10 -63q-3 -30 -33 -30zM446 580h-53q-31 0 -28 30l10 63q4 31 35 31h51q32 0 28 -31l-10 -63q-3 -30 -33 -30zM472 117l10 -94q-83 -35 -217 -35q-141 0 -194 66t-37 203q18 144 82 197t204 53
q130 0 176.5 -43t34.5 -127q-10 -70 -57 -100t-145 -37l-146 -11q1 -49 24.5 -66t74.5 -17q97 0 190 11zM192 276l115 11q40 3 58.5 16t22.5 48q3 33 -12.5 41t-65.5 7q-58 0 -81.5 -24.5t-36.5 -98.5z" />
    <glyph glyph-name="igrave" unicode="&#xec;" horiz-adv-x="276" 
d="M251 603l-49 -62l-221 113l66 98zM171 0h-148l69 493h148z" />
    <glyph glyph-name="iacute" unicode="&#xed;" horiz-adv-x="276" 
d="M371 647l-237 -106l-38 63l219 150zM171 0h-148l69 493h148z" />
    <glyph glyph-name="icircumflex" unicode="&#xee;" horiz-adv-x="276" 
d="M368 590l-46 -52l-131 99h-8l-155 -97l-37 56l148 133h101zM171 0h-148l69 493h148z" />
    <glyph glyph-name="idieresis" unicode="&#xef;" horiz-adv-x="276" 
d="M255 704h51q32 0 28 -31l-10 -63q-3 -30 -32 -30h-54q-31 0 -28 30l10 63q6 31 35 31zM81 704h50q32 0 28 -31l-10 -63q-3 -30 -32 -30h-54q-31 0 -28 30l10 62q4 32 36 32zM171 0h-148l69 493h148z" />
    <glyph glyph-name="eth" unicode="&#xf0;" horiz-adv-x="576" 
d="M564 660l-81 -69q72 -102 47 -310q-20 -155 -86 -224.5t-201 -69.5q-244 0 -213 235q15 115 71 172t160 57q78 0 125 -37q-1 111 -51.5 151t-164.5 35l19 98q131 6 211 -35l93 81zM252 98q58 0 84.5 42.5t41.5 153.5l3 29q-37 21 -81 21q-55 0 -80.5 -30t-35.5 -97t5 -93
t63 -26z" />
    <glyph glyph-name="ntilde" unicode="&#xf1;" horiz-adv-x="596" 
d="M467 714l62 -6q1 -69 -24 -104t-67 -33q-37 2 -88.5 24.5t-65.5 24.5q-26 4 -37.5 -8t-15.5 -40l-62 5q0 71 26 106t67 33q33 -2 83 -23.5t68 -24.5q27 -4 38.5 7t15.5 39zM204 493v-98q115 112 225 112q63 0 97 -36.5t24 -103.5l-52 -367h-147l45 323q5 35 -2 47.5
t-31 11.5q-56 -1 -154 -78l-42 -304h-148l69 493h116z" />
    <glyph glyph-name="ograve" unicode="&#xf2;" horiz-adv-x="586" 
d="M408 603l-49 -62l-221 113l66 98zM315 507q137 0 191 -62t34 -205q-19 -139 -82.5 -196t-197.5 -57q-136 0 -191.5 62t-35.5 203q20 140 83 197.5t199 57.5zM314 396q-61 0 -87.5 -31t-39.5 -125q-12 -86 3 -114t73 -28q60 0 86 31.5t39 122.5q13 86 -2.5 115t-71.5 29z
" />
    <glyph glyph-name="oacute" unicode="&#xf3;" horiz-adv-x="586" 
d="M528 647l-238 -106l-37 63l219 150zM315 507q137 0 191 -62t34 -205q-19 -139 -82.5 -196t-197.5 -57q-136 0 -191.5 62t-35.5 203q20 140 83 197.5t199 57.5zM314 396q-61 0 -87.5 -31t-39.5 -125q-12 -86 3 -114t73 -28q60 0 86 31.5t39 122.5q13 86 -2.5 115t-71.5 29
z" />
    <glyph glyph-name="ocircumflex" unicode="&#xf4;" horiz-adv-x="586" 
d="M524 590l-45 -52l-131 99h-8l-155 -97l-37 56l148 133h101zM315 507q137 0 191 -62t34 -205q-19 -139 -82.5 -196t-197.5 -57q-136 0 -191.5 62t-35.5 203q20 140 83 197.5t199 57.5zM314 396q-61 0 -87.5 -31t-39.5 -125q-12 -86 3 -114t73 -28q60 0 86 31.5t39 122.5
q13 86 -2.5 115t-71.5 29z" />
    <glyph glyph-name="otilde" unicode="&#xf5;" horiz-adv-x="586" 
d="M222 572l-63 5q0 70 26.5 105.5t67.5 33.5q33 -2 83 -23.5t68 -24.5q26 -4 38 7.5t16 38.5l62 -6q1 -69 -24.5 -104t-67.5 -33q-37 2 -88.5 24.5t-65.5 24.5q-26 4 -37 -8t-15 -40zM315 507q137 0 191 -62t34 -205q-19 -139 -82.5 -196t-197.5 -57q-136 0 -191.5 62
t-35.5 203q20 140 83 197.5t199 57.5zM314 396q-61 0 -87.5 -31t-39.5 -125q-12 -86 3 -114t73 -28q60 0 86 31.5t39 122.5q13 86 -2.5 115t-71.5 29z" />
    <glyph glyph-name="odieresis" unicode="&#xf6;" horiz-adv-x="586" 
d="M412 704h51q32 0 28 -31l-10 -63q-3 -30 -33 -30h-53q-31 0 -28 30l10 63q4 31 35 31zM238 704h50q32 0 28 -31l-10 -63q-3 -30 -33 -30h-53q-31 0 -28 30l10 62q4 32 36 32zM315 507q137 0 191 -62t34 -205q-19 -139 -82.5 -196t-197.5 -57q-136 0 -191.5 62t-35.5 203
q20 140 83 197.5t199 57.5zM314 396q-61 0 -87.5 -31t-39.5 -125q-12 -86 3 -114t73 -28q60 0 86 31.5t39 122.5q13 86 -2.5 115t-71.5 29z" />
    <glyph glyph-name="divide" unicode="&#xf7;" horiz-adv-x="547" 
d="M291 552h32q32 0 44 -13t8 -44l-4 -32q-5 -30 -18.5 -42t-43.5 -12h-34q-32 0 -44 13t-8 44l5 32q4 30 18 42t45 12zM495 239h-458l16 109h458zM237 176h32q32 0 44 -13t8 -44l-5 -33q-4 -30 -17.5 -41.5t-43.5 -11.5h-34q-32 0 -44 13.5t-7 44.5l4 31q4 30 18.5 42
t44.5 12z" />
    <glyph glyph-name="oslash" unicode="&#xf8;" horiz-adv-x="586" 
d="M539 543l-51 -81q75 -61 52 -222q-19 -139 -82.5 -196t-197.5 -57q-36 0 -60 4l-58 -93l-94 51l47 76q-85 58 -62 227q20 140 83 197.5t199 57.5q35 0 72 -5l57 93zM388 252q13 86 -2.5 115t-71.5 29q-61 0 -87.5 -31t-39.5 -125q-12 -86 3 -114t73 -28q60 0 86 31.5
t39 122.5z" />
    <glyph glyph-name="ugrave" unicode="&#xf9;" horiz-adv-x="587" 
d="M362 548l-221 114l66 97l204 -148zM555 493l-68 -493h-114v93q-110 -106 -213 -106q-71 0 -103.5 37t-22.5 102l51 367h148l-47 -327q-4 -30 4.5 -42.5t32.5 -12.5q32 0 62.5 17t81.5 60l42 305h146z" />
    <glyph glyph-name="uacute" unicode="&#xfa;" horiz-adv-x="587" 
d="M294 548l-38 63l219 151l56 -108zM555 493l-68 -493h-114v93q-110 -106 -213 -106q-71 0 -103.5 37t-22.5 102l51 367h148l-47 -327q-4 -30 4.5 -42.5t32.5 -12.5q32 0 62.5 17t81.5 60l42 305h146z" />
    <glyph glyph-name="ucircumflex" unicode="&#xfb;" horiz-adv-x="587" 
d="M188 547l-37 57l148 133h101l128 -139l-46 -52l-131 98h-8zM555 493l-68 -493h-114v93q-110 -106 -213 -106q-71 0 -103.5 37t-22.5 102l51 367h148l-47 -327q-4 -30 4.5 -42.5t32.5 -12.5q32 0 62.5 17t81.5 60l42 305h146z" />
    <glyph glyph-name="udieresis" unicode="&#xfc;" horiz-adv-x="587" 
d="M452 588h-54q-31 0 -28 29l10 63q6 31 35 31h51q32 0 28 -30l-10 -63q-3 -30 -32 -30zM277 588h-54q-31 0 -28 29l10 63q4 31 36 31h50q32 0 28 -30l-10 -64q-3 -29 -32 -29zM555 493l-68 -493h-114v93q-110 -106 -213 -106q-71 0 -103.5 37t-22.5 102l51 367h148
l-47 -327q-4 -30 4.5 -42.5t32.5 -12.5q32 0 62.5 17t81.5 60l42 305h146z" />
    <glyph glyph-name="yacute" unicode="&#xfd;" 
d="M272 541l-37 63l218 150l56 -107zM417 493h156q-21 -114 -62.5 -232.5t-87.5 -203.5q-75 -136 -160.5 -194.5t-203.5 -67.5l-18 91q69 18 112.5 40.5t83.5 73.5h-59q-24 0 -40.5 14t-21.5 36l-81 443h159l47 -377q2 -16 17 -16h40l4 9q79 164 115 384z" />
    <glyph glyph-name="thorn" unicode="&#xfe;" horiz-adv-x="592" 
d="M222 436l2 -7q78 76 181 76q88 0 122.5 -61t15.5 -207q-10 -76 -30 -127t-51 -77t-64.5 -36t-79.5 -10q-80 0 -153 12q-4 -48 -9 -72l-16 -117h-147l124 890h148l-19 -138q-11 -79 -24 -126zM180 92l77 -1q74 0 98 25.5t37 122.5q12 89 5 118t-43 29q-40 0 -73.5 -23.5
t-73.5 -70.5z" />
    <glyph glyph-name="ydieresis" unicode="&#xff;" 
d="M430 580h-54q-32 0 -27 30l10 63q4 31 34 31h51q34 0 28 -31l-9 -63q-4 -30 -33 -30zM255 580h-53q-32 0 -28 30l10 62q4 32 36 32h49q34 0 28 -31l-9 -63q-4 -30 -33 -30zM417 493h156q-21 -114 -62.5 -232.5t-87.5 -203.5q-75 -136 -160.5 -194.5t-203.5 -67.5l-18 91
q69 18 112.5 40.5t83.5 73.5h-59q-24 0 -40.5 14t-21.5 36l-81 443h159l47 -377q2 -16 17 -16h40l4 9q79 164 115 384z" />
    <glyph glyph-name="Amacron" unicode="&#x100;" horiz-adv-x="647" 
d="M540 776h-299l14 96h299zM432 180h-238l-74 -180h-159l290 653q14 37 55 37h144q19 0 33.5 -12.5t15.5 -30.5l108 -647h-152zM416 301l-27 209q-3 22 -5 67h-29q-18 -51 -24 -66l-87 -210h172z" />
    <glyph glyph-name="amacron" unicode="&#x101;" horiz-adv-x="590" 
d="M489 594h-299l13 95h299zM490 0h-115l1 89q-76 -98 -202 -101q-93 -3 -125.5 60.5t-11.5 207.5q10 68 28 114.5t40 73.5t57 41t67.5 18t82.5 4q53 0 127 -9t118 -21zM399 398h-76q-72 0 -98 -25t-39 -119q-13 -95 -6 -121.5t43 -24.5q66 1 148 93z" />
    <glyph glyph-name="Abreve" unicode="&#x102;" horiz-adv-x="647" 
d="M503 902l69 -13q-2 -65 -50.5 -107t-128.5 -42q-83 0 -125 45.5t-24 108.5l71 4q-5 -31 16 -46t65 -15q99 0 107 65zM432 180h-238l-74 -180h-159l290 653q14 37 55 37h144q19 0 33.5 -12.5t15.5 -30.5l108 -647h-152zM416 301l-27 209q-3 22 -5 67h-29q-18 -51 -24 -66
l-87 -210h172z" />
    <glyph glyph-name="abreve" unicode="&#x103;" horiz-adv-x="590" 
d="M451 719l69 -13q-2 -64 -50.5 -106t-127.5 -42q-83 0 -125 45t-25 109l71 4q-4 -32 17 -47t65 -15q98 0 106 65zM490 0h-115l1 89q-76 -98 -202 -101q-93 -3 -125.5 60.5t-11.5 207.5q10 68 28 114.5t40 73.5t57 41t67.5 18t82.5 4q53 0 127 -9t118 -21zM399 398h-76
q-72 0 -98 -25t-39 -119q-13 -95 -6 -121.5t43 -24.5q66 1 148 93z" />
    <glyph glyph-name="Aogonek" unicode="&#x104;" horiz-adv-x="647" 
d="M499 647l109 -647q-43 -48 -72 -104q-14 -26 -0.5 -33.5t49.5 2.5l14 -57q-44 -16 -79.5 -19.5t-56.5 5t-32.5 24t-11 36t11.5 42.5q26 52 105 104h-81l-23 180h-238l-74 -180h-159l290 653q14 37 55 37h144q19 0 33.5 -12.5t15.5 -30.5zM416 301l-27 209q-3 22 -5 67
h-29q-18 -51 -24 -66l-87 -210h172z" />
    <glyph glyph-name="aogonek" unicode="&#x105;" horiz-adv-x="590" 
d="M557 477l-67 -477q-43 -48 -72 -104q-14 -26 -0.5 -33.5t49.5 2.5l14 -57q-44 -16 -79.5 -19.5t-56.5 5t-32.5 24t-11 36t11.5 42.5q26 52 105 104h-43l1 89q-76 -98 -202 -101q-93 -3 -125.5 60.5t-11.5 207.5q10 68 28 114.5t40 73.5t57 41t67.5 18t82.5 4q53 0 127 -9
t118 -21zM399 398h-76q-72 0 -98 -25t-39 -119q-13 -95 -6 -121.5t43 -24.5q66 1 148 93z" />
    <glyph glyph-name="Cacute" unicode="&#x106;" horiz-adv-x="583" 
d="M588 830l-237 -107l-37 64l218 150zM516 129l6 -114q-90 -27 -220 -27q-160 0 -217.5 84.5t-30.5 278.5q28 200 100 275.5t232 75.5q115 0 206 -24l-20 -113q-81 5 -192 5q-53 0 -83 -17t-50.5 -66.5t-33.5 -147.5q-18 -129 1 -174t93 -45q119 -1 209 9z" />
    <glyph glyph-name="cacute" unicode="&#x107;" horiz-adv-x="507" 
d="M508 647l-237 -106l-38 63l219 150zM435 117l10 -97q-76 -32 -192 -32q-134 0 -187 62t-33 203q20 139 80 196.5t192 57.5q117 0 189 -32l-20 -90q-116 2 -149 2q-69 0 -98.5 -28.5t-39.5 -112.5q-11 -87 7.5 -112.5t84.5 -25.5q93 0 156 9z" />
    <glyph glyph-name="Cdotaccent" unicode="&#x10a;" horiz-adv-x="583" 
d="M385 887h44q20 0 31.5 -11.5t8.5 -31.5l-6 -53q-6 -38 -43 -38h-46q-45 0 -39 44l6 52q6 38 44 38zM516 129l6 -114q-90 -27 -220 -27q-160 0 -217.5 84.5t-30.5 278.5q28 200 100 275.5t232 75.5q115 0 206 -24l-20 -113q-81 5 -192 5q-53 0 -83 -17t-50.5 -66.5
t-33.5 -147.5q-18 -129 1 -174t93 -45q119 -1 209 9z" />
    <glyph glyph-name="cdotaccent" unicode="&#x10b;" horiz-adv-x="507" 
d="M305 704h44q20 0 31.5 -11.5t8.5 -31.5l-7 -53q-5 -38 -43 -38h-45q-22 0 -32.5 11.5t-6.5 32.5l6 52q6 38 44 38zM435 117l10 -97q-76 -32 -192 -32q-134 0 -187 62t-33 203q20 139 80 196.5t192 57.5q117 0 189 -32l-20 -90q-116 2 -149 2q-69 0 -98.5 -28.5
t-39.5 -112.5q-11 -87 7.5 -112.5t84.5 -25.5q93 0 156 9z" />
    <glyph glyph-name="Ccaron" unicode="&#x10c;" horiz-adv-x="583" 
d="M593 871l-160 -131h-80l-134 140l49 50l126 -92h8l156 90zM516 129l6 -114q-90 -27 -220 -27q-160 0 -217.5 84.5t-30.5 278.5q28 200 100 275.5t232 75.5q115 0 206 -24l-20 -113q-81 5 -192 5q-53 0 -83 -17t-50.5 -66.5t-33.5 -147.5q-18 -129 1 -174t93 -45
q119 -1 209 9z" />
    <glyph glyph-name="ccaron" unicode="&#x10d;" horiz-adv-x="507" 
d="M513 688l-160 -131h-80l-134 140l49 50l125 -92h8l157 90zM435 117l10 -97q-76 -32 -192 -32q-134 0 -187 62t-33 203q20 139 80 196.5t192 57.5q117 0 189 -32l-20 -90q-116 2 -149 2q-69 0 -98.5 -28.5t-39.5 -112.5q-11 -87 7.5 -112.5t84.5 -25.5q93 0 156 9z" />
    <glyph glyph-name="Dcaron" unicode="&#x10e;" horiz-adv-x="678" 
d="M349 739l-135 141l49 49l126 -92h8l156 91l35 -58l-160 -131h-79zM28 0l97 690q130 9 247 9q114 0 177 -32t85.5 -111t3.5 -217q-16 -112 -40.5 -180t-68 -105.5t-97.5 -50t-143 -12.5q-113 0 -261 9zM262 579l-66 -467q17 0 48 -0.5t43 -0.5q48 0 76.5 8.5t52.5 34
t37.5 72.5t24.5 125q11 75 11.5 118t-13 69t-38.5 34t-71 8z" />
    <glyph glyph-name="dcaron" unicode="&#x10f;" horiz-adv-x="592" 
d="M442 700h148l-99 -700h-116v90q-100 -102 -205 -102q-83 0 -118 63t-16 205q11 79 31 130t50.5 76.5t63 35t77.5 9.5q79 0 159 -13q2 62 7 97zM684 700h30q26 0 36.5 -10t6.5 -34l-8 -51q-11 -75 -67 -145l-59 18q24 59 35 103q-21 -1 -30 8.5t-7 28.5l7 42
q4 23 16.5 31.5t39.5 8.5zM399 403h-79q-73 0 -97 -25.5t-37 -123.5q-12 -83 -5 -112.5t43 -28.5t68.5 18.5t76.5 56.5z" />
    <glyph glyph-name="Dcroat" unicode="&#x110;" horiz-adv-x="678" 
d="M85 402l40 288q130 9 247 9q114 0 177 -32t85.5 -111t3.5 -217q-16 -112 -40.5 -180t-68 -105.5t-97.5 -50t-143 -12.5q-113 0 -261 9l46 326h-55l10 76h56zM226 326l-30 -214q17 0 48 -0.5t43 -0.5q48 0 76.5 8.5t52.5 34t37.5 72.5t24.5 125q11 75 11.5 118t-13 69
t-38.5 34t-71 8l-105 -1l-25 -177h122l-10 -76h-123z" />
    <glyph glyph-name="dcroat" unicode="&#x111;" horiz-adv-x="594" 
d="M638 562h-68l-79 -562h-116v90q-100 -102 -205 -102q-83 0 -118 63t-16 205q11 79 31 130t50.5 76.5t63 35t77.5 9.5q79 0 159 -13q3 57 4 68h-121l9 68h122l11 70h148l-10 -70h68zM399 403h-79q-73 0 -97 -25.5t-37 -123.5q-12 -83 -5 -112.5t43 -28.5t68.5 18.5
t76.5 56.5z" />
    <glyph glyph-name="Emacron" unicode="&#x112;" horiz-adv-x="572" 
d="M530 788h-299l13 95h300zM564 570h-258q-29 0 -41.5 -11.5t-16.5 -42.5l-15 -104h272l-14 -108h-273l-18 -133q-4 -28 6.5 -39.5t38.5 -11.5h255l-4 -113q-88 -10 -299 -10q-84 0 -123 44.5t-29 121.5l55 394q9 64 51.5 100t113.5 36q218 0 318 -11z" />
    <glyph glyph-name="emacron" unicode="&#x113;" horiz-adv-x="560" 
d="M482 594h-300l14 95h299zM472 117l10 -94q-83 -35 -217 -35q-141 0 -194 66t-37 203q18 144 82 197t204 53q130 0 176.5 -43t34.5 -127q-10 -70 -57 -100t-145 -37l-146 -11q1 -49 24.5 -66t74.5 -17q97 0 190 11zM192 276l115 11q40 3 58.5 16t22.5 48q3 33 -12.5 41
t-65.5 7q-58 0 -81.5 -24.5t-36.5 -98.5z" />
    <glyph glyph-name="Edotaccent" unicode="&#x116;" horiz-adv-x="572" 
d="M406 764h-45q-46 0 -40 44l7 52q6 38 43 38h44q20 0 31.5 -11.5t9.5 -31.5l-7 -52q-5 -39 -43 -39zM564 570h-258q-29 0 -41.5 -11.5t-16.5 -42.5l-15 -104h272l-14 -108h-273l-18 -133q-4 -28 6.5 -39.5t38.5 -11.5h255l-4 -113q-88 -10 -299 -10q-84 0 -123 44.5
t-29 121.5l55 394q9 64 51.5 100t113.5 36q218 0 318 -11z" />
    <glyph glyph-name="edotaccent" unicode="&#x117;" horiz-adv-x="560" 
d="M357 570h-45q-46 0 -40 44l7 52q6 38 44 38h43q21 0 32 -11t9 -32l-7 -53q-5 -38 -43 -38zM472 117l10 -94q-83 -35 -217 -35q-141 0 -194 66t-37 203q18 144 82 197t204 53q130 0 176.5 -43t34.5 -127q-10 -70 -57 -100t-145 -37l-146 -11q1 -49 24.5 -66t74.5 -17
q97 0 190 11zM192 276l115 11q40 3 58.5 16t22.5 48q3 33 -12.5 41t-65.5 7q-58 0 -81.5 -24.5t-36.5 -98.5z" />
    <glyph glyph-name="Eogonek" unicode="&#x118;" horiz-adv-x="572" 
d="M564 570h-258q-29 0 -41.5 -11.5t-16.5 -42.5l-15 -104h272l-14 -108h-273l-18 -133q-4 -28 6.5 -39.5t38.5 -11.5h255l-4 -113q-44 -48 -72 -105q-13 -25 0 -33t50 3l14 -57q-44 -16 -79.5 -19.5t-57 5t-33 24t-11 36t11.5 42.5q27 50 97 98q-72 -4 -219 -4
q-84 0 -123 44.5t-29 121.5l55 394q9 64 51.5 100t113.5 36q218 0 318 -11z" />
    <glyph glyph-name="eogonek" unicode="&#x119;" horiz-adv-x="560" 
d="M459 -112l14 -57q-44 -16 -79.5 -19.5t-57 5t-33 24t-11 36t11.5 42.5q20 38 67 76q-52 -7 -106 -7q-141 0 -194 66t-37 203q18 144 82 197t204 53q130 0 176.5 -43t34.5 -127q-10 -70 -57 -100t-145 -37l-146 -11q1 -49 24.5 -66t74.5 -17q97 0 190 11l10 -94
q-38 -39 -73 -104q-13 -26 0 -33.5t50 2.5zM192 276l115 11q40 3 58.5 16t22.5 48q3 33 -12.5 41t-65.5 7q-58 0 -81.5 -24.5t-36.5 -98.5z" />
    <glyph glyph-name="Ecaron" unicode="&#x11a;" horiz-adv-x="572" 
d="M340 751l-135 140l49 50l126 -92h8l156 90l35 -57l-160 -131h-79zM564 570h-258q-29 0 -41.5 -11.5t-16.5 -42.5l-15 -104h272l-14 -108h-273l-18 -133q-4 -28 6.5 -39.5t38.5 -11.5h255l-4 -113q-88 -10 -299 -10q-84 0 -123 44.5t-29 121.5l55 394q9 64 51.5 100
t113.5 36q218 0 318 -11z" />
    <glyph glyph-name="ecaron" unicode="&#x11b;" horiz-adv-x="560" 
d="M291 557l-134 140l48 50l126 -92h8l157 90l35 -57l-160 -131h-80zM472 117l10 -94q-83 -35 -217 -35q-141 0 -194 66t-37 203q18 144 82 197t204 53q130 0 176.5 -43t34.5 -127q-10 -70 -57 -100t-145 -37l-146 -11q1 -49 24.5 -66t74.5 -17q97 0 190 11zM192 276l115 11
q40 3 58.5 16t22.5 48q3 33 -12.5 41t-65.5 7q-58 0 -81.5 -24.5t-36.5 -98.5z" />
    <glyph glyph-name="Gbreve" unicode="&#x11e;" horiz-adv-x="643" 
d="M514 902l69 -13q-2 -64 -50.5 -106.5t-127.5 -42.5q-83 0 -125 45t-25 109l71 4q-4 -31 16.5 -46t65.5 -15q98 0 106 65zM460 399h146l-56 -399h-111l-4 85q-90 -98 -208 -98q-106 0 -150.5 87t-21.5 277q14 108 41.5 178t73 108t100.5 52t137 14q124 0 211 -25l-19 -111
q-113 5 -190 5q-97 0 -136.5 -45.5t-58.5 -187.5q-16 -127 0 -173.5t76 -46.5q42 0 72 16.5t69 52.5z" />
    <glyph glyph-name="gbreve" unicode="&#x11f;" horiz-adv-x="593" 
d="M451 722l69 -14q-2 -64 -50.5 -106t-128.5 -42q-83 0 -125 45t-24 109l71 4q-5 -31 16 -46t65 -15q99 0 107 65zM560 477l-61 -433q-16 -133 -92.5 -191.5t-213.5 -58.5q-117 0 -184 27l11 87q34 -1 141 -1q160 0 190 91q4 11 10.5 34.5t13.5 43t18 35.5
q-37 -54 -93.5 -86t-125.5 -33q-90 -2 -123.5 60t-12.5 204q10 68 27.5 115t37.5 73.5t51 41t59 18t71 3.5q154 0 276 -30zM402 398h-80q-73 0 -96.5 -25.5t-37.5 -118.5q-14 -94 -6.5 -121t43.5 -25q67 3 148 93z" />
    <glyph glyph-name="Gdotaccent" unicode="&#x120;" horiz-adv-x="643" 
d="M427 753h-45q-22 0 -32.5 11.5t-6.5 32.5l6 51q6 39 44 39h44q20 0 31.5 -11.5t8.5 -31.5l-7 -53q-4 -38 -43 -38zM460 399h146l-56 -399h-111l-4 85q-90 -98 -208 -98q-106 0 -150.5 87t-21.5 277q14 108 41.5 178t73 108t100.5 52t137 14q124 0 211 -25l-19 -111
q-113 5 -190 5q-97 0 -136.5 -45.5t-58.5 -187.5q-16 -127 0 -173.5t76 -46.5q42 0 72 16.5t69 52.5z" />
    <glyph glyph-name="gdotaccent" unicode="&#x121;" horiz-adv-x="593" 
d="M364 572h-45q-22 0 -32.5 12t-7.5 32l7 52q6 39 44 39h43q21 0 32 -11.5t9 -32.5l-7 -52q-5 -39 -43 -39zM560 477l-61 -433q-16 -133 -92.5 -191.5t-213.5 -58.5q-117 0 -184 27l11 87q34 -1 141 -1q160 0 190 91q4 11 10.5 34.5t13.5 43t18 35.5q-37 -54 -93.5 -86
t-125.5 -33q-90 -2 -123.5 60t-12.5 204q10 68 27.5 115t37.5 73.5t51 41t59 18t71 3.5q154 0 276 -30zM402 398h-80q-73 0 -96.5 -25.5t-37.5 -118.5q-14 -94 -6.5 -121t43.5 -25q67 3 148 93z" />
    <glyph glyph-name="Gcommaaccent" unicode="&#x122;" horiz-adv-x="643" 
d="M460 399h146l-56 -399h-111l-4 85q-90 -98 -208 -98q-106 0 -150.5 87t-21.5 277q14 108 41.5 178t73 108t100.5 52t137 14q124 0 211 -25l-19 -111q-113 5 -190 5q-97 0 -136.5 -45.5t-58.5 -187.5q-16 -127 0 -173.5t76 -46.5q42 0 72 16.5t69 52.5zM290 -52h30
q26 0 36.5 -10.5t6.5 -33.5l-8 -52q-11 -76 -67 -146l-59 19q23 52 35 103q-21 -1 -30 8.5t-7 28.5l7 42q4 24 16.5 32.5t39.5 8.5z" />
    <glyph glyph-name="gcommaaccent" unicode="&#x123;" horiz-adv-x="593" 
d="M351 551h-30q-26 0 -36.5 10.5t-6.5 33.5l8 52q11 74 67 146l59 -19q-22 -50 -35 -103q21 1 30 -8.5t7 -28.5l-7 -42q-4 -24 -16.5 -32.5t-39.5 -8.5zM560 477l-61 -433q-16 -133 -92.5 -191.5t-213.5 -58.5q-117 0 -184 27l11 87q34 -1 141 -1q160 0 190 91
q4 11 10.5 34.5t13.5 43t18 35.5q-37 -54 -93.5 -86t-125.5 -33q-90 -2 -123.5 60t-12.5 204q10 68 27.5 115t37.5 73.5t51 41t59 18t71 3.5q154 0 276 -30zM402 398h-80q-73 0 -96.5 -25.5t-37.5 -118.5q-14 -94 -6.5 -121t43.5 -25q67 3 148 93z" />
    <glyph glyph-name="Hbar" unicode="&#x126;" horiz-adv-x="684" 
d="M709 514h-64l-72 -514h-152l43 307h-239l-44 -307h-153l73 514h-59l10 71h59l14 105h153l-14 -105h239l15 105h152l-15 -105h64zM493 514h-239l-13 -88h240z" />
    <glyph glyph-name="hbar" unicode="&#x127;" horiz-adv-x="595" 
d="M245 562l-5 -36q-9 -62 -26 -121q112 102 210 102q67 0 100.5 -36.5t23.5 -103.5l-52 -367h-147l46 327q4 33 -2 44t-29 11q-33 0 -68.5 -18.5t-89.5 -60.5l-41 -303h-148l79 562h-60l9 68h61l10 70h147l-9 -70h129l-9 -68h-129z" />
    <glyph glyph-name="Imacron" unicode="&#x12a;" horiz-adv-x="292" 
d="M363 776h-300l14 96h299zM181 0h-153l97 690h153z" />
    <glyph glyph-name="imacron" unicode="&#x12b;" horiz-adv-x="276" 
d="M327 594h-300l14 95h299zM171 0h-148l69 493h148z" />
    <glyph glyph-name="Iogonek" unicode="&#x12e;" horiz-adv-x="292" 
d="M181 0h-20q-43 -48 -72 -104q-14 -26 -0.5 -33.5t50.5 2.5l13 -57q-44 -16 -79.5 -19.5t-56.5 5t-32.5 24t-11 36t11.5 42.5q26 53 106 104h-62l97 690h153z" />
    <glyph glyph-name="iogonek" unicode="&#x12f;" horiz-adv-x="276" 
d="M168 704h43q21 0 32 -11t9 -32l-7 -53q-5 -38 -43 -38h-45q-46 0 -40 44l7 52q6 38 44 38zM92 493h148l-69 -493h-13q-43 -48 -72 -104q-14 -26 -0.5 -33.5t49.5 2.5l14 -57q-44 -16 -79.5 -19.5t-56.5 5t-32.5 24t-11 36t11.5 42.5q26 52 105 104h-63z" />
    <glyph glyph-name="Idotaccent" unicode="&#x130;" horiz-adv-x="292" 
d="M204 887h43q21 0 32 -11.5t9 -31.5l-7 -53q-4 -38 -43 -38h-45q-46 0 -40 44l7 51q6 39 44 39zM181 0h-153l97 690h153z" />
    <glyph glyph-name="dotlessi" unicode="&#x131;" horiz-adv-x="276" 
d="M171 0h-148l69 493h148z" />
    <glyph glyph-name="IJ" unicode="&#x132;" horiz-adv-x="656" 
d="M181 0h-153l97 690h153zM645 690l-77 -548q-10 -75 -53.5 -114.5t-112.5 -39.5q-80 0 -127 21l27 101h41q69 0 75 56l75 524h152z" />
    <glyph glyph-name="ij" unicode="&#x133;" horiz-adv-x="550" 
d="M162 711h62q47 0 42 -46l-7 -54q-6 -40 -48 -40h-63q-46 0 -40 46l7 53q4 41 47 41zM437 711h62q47 0 41 -46l-7 -54q-6 -40 -48 -40h-62q-47 0 -41 46l8 53q4 41 47 41zM170 0h-147l69 493h147zM515 493l-67 -473q-9 -69 -49 -128t-101 -90l-80 68q70 70 83 156l67 467
h147z" />
    <glyph glyph-name="Kcommaaccent" unicode="&#x136;" horiz-adv-x="630" 
d="M396 353l-1 -4q24 -20 45 -63l143 -286h-168l-142 304h-57q3 -33 -2 -69l-33 -235h-153l97 690h153l-29 -203q-5 -38 -16 -74h56l206 277h176l-215 -284q-24 -33 -60 -53zM274 -52h30q26 0 36.5 -10.5t6.5 -33.5l-8 -52q-13 -78 -67 -146l-59 19q22 53 35 103
q-21 -1 -30 8.5t-7 28.5l7 42q4 24 16.5 32.5t39.5 8.5z" />
    <glyph glyph-name="kcommaaccent" unicode="&#x137;" horiz-adv-x="563" 
d="M396 493h151q-37 -140 -162 -227q23 -24 41 -62l91 -204h-154l-87 204q-37 -17 -85 -36l-24 -168h-148l98 700h148l-41 -301q-8 -59 -36 -122q77 40 134.5 96.5t73.5 119.5zM250 -48h30q26 0 36.5 -10.5t6.5 -33.5l-8 -52q-11 -76 -67 -146l-59 19q23 52 35 103
q-21 -1 -30 8.5t-7 28.5l7 42q4 24 16.5 32.5t39.5 8.5z" />
    <glyph glyph-name="Lacute" unicode="&#x139;" horiz-adv-x="528" 
d="M405 824l-237 -106l-37 63l218 151zM275 690l-73 -515q-3 -26 6.5 -38.5t38.5 -12.5h236l-3 -117q-98 -10 -290 -10q-74 0 -113 42.5t-28 116.5l73 534h153z" />
    <glyph glyph-name="lacute" unicode="&#x13a;" horiz-adv-x="325" 
d="M401 844l-237 -106l-37 63l218 151zM265 700l-77 -542q-4 -27 5.5 -37t40.5 -10h43l7 -105q-35 -18 -115 -18q-69 0 -104.5 37t-27.5 102l81 573h147z" />
    <glyph glyph-name="Lcommaaccent" unicode="&#x13b;" horiz-adv-x="528" 
d="M275 690l-73 -515q-3 -26 6.5 -38.5t38.5 -12.5h236l-3 -117q-98 -10 -290 -10q-74 0 -113 42.5t-28 116.5l73 534h153zM249 -52h29q26 0 36.5 -10.5t6.5 -33.5l-8 -52q-11 -77 -66 -146l-59 19q23 55 34 103q-21 -1 -29.5 8.5t-6.5 28.5l6 42q5 24 17 32.5t40 8.5z" />
    <glyph glyph-name="lcommaaccent" unicode="&#x13c;" horiz-adv-x="325" 
d="M265 700l-77 -542q-4 -27 5.5 -37t40.5 -10h43l7 -105q-35 -18 -115 -18q-69 0 -104.5 37t-27.5 102l81 573h147zM134 -50h30q51 0 42 -44l-7 -52q-13 -78 -67 -146l-59 19q22 53 35 103q-21 -1 -30 8.5t-7 28.5l7 42q4 24 16.5 32.5t39.5 8.5z" />
    <glyph glyph-name="Lcaron" unicode="&#x13d;" horiz-adv-x="528" 
d="M390 691h30q26 0 36.5 -10t6.5 -34l-8 -51q-11 -75 -66 -146l-59 18q23 57 34 104q-40 -3 -37 37l7 42q5 23 17 31.5t39 8.5zM275 690l-73 -515q-3 -26 6.5 -38.5t38.5 -12.5h236l-3 -117q-98 -10 -290 -10q-74 0 -113 42.5t-28 116.5l73 534h153z" />
    <glyph glyph-name="lcaron" unicode="&#x13e;" horiz-adv-x="325" 
d="M358 700h30q26 0 36 -10t6 -34l-7 -51q-13 -77 -67 -147l-59 19q22 54 34 104q-41 -3 -36 36l7 43q4 23 16.5 31.5t39.5 8.5zM265 700l-77 -542q-4 -27 5.5 -37t40.5 -10h43l7 -105q-35 -18 -115 -18q-69 0 -104.5 37t-27.5 102l81 573h147z" />
    <glyph glyph-name="Ldot" unicode="&#x13f;" horiz-adv-x="528" 
d="M275 690l-73 -515q-3 -26 6.5 -38.5t38.5 -12.5h236l-3 -117q-98 -10 -290 -10q-74 0 -113 42.5t-28 116.5l73 534h153zM435 342h-44q-20 0 -31.5 11.5t-9.5 31.5l7 53q5 38 43 38h45q46 0 40 -44l-7 -52q-6 -38 -43 -38z" />
    <glyph glyph-name="ldot" unicode="&#x140;" horiz-adv-x="411" 
d="M265 700l-77 -542q-4 -27 5.5 -37t40.5 -10h43l7 -105q-35 -18 -115 -18q-69 0 -104.5 37t-27.5 102l81 573h147zM371 305h-44q-20 0 -31.5 11.5t-9.5 31.5l7 53q6 38 43 38h45q46 0 40 -44l-7 -52q-5 -38 -43 -38z" />
    <glyph glyph-name="Lslash" unicode="&#x141;" horiz-adv-x="529" 
d="M484 124l-3 -117q-98 -10 -290 -10q-74 0 -113 42.5t-28 116.5l21 153l-58 -22l9 81l60 23l41 299h153l-34 -238l116 43l-11 -81l-116 -44l-28 -195q-3 -26 6.5 -38.5t38.5 -12.5h236z" />
    <glyph glyph-name="lslash" unicode="&#x142;" horiz-adv-x="332" 
d="M223 370l-30 -212q-4 -27 5.5 -37t40.5 -10h43l7 -105q-35 -18 -115 -18q-69 0 -104.5 37t-27.5 102l26 184l-63 -24l11 81l64 24l43 308h147l-35 -249l117 44l-12 -81z" />
    <glyph glyph-name="Nacute" unicode="&#x143;" horiz-adv-x="717" 
d="M621 829l-237 -106l-37 63l218 151zM704 690l-90 -638q-7 -52 -57 -52h-85q-23 0 -34.5 11t-22.5 37l-137 368q-19 50 -30 104h-10q-2 -61 -8 -108l-57 -412h-145l90 638q7 52 58 52h84q22 0 34 -11.5t22 -36.5l133 -356q23 -61 36 -112h12q0 59 7 111l55 405h145z" />
    <glyph glyph-name="nacute" unicode="&#x144;" horiz-adv-x="596" 
d="M300 541l-37 63l218 150l56 -107zM204 493v-98q115 112 225 112q63 0 97 -36.5t24 -103.5l-52 -367h-147l45 323q5 35 -2 47.5t-31 11.5q-56 -1 -154 -78l-42 -304h-148l69 493h116z" />
    <glyph glyph-name="Ncommaaccent" unicode="&#x145;" horiz-adv-x="717" 
d="M704 690l-90 -638q-7 -52 -57 -52h-85q-23 0 -34.5 11t-22.5 37l-137 368q-19 50 -30 104h-10q-2 -61 -8 -108l-57 -412h-145l90 638q7 52 58 52h84q22 0 34 -11.5t22 -36.5l133 -356q23 -61 36 -112h12q0 59 7 111l55 405h145zM322 -52h30q51 0 42 -44l-7 -52
q-13 -78 -67 -146l-59 19q22 53 35 103q-21 -1 -30 8.5t-7 28.5l7 42q4 24 16.5 32.5t39.5 8.5z" />
    <glyph glyph-name="ncommaaccent" unicode="&#x146;" horiz-adv-x="596" 
d="M204 493v-98q115 112 225 112q63 0 97 -36.5t24 -103.5l-52 -367h-147l45 323q5 35 -2 47.5t-31 11.5q-56 -1 -154 -78l-42 -304h-148l69 493h116zM242 -48h30q26 0 36.5 -10.5t6.5 -33.5l-8 -52q-11 -76 -67 -146l-59 19q25 61 35 103q-21 -1 -30 8.5t-7 28.5l7 42
q4 24 16.5 32.5t39.5 8.5z" />
    <glyph glyph-name="Ncaron" unicode="&#x147;" horiz-adv-x="717" 
d="M626 870l-160 -131h-80l-134 141l49 49l126 -92h8l156 91zM704 690l-90 -638q-7 -52 -57 -52h-85q-23 0 -34.5 11t-22.5 37l-137 368q-19 50 -30 104h-10q-2 -61 -8 -108l-57 -412h-145l90 638q7 52 58 52h84q22 0 34 -11.5t22 -36.5l133 -356q23 -61 36 -112h12
q0 59 7 111l55 405h145z" />
    <glyph glyph-name="ncaron" unicode="&#x148;" horiz-adv-x="596" 
d="M303 557l-135 140l49 50l126 -92h8l156 90l35 -57l-160 -131h-79zM204 493v-98q115 112 225 112q63 0 97 -36.5t24 -103.5l-52 -367h-147l45 323q5 35 -2 47.5t-31 11.5q-56 -1 -154 -78l-42 -304h-148l69 493h116z" />
    <glyph glyph-name="Eng" unicode="&#x14a;" horiz-adv-x="719" 
d="M706 690l-106 -749q-10 -72 -51.5 -112t-101.5 -39q-73 0 -119 21l26 94h39q64 0 73 54l7 47l-18 -1q-3 0 -5.5 1t-5 4t-4.5 5.5t-4 7t-3.5 7.5t-3.5 8.5t-3 7.5l-148 358q-18 41 -28 105h-11q0 -55 -9 -111l-56 -398h-146l90 638q7 52 58 52h79q23 0 35 -11.5t21 -36.5
l138 -344q27 -65 37 -112h10q0 49 9 119l55 385h146z" />
    <glyph glyph-name="eng" unicode="&#x14b;" horiz-adv-x="596" 
d="M202 493l1 -97q118 111 220 111q70 0 103 -36t24 -104l-57 -404q-23 -163 -155 -163q-75 0 -120 21l25 94h35q60 0 68 54l51 358q4 29 -3.5 40t-33.5 10q-52 -1 -151 -74l-42 -303h-148l69 493h114z" />
    <glyph glyph-name="Omacron" unicode="&#x14c;" horiz-adv-x="680" 
d="M557 776h-299l13 96h299zM388 703q159 0 220 -81.5t33 -282.5q-27 -202 -100.5 -277t-231.5 -75q-162 0 -222 80t-33 284q28 199 101.5 275.5t232.5 76.5zM383 580q-80 0 -114 -48.5t-55 -192.5q-19 -135 1 -182t97 -47q79 0 114 49.5t56 191.5q20 137 -0.5 183t-98.5 46
z" />
    <glyph glyph-name="omacron" unicode="&#x14d;" horiz-adv-x="586" 
d="M484 594h-300l14 95h299zM315 507q137 0 191 -62t34 -205q-19 -139 -82.5 -196t-197.5 -57q-136 0 -191.5 62t-35.5 203q20 140 83 197.5t199 57.5zM314 396q-61 0 -87.5 -31t-39.5 -125q-12 -86 3 -114t73 -28q60 0 86 31.5t39 122.5q13 86 -2.5 115t-71.5 29z" />
    <glyph glyph-name="Ohungarumlaut" unicode="&#x150;" horiz-adv-x="680" 
d="M469 882l-170 -162l-60 42l143 180zM658 882l-170 -162l-59 41l142 181zM388 703q159 0 220 -81.5t33 -282.5q-27 -202 -100.5 -277t-231.5 -75q-162 0 -222 80t-33 284q28 199 101.5 275.5t232.5 76.5zM383 580q-80 0 -114 -48.5t-55 -192.5q-19 -135 1 -182t97 -47
q79 0 114 49.5t56 191.5q20 137 -0.5 183t-98.5 46z" />
    <glyph glyph-name="ohungarumlaut" unicode="&#x151;" horiz-adv-x="586" 
d="M396 699l-170 -162l-60 42l143 181zM585 699l-170 -162l-59 42l142 181zM315 507q137 0 191 -62t34 -205q-19 -139 -82.5 -196t-197.5 -57q-136 0 -191.5 62t-35.5 203q20 140 83 197.5t199 57.5zM314 396q-61 0 -87.5 -31t-39.5 -125q-12 -86 3 -114t73 -28
q60 0 86 31.5t39 122.5q13 86 -2.5 115t-71.5 29z" />
    <glyph glyph-name="OE" unicode="&#x152;" horiz-adv-x="949" 
d="M940 570h-255q-52 0 -58 -54l-15 -105h269l-13 -105h-270l-19 -138q-4 -26 5.5 -37t35.5 -11h256l-3 -113q-90 -10 -302 -10q-57 0 -97 24q-75 -34 -170 -34q-85 0 -137.5 17.5t-84.5 59.5t-36 112t8 175q29 203 101.5 277.5t232.5 74.5q100 0 170 -28q34 18 82 18
q219 0 319 -11zM479 557l3 15q-40 8 -94 8q-80 0 -117.5 -51t-56.5 -190q-19 -134 -0.5 -181.5t91.5 -47.5q69 0 116 14q0 8 2 28z" />
    <glyph glyph-name="oe" unicode="&#x153;" horiz-adv-x="904" 
d="M814 117l9 -94q-81 -35 -212 -35q-112 0 -171 53q-67 -54 -183 -54q-135 0 -189.5 62t-34.5 203q20 140 82.5 197.5t196.5 57.5q108 0 166 -48q64 48 188 48q129 0 175.5 -43t34.5 -127q-10 -70 -56.5 -100t-143.5 -37l-145 -11q1 -50 24 -66.5t74 -16.5q95 0 185 11z
M540 276l113 11q40 3 58 16t22 48q3 33 -12.5 41t-64.5 7q-57 0 -80 -24.5t-36 -98.5zM260 98q58 0 83 31.5t38 122.5q13 86 -1.5 115t-69.5 29q-59 0 -84.5 -31t-38.5 -125q-12 -86 2.5 -114t70.5 -28z" />
    <glyph glyph-name="Racute" unicode="&#x154;" horiz-adv-x="641" 
d="M336 723l-37 63l218 151l56 -108zM28 0l97 690q92 9 255 9q129 0 188.5 -47.5t43.5 -162.5q-10 -73 -45.5 -114.5t-109.5 -50.5l-1 -6q69 -16 83 -106l36 -212h-156l-32 214q-4 32 -17 43.5t-41 11.5l-114 1l-38 -270h-149zM232 387h108q60 0 85.5 22t34.5 82
q8 52 -10 71.5t-73 19.5l-118 -1z" />
    <glyph glyph-name="racute" unicode="&#x155;" horiz-adv-x="423" 
d="M237 541l-37 63l218 150l57 -107zM203 493v-93q113 107 210 107h30l-33 -137h-36q-31 0 -65.5 -13.5t-99.5 -47.5l-42 -309h-148l69 493h115z" />
    <glyph glyph-name="Rcommaaccent" unicode="&#x156;" horiz-adv-x="641" 
d="M28 0l97 690q92 9 255 9q129 0 188.5 -47.5t43.5 -162.5q-10 -73 -45.5 -114.5t-109.5 -50.5l-1 -6q69 -16 83 -106l36 -212h-156l-32 214q-4 32 -17 43.5t-41 11.5l-114 1l-38 -270h-149zM232 387h108q60 0 85.5 22t34.5 82q8 52 -10 71.5t-73 19.5l-118 -1zM295 -52h30
q51 0 42 -44l-7 -52q-13 -78 -67 -146l-59 19q22 53 35 103q-21 -1 -30 8.5t-7 28.5l7 42q4 24 16.5 32.5t39.5 8.5z" />
    <glyph glyph-name="rcommaaccent" unicode="&#x157;" horiz-adv-x="423" 
d="M443 507l-33 -137h-36q-31 0 -65.5 -13.5t-99.5 -47.5l-42 -309h-148l69 493h115v-93q113 107 210 107h30zM68 -48h30q49 0 42 -44l-7 -52q-13 -78 -67 -146l-59 19q23 55 34 103q-21 -1 -29.5 8.5t-6.5 28.5l7 42q4 24 16.5 32.5t39.5 8.5z" />
    <glyph glyph-name="Rcaron" unicode="&#x158;" horiz-adv-x="641" 
d="M339 739l-135 141l49 49l126 -92h8l156 91l35 -58l-160 -131h-79zM28 0l97 690q92 9 255 9q129 0 188.5 -47.5t43.5 -162.5q-10 -73 -45.5 -114.5t-109.5 -50.5l-1 -6q69 -16 83 -106l36 -212h-156l-32 214q-4 32 -17 43.5t-41 11.5l-114 1l-38 -270h-149zM232 387h108
q60 0 85.5 22t34.5 82q8 52 -10 71.5t-73 19.5l-118 -1z" />
    <glyph glyph-name="rcaron" unicode="&#x159;" horiz-adv-x="423" 
d="M240 557l-134 140l48 50l126 -92h8l156 90l36 -57l-161 -131h-79zM203 493v-93q113 107 210 107h30l-33 -137h-36q-31 0 -65.5 -13.5t-99.5 -47.5l-42 -309h-148l69 493h115z" />
    <glyph glyph-name="Sacute" unicode="&#x15a;" 
d="M548 829l-238 -106l-37 63l218 151zM323 262l-131 53q-75 31 -101 80t-17 123q15 110 76.5 147.5t191.5 37.5q129 0 225 -28l-15 -103q-90 3 -214 3q-61 1 -83 -9.5t-29 -56.5q-5 -34 5.5 -47.5t49.5 -28.5l124 -48q79 -31 104 -77.5t15 -127.5q-15 -114 -73.5 -153.5
t-198.5 -39.5q-116 0 -237 27l16 109q212 -5 215 -5q70 0 95 13.5t32 57.5q4 34 -6 47t-44 26z" />
    <glyph glyph-name="sacute" unicode="&#x15b;" horiz-adv-x="524" 
d="M501 647l-237 -106l-38 63l219 150zM268 177l-119 49q-60 24 -84 61t-17 93q8 68 59.5 98t161.5 29q136 -2 228 -20l-14 -94q-192 3 -195 3q-58 0 -77 -4.5t-22 -21.5q-2 -17 9.5 -25.5t44.5 -21.5l121 -48q61 -24 86 -58t18 -91q-6 -44 -23.5 -72t-50.5 -42t-71 -18.5
t-97 -4.5q-90 0 -217 18l14 95q36 -2 157 -2q86 0 114 6t32 26q2 15 -7.5 22t-37.5 18q-8 3 -13 5z" />
    <glyph glyph-name="Scedilla" unicode="&#x15e;" 
d="M323 262l-131 53q-75 31 -101 80t-17 123q15 110 76.5 147.5t191.5 37.5q129 0 225 -28l-15 -103q-90 3 -214 3q-61 1 -83 -9.5t-29 -56.5q-5 -34 5.5 -47.5t49.5 -28.5l124 -48q79 -31 104 -77.5t15 -127.5q-15 -114 -73.5 -153.5t-198.5 -39.5q-116 0 -237 27l16 109
q212 -5 215 -5q70 0 95 13.5t32 57.5q4 34 -6 47t-44 26zM169 -117l15 59q79 8 113 -5.5t25 -65.5q-12 -72 -71.5 -106t-142.5 -23l20 64q37 0 64.5 15t33.5 44q2 11 -7.5 14.5t-49.5 3.5z" />
    <glyph glyph-name="scedilla" unicode="&#x15f;" horiz-adv-x="524" 
d="M268 177l-119 49q-60 24 -84 61t-17 93q8 68 59.5 98t161.5 29q136 -2 228 -20l-14 -94q-192 3 -195 3q-58 0 -77 -4.5t-22 -21.5q-2 -17 9.5 -25.5t44.5 -21.5l121 -48q61 -24 86 -58t18 -91q-6 -44 -23.5 -72t-50.5 -42t-71 -18.5t-97 -4.5q-90 0 -217 18l14 95
q36 -2 157 -2q86 0 114 6t32 26q2 15 -7.5 22t-37.5 18q-8 3 -13 5zM133 -109l15 58q78 9 112.5 -5t25.5 -65q-12 -72 -71.5 -106.5t-142.5 -22.5l20 64q37 -1 64.5 14t33.5 44q2 12 -7.5 15.5t-49.5 3.5z" />
    <glyph glyph-name="Scaron" unicode="&#x160;" 
d="M552 870l-160 -131h-79l-135 141l49 49l126 -92h8l156 91zM323 262l-131 53q-75 31 -101 80t-17 123q15 110 76.5 147.5t191.5 37.5q129 0 225 -28l-15 -103q-90 3 -214 3q-61 1 -83 -9.5t-29 -56.5q-5 -34 5.5 -47.5t49.5 -28.5l124 -48q79 -31 104 -77.5t15 -127.5
q-15 -114 -73.5 -153.5t-198.5 -39.5q-116 0 -237 27l16 109q212 -5 215 -5q70 0 95 13.5t32 57.5q4 34 -6 47t-44 26z" />
    <glyph glyph-name="scaron" unicode="&#x161;" horiz-adv-x="524" 
d="M506 688l-160 -131h-80l-134 140l49 50l125 -92h8l157 90zM268 177l-119 49q-60 24 -84 61t-17 93q8 68 59.5 98t161.5 29q136 -2 228 -20l-14 -94q-192 3 -195 3q-58 0 -77 -4.5t-22 -21.5q-2 -17 9.5 -25.5t44.5 -21.5l121 -48q61 -24 86 -58t18 -91q-6 -44 -23.5 -72
t-50.5 -42t-71 -18.5t-97 -4.5q-90 0 -217 18l14 95q36 -2 157 -2q86 0 114 6t32 26q2 15 -7.5 22t-37.5 18q-8 3 -13 5z" />
    <glyph glyph-name="Tcedilla" unicode="&#x162;" horiz-adv-x="594" 
d="M617 566h-206l-79 -566h-153l80 566h-205l17 124h563zM171 -100l15 58q78 9 112.5 -5t25.5 -65q-12 -72 -71.5 -106.5t-142.5 -22.5l20 64q37 -1 64.5 14t33.5 44q2 12 -7.5 15.5t-49.5 3.5z" />
    <glyph glyph-name="tcedilla" unicode="&#x163;" horiz-adv-x="410" 
d="M266 394l-33 -236q-4 -28 4.5 -37.5t38.5 -9.5h66l7 -104q-53 -19 -138 -19q-70 0 -104 38.5t-24 106.5l38 261h-89l12 94l91 5l20 138h145l-19 -138h136l-14 -99h-137zM109 -110l15 59q79 9 113 -5t26 -66q-12 -72 -72 -106t-143 -23l21 64q37 0 64 15t33 44
q2 11 -7.5 14.5t-49.5 3.5z" />
    <glyph glyph-name="Tcaron" unicode="&#x164;" horiz-adv-x="594" 
d="M321 739l-134 141l49 49l125 -92h8l157 91l35 -58l-160 -131h-80zM617 566h-206l-79 -566h-153l80 566h-205l17 124h563z" />
    <glyph glyph-name="tcaron" unicode="&#x165;" horiz-adv-x="410" 
d="M392 793h30q26 0 36.5 -10.5t6.5 -33.5l-8 -52q-11 -76 -67 -146l-59 19q23 52 35 103q-21 -1 -30 8.5t-7 28.5l7 42q4 24 16.5 32.5t39.5 8.5zM281 493h136l-14 -99h-137l-33 -236q-4 -28 4.5 -37.5t38.5 -9.5h66l7 -104q-53 -19 -138 -19q-70 0 -104 38.5t-24 106.5
l38 261h-89l12 94l91 5l20 138h145z" />
    <glyph glyph-name="Tbar" unicode="&#x166;" horiz-adv-x="594" 
d="M411 566l-22 -157h134l-10 -73h-134l-47 -336h-153l47 336h-122l10 73h123l22 157h-205l17 124h563l-17 -124h-206z" />
    <glyph glyph-name="tbar" unicode="&#x167;" horiz-adv-x="410" 
d="M266 394l-9 -69h105l-10 -73h-106l-13 -94q-4 -28 4.5 -37.5t38.5 -9.5h66l7 -104q-53 -19 -138 -19q-70 0 -104 38.5t-24 106.5l17 119h-61l10 73h62l10 69h-89l12 94l91 5l20 138h145l-19 -138h136l-14 -99h-137z" />
    <glyph glyph-name="Umacron" unicode="&#x16a;" horiz-adv-x="677" 
d="M555 776h-300l14 96h299zM670 690l-60 -418q-23 -158 -90 -221.5t-211 -63.5q-147 0 -208 68t-40 223l58 412h153l-59 -418q-14 -94 6 -128t90 -34q72 0 104 36t46 132l58 412h153z" />
    <glyph glyph-name="umacron" unicode="&#x16b;" horiz-adv-x="587" 
d="M487 601h-300l14 96h299zM555 493l-68 -493h-114v93q-110 -106 -213 -106q-71 0 -103.5 37t-22.5 102l51 367h148l-47 -327q-4 -30 4.5 -42.5t32.5 -12.5q32 0 62.5 17t81.5 60l42 305h146z" />
    <glyph glyph-name="Uring" unicode="&#x16e;" horiz-adv-x="677" 
d="M419 941q53 0 86 -34t26 -85q-6 -46 -38.5 -76.5t-83.5 -30.5q-53 0 -85.5 34t-26.5 84q5 46 38 77t84 31zM418 880q-22 0 -36.5 -14.5t-16.5 -36.5q-3 -25 10 -39t35 -14q23 0 37.5 15t16.5 39q2 22 -10.5 36t-35.5 14zM670 690l-60 -418q-23 -158 -90 -221.5
t-211 -63.5q-147 0 -208 68t-40 223l58 412h153l-59 -418q-14 -94 6 -128t90 -34q72 0 104 36t46 132l58 412h153z" />
    <glyph glyph-name="uring" unicode="&#x16f;" horiz-adv-x="587" 
d="M341 539q-53 0 -85.5 34.5t-26.5 84.5q5 46 38 77t84 31q53 0 86 -34t26 -85q-5 -46 -38 -77t-84 -31zM297 654q-3 -25 10 -39t35 -14q23 0 37.5 15t16.5 39q2 22 -10.5 36t-35.5 14q-22 0 -36.5 -14.5t-16.5 -36.5zM555 493l-68 -493h-114v93q-110 -106 -213 -106
q-71 0 -103.5 37t-22.5 102l51 367h148l-47 -327q-4 -30 4.5 -42.5t32.5 -12.5q32 0 62.5 17t81.5 60l42 305h146z" />
    <glyph glyph-name="Uhungarumlaut" unicode="&#x170;" horiz-adv-x="677" 
d="M467 882l-170 -162l-60 42l143 180zM656 882l-170 -162l-59 41l142 181zM670 690l-60 -418q-23 -158 -90 -221.5t-211 -63.5q-147 0 -208 68t-40 223l58 412h153l-59 -418q-14 -94 6 -128t90 -34q72 0 104 36t46 132l58 412h153z" />
    <glyph glyph-name="uhungarumlaut" unicode="&#x171;" horiz-adv-x="587" 
d="M229 545l-60 41l143 181l87 -61zM359 586l142 181l87 -61l-170 -161zM409 493h146l-68 -493h-114v93q-110 -106 -213 -106q-71 0 -103.5 37t-22.5 102l51 367h148l-47 -327q-4 -30 4.5 -42.5t32.5 -12.5q32 0 62.5 17t81.5 60z" />
    <glyph glyph-name="Uogonek" unicode="&#x172;" horiz-adv-x="677" 
d="M670 690l-60 -418q-21 -150 -83 -215t-191 -70q-37 -41 -69 -100q-13 -26 0 -33.5t50 2.5l14 -57q-44 -16 -79.5 -19.5t-57 5t-33 24t-11 36t11.5 42.5q26 51 102 101q-122 10 -172 79t-31 211l58 412h153l-59 -418q-14 -94 6 -128t90 -34q72 0 104 36t46 132l58 412h153
z" />
    <glyph glyph-name="uogonek" unicode="&#x173;" horiz-adv-x="587" 
d="M555 493l-68 -493q-43 -48 -72 -104q-14 -26 -0.5 -33.5t49.5 2.5l14 -57q-44 -16 -79.5 -19.5t-56.5 5t-32.5 24t-11 36t11.5 42.5q26 52 105 104h-42v93q-110 -106 -213 -106q-71 0 -103.5 37t-22.5 102l51 367h148l-47 -327q-4 -30 4.5 -42.5t32.5 -12.5q32 0 62.5 17
t81.5 60l42 305h146z" />
    <glyph glyph-name="Wcircumflex" unicode="&#x174;" horiz-adv-x="967" 
d="M737 772l-45 -52l-131 98h-8l-156 -96l-37 56l149 133h101zM998 690l-202 -651q-12 -39 -56 -39h-144q-20 0 -35 13.5t-16 32.5l-13 446v88h-19q-13 -55 -23 -89l-137 -451q-12 -40 -57 -40h-145q-20 0 -35.5 13t-15.5 32l-21 645h152v-482q0 -17 -1.5 -53.5t-1.5 -46.5
h20q5 21 29 106l133 432q13 44 58 44h129q21 0 34.5 -14.5t13.5 -35.5l19 -433q2 -65 1 -99h21q15 68 25 104l132 478h155z" />
    <glyph glyph-name="wcircumflex" unicode="&#x175;" horiz-adv-x="888" 
d="M668 590l-46 -52l-131 98h-8l-155 -96l-37 56l148 133h101zM226 102h11q29 0 48 50q17 40 33 115q13 57 31 190q6 36 42 36h139q16 0 26.5 -10t11.5 -25l27 -356h10q14 0 22.5 13t17.5 38q23 49 46 128q27 98 39 212h150q-25 -139 -63 -249q-34 -102 -68 -159
q-25 -47 -56 -66t-90 -19h-73q-18 0 -30 11t-13 28l-23 364h-12q-6 -69 -26 -165q-20 -84 -43 -134q-24 -63 -61.5 -83.5t-96.5 -20.5h-80q-18 0 -30 11t-14 28l-61 455h152z" />
    <glyph glyph-name="Ycircumflex" unicode="&#x176;" horiz-adv-x="605" 
d="M215 723l-37 56l148 133h102l127 -139l-45 -52l-131 98h-8zM367 225l-31 -225h-154l33 233l-160 457h153l78 -256q11 -44 13 -89h11q10 46 36 91l150 254h164z" />
    <glyph glyph-name="ycircumflex" unicode="&#x177;" 
d="M166 540l-37 56l148 133h102l127 -139l-45 -52l-131 99h-8zM417 493h156q-21 -114 -62.5 -232.5t-87.5 -203.5q-75 -136 -160.5 -194.5t-203.5 -67.5l-18 91q69 18 112.5 40.5t83.5 73.5h-59q-24 0 -40.5 14t-21.5 36l-81 443h159l47 -377q2 -16 17 -16h40l4 9
q79 164 115 384z" />
    <glyph glyph-name="Ydieresis" unicode="&#x178;" horiz-adv-x="605" 
d="M479 763h-54q-31 0 -27 29l10 63q4 31 34 31h51q34 0 28 -30l-9 -63q-4 -30 -33 -30zM304 763h-54q-31 0 -27 29l10 63q4 31 36 31h49q34 0 28 -30l-9 -63q-4 -30 -33 -30zM367 225l-31 -225h-154l33 233l-160 457h153l78 -256q11 -44 13 -89h11q10 46 36 91l150 254h164
z" />
    <glyph glyph-name="Zacute" unicode="&#x179;" 
d="M312 723l-37 63l218 151l57 -108zM187 117h328l-16 -117h-500l15 117l385 456h-312l16 117h485l-17 -117z" />
    <glyph glyph-name="zacute" unicode="&#x17a;" horiz-adv-x="522" 
d="M256 541l-37 63l219 150l56 -107zM492 388l-306 -282h270l-14 -106h-443l14 106h-1l307 282h-261l14 105h433z" />
    <glyph glyph-name="Zdotaccent" unicode="&#x17b;" 
d="M381 753h-45q-46 0 -40 44l7 51q6 39 43 39h44q20 0 31.5 -11.5t9.5 -31.5l-7 -53q-4 -38 -43 -38zM187 117h328l-16 -117h-500l15 117l385 456h-312l16 117h485l-17 -117z" />
    <glyph glyph-name="zdotaccent" unicode="&#x17c;" horiz-adv-x="522" 
d="M325 570h-45q-46 0 -40 44l7 52q6 38 44 38h43q21 0 32 -11t9 -32l-7 -53q-5 -38 -43 -38zM492 388l-306 -282h270l-14 -106h-443l14 106h-1l307 282h-261l14 105h433z" />
    <glyph glyph-name="Zcaron" unicode="&#x17d;" 
d="M315 739l-135 141l49 49l126 -92h8l156 91l35 -58l-160 -131h-79zM187 117h328l-16 -117h-500l15 117l385 456h-312l16 117h485l-17 -117z" />
    <glyph glyph-name="zcaron" unicode="&#x17e;" horiz-adv-x="522" 
d="M259 557l-134 140l49 50l125 -92h8l157 90l35 -57l-160 -131h-80zM492 388l-306 -282h270l-14 -106h-443l14 106h-1l307 282h-261l14 105h433z" />
    <glyph glyph-name="florin" unicode="&#x192;" horiz-adv-x="470" 
d="M483 593h-64q-34 0 -52.5 -14t-27.5 -51l-28 -122h118l-22 -100h-119l-73 -319q-34 -150 -184 -150q-85 0 -130 11l29 98h61q65 0 80 66l68 294h-95l18 88l99 11l34 147q36 150 187 150q79 0 131 -11z" />
    <glyph glyph-name="Scommaaccent" unicode="&#x218;" 
d="M323 262l-131 53q-75 31 -101 80t-17 123q15 110 76.5 147.5t191.5 37.5q129 0 225 -28l-15 -103q-90 3 -214 3q-61 1 -83 -9.5t-29 -56.5q-5 -34 5.5 -47.5t49.5 -28.5l124 -48q79 -31 104 -77.5t15 -127.5q-15 -114 -73.5 -153.5t-198.5 -39.5q-116 0 -237 27l16 109
q212 -5 215 -5q70 0 95 13.5t32 57.5q4 34 -6 47t-44 26zM246 -52h30q26 0 36.5 -10.5t6.5 -33.5l-8 -52q-11 -76 -67 -146l-59 19q25 61 35 103q-21 -1 -30 8.5t-7 28.5l7 42q4 24 16.5 32.5t39.5 8.5z" />
    <glyph glyph-name="scommaaccent" unicode="&#x219;" horiz-adv-x="524" 
d="M268 177l-119 49q-60 24 -84 61t-17 93q8 68 59.5 98t161.5 29q136 -2 228 -20l-14 -94q-192 3 -195 3q-58 0 -77 -4.5t-22 -21.5q-2 -17 9.5 -25.5t44.5 -21.5l121 -48q61 -24 86 -58t18 -91q-6 -44 -23.5 -72t-50.5 -42t-71 -18.5t-97 -4.5q-90 0 -217 18l14 95
q36 -2 157 -2q86 0 114 6t32 26q2 15 -7.5 22t-37.5 18q-8 3 -13 5zM203 -50h30q26 0 36.5 -10.5t6.5 -33.5l-8 -52q-11 -75 -66 -146l-59 19q23 55 34 103q-21 -1 -30 8.5t-7 28.5l7 42q5 24 17 32.5t39 8.5z" />
    <glyph glyph-name="uni021A" unicode="&#x21a;" horiz-adv-x="594" 
d="M617 566h-206l-79 -566h-153l80 566h-205l17 124h563zM231 -48h30q26 0 36.5 -10.5t6.5 -33.5l-8 -52q-11 -76 -67 -146l-59 19q23 52 35 103q-21 -1 -30 8.5t-7 28.5l7 42q4 24 16.5 32.5t39.5 8.5z" />
    <glyph glyph-name="uni021B" unicode="&#x21b;" horiz-adv-x="410" 
d="M266 394l-33 -236q-4 -28 4.5 -37.5t38.5 -9.5h66l7 -104q-53 -19 -138 -19q-70 0 -104 38.5t-24 106.5l38 261h-89l12 94l91 5l20 138h145l-19 -138h136l-14 -99h-137zM177 -50h30q26 0 36.5 -10.5t6.5 -33.5l-8 -52q-11 -76 -67 -146l-59 19q23 52 35 103
q-21 -1 -30 8.5t-7 28.5l7 42q4 24 16.5 32.5t39.5 8.5z" />
    <glyph glyph-name="circumflex" unicode="&#x2c6;" horiz-adv-x="448" 
d="M463 587l-45 -52l-131 98h-8l-156 -96l-37 56l148 133h102z" />
    <glyph glyph-name="caron" unicode="&#x2c7;" horiz-adv-x="448" 
d="M469 683l-160 -131h-79l-135 140l49 50l126 -92h8l156 90z" />
    <glyph glyph-name="breve" unicode="&#x2d8;" horiz-adv-x="393" 
d="M354 708l69 -13q-1 -64 -49.5 -106.5t-128.5 -42.5q-82 0 -124.5 45t-25.5 109l72 5q-5 -32 16 -47t65 -15q48 0 75.5 17.5t30.5 47.5z" />
    <glyph glyph-name="dotaccent" unicode="&#x2d9;" horiz-adv-x="236" 
d="M155 703h44q20 0 31.5 -11.5t9.5 -31.5l-7 -53q-6 -39 -43 -39h-45q-22 0 -32.5 12t-7.5 32l7 52q4 39 43 39z" />
    <glyph glyph-name="ring" unicode="&#x2da;" horiz-adv-x="309" 
d="M215 757q53 0 86 -34t27 -85q-6 -46 -39 -77t-84 -31q-53 0 -85.5 34.5t-26.5 84.5q5 46 38 77t84 31zM214 696q-22 0 -36.5 -14.5t-16.5 -36.5q-3 -25 10.5 -39t35.5 -14q23 0 37 15t16 39q2 22 -11 36t-35 14z" />
    <glyph glyph-name="ogonek" unicode="&#x2db;" horiz-adv-x="251" 
d="M102 5l64 -5q-43 -48 -72 -104q-14 -26 -0.5 -33.5t49.5 2.5l14 -57q-44 -16 -79.5 -19.5t-56.5 5t-32.5 24t-11 36t11.5 42.5q29 57 113 109z" />
    <glyph glyph-name="tilde" unicode="&#x2dc;" horiz-adv-x="439" 
d="M157 567l-63 6q1 70 27 105.5t67 33.5q33 -2 83 -23.5t68 -24.5q27 -5 38.5 6.5t15.5 39.5l62 -6q1 -69 -24.5 -104.5t-67.5 -33.5q-36 2 -87 25t-66 25q-26 4 -37.5 -8t-15.5 -41z" />
    <glyph glyph-name="hungarumlaut" unicode="&#x2dd;" horiz-adv-x="501" 
d="M322 682l-170 -162l-60 42l143 181zM511 682l-170 -162l-59 41l142 182z" />
    <glyph glyph-name="Delta" unicode="&#x394;" horiz-adv-x="663" 
d="M609 53l-6 -53h-620l6 53l324 637h151zM449 114l-68 344q-8 43 -9 87q-19 -61 -32 -88l-166 -343h275z" />
    <glyph glyph-name="Omega" unicode="&#x3a9;" horiz-adv-x="717" 
d="M20 123h80q37 0 71 -12q-62 64 -86 127.5t-11 156.5q21 157 99.5 232.5t234.5 75.5q307 0 262 -322q-14 -98 -52.5 -155.5t-123.5 -115.5q35 13 72 13h82l-16 -123h-277l13 115q67 49 97.5 104t43.5 149q17 120 -6.5 166.5t-100.5 46.5q-81 0 -118.5 -47t-54.5 -167
q-14 -94 0 -148.5t64 -104.5l-13 -114h-276z" />
    <glyph glyph-name="mu" unicode="&#x3bc;" horiz-adv-x="618" 
d="M572 493l-70 -493h-115l-2 75q-101 -88 -194 -88q-25 0 -42 4q4 -36 0 -60l-17 -121h-128l46 329l50 354h148l-47 -327q-4 -27 6.5 -37.5t38.5 -10.5q55 0 132 44l45 331h149z" />
    <glyph glyph-name="pi" unicode="&#x3c0;" horiz-adv-x="647" 
d="M640 388h-78l-55 -388h-147l54 388h-154l-54 -388h-148l55 388h-79l15 106h606z" />
    <glyph glyph-name="uni0401" unicode="&#x401;" horiz-adv-x="572" 
d="M495 775h-53q-32 0 -28 29l10 63q4 31 35 31h50q33 0 29 -31l-10 -62q-4 -30 -33 -30zM320 775h-53q-32 0 -28 29l10 63q4 31 36 31h49q33 0 29 -31l-10 -63q-4 -29 -33 -29zM564 570h-258q-29 0 -41.5 -11.5t-16.5 -42.5l-15 -104h272l-14 -108h-273l-18 -133
q-4 -28 6.5 -39.5t38.5 -11.5h255l-4 -113q-88 -10 -299 -10q-84 0 -123 44.5t-29 121.5l55 394q9 64 51.5 100t113.5 36q218 0 318 -11z" />
    <glyph glyph-name="uni0402" unicode="&#x402;" horiz-adv-x="759" 
d="M412 566l-25 -173q89 56 190 56q84 0 124 -49t22 -169q-21 -135 -95 -189t-200 -52l-8 108q74 10 106.5 38t44.5 96q10 58 -6 75.5t-52 17.5q-69 0 -142 -48l-39 -277h-153l80 566h-204l17 124h562l-16 -124h-206z" />
    <glyph glyph-name="uni0403" unicode="&#x403;" horiz-adv-x="527" 
d="M553 829l-237 -106l-37 63l218 151zM28 0l76 548q10 69 52 107t104 38q212 0 306 -12l-18 -111h-231q-34 0 -47 -11.5t-18 -46.5l-72 -512h-152z" />
    <glyph glyph-name="uni0404" unicode="&#x404;" horiz-adv-x="586" 
d="M600 678l-21 -113q-108 5 -177 5q-88 0 -125 -31t-56 -127h278l-13 -108h-281q-12 -107 10 -143t99 -41q98 -4 200 10l6 -115q-96 -31 -215 -27q-166 5 -221.5 86t-29.5 277q27 199 104.5 275t241.5 76q113 0 200 -24z" />
    <glyph glyph-name="uni0405" unicode="&#x405;" 
d="M323 262l-131 53q-75 31 -101 80t-17 123q15 110 76.5 147.5t191.5 37.5q129 0 225 -28l-15 -103q-90 3 -214 3q-61 1 -83 -9.5t-29 -56.5q-5 -34 5.5 -47.5t49.5 -28.5l124 -48q79 -31 104 -77.5t15 -127.5q-15 -114 -73.5 -153.5t-198.5 -39.5q-116 0 -237 27l16 109
q212 -5 215 -5q70 0 95 13.5t32 57.5q4 34 -6 47t-44 26z" />
    <glyph glyph-name="uni0406" unicode="&#x406;" horiz-adv-x="294" 
d="M182 0h-152l97 690h152z" />
    <glyph glyph-name="uni0407" unicode="&#x407;" horiz-adv-x="292" 
d="M291 886h51q32 0 28 -30l-10 -63q-3 -30 -33 -30h-53q-31 0 -28 29l10 63q4 31 35 31zM117 886h50q18 0 24 -7t4 -23l-10 -63q-3 -30 -33 -30h-53q-31 0 -28 29l10 63q4 31 36 31zM181 0h-153l97 690h153z" />
    <glyph glyph-name="uni0408" unicode="&#x408;" horiz-adv-x="366" 
d="M354 690l-77 -548q-10 -75 -53.5 -114.5t-112.5 -39.5q-81 0 -127 21l26 101h41q68 0 76 56l74 524h153z" />
    <glyph glyph-name="uni0409" unicode="&#x409;" horiz-adv-x="983" 
d="M625 434h93q139 0 189.5 -50.5t31.5 -177.5q-17 -125 -69 -169.5t-175 -44.5q-185 0 -282 8l82 580h-68q-34 0 -50 -14t-24 -50q-4 -19 -17 -75t-17.5 -75.5t-15.5 -61.5t-18.5 -63.5t-18.5 -49.5t-23 -50q-41 -81 -101 -113.5t-146 -30.5l-5 126q86 14 114 69
q27 46 46 112.5t50 204.5l9 42q32 139 168 139h283zM580 110h88q65 0 87.5 19.5t32.5 87.5q9 66 -5 88t-75 22h-98z" />
    <glyph glyph-name="uni040A" unicode="&#x40a;" horiz-adv-x="975" 
d="M618 428h97q131 0 182.5 -49.5t33.5 -178.5q-16 -120 -68 -164t-171 -44q-189 0 -285 8l45 316h-224l-44 -316h-153l97 690h153l-37 -263h223l37 263h151zM573 110h92q62 0 84 19.5t31 83.5q9 61 -5 82.5t-74 21.5h-99z" />
    <glyph glyph-name="uni040B" unicode="&#x40b;" horiz-adv-x="777" 
d="M411 566l-24 -168q103 55 201 55q88 0 123.5 -42t24.5 -129l-39 -282h-153l36 256q6 40 -7.5 54t-55.5 14q-68 0 -146 -46l-39 -278h-153l79 566h-204l17 124h563l-17 -124h-206z" />
    <glyph glyph-name="uni040C" unicode="&#x40c;" horiz-adv-x="633" 
d="M345 723l-37 63l218 151l57 -108zM390 360l-1 -4q38 -6 62.5 -19.5t42 -35t29.5 -59.5t21.5 -85.5t22.5 -120.5l6 -36h-154q-31 183 -41 218q-19 65 -61 79q-18 7 -46 7h-53q3 -33 -3 -69l-33 -235h-152l97 690h152l-28 -198q-7 -48 -17 -79h45q30 0 54.5 12t42 28.5
t39.5 58t36.5 74t44.5 104.5h158q-76 -176 -103 -220q-47 -78 -113 -100q-22 -7 -48 -10z" />
    <glyph glyph-name="uni040D" unicode="&#x40d;" horiz-adv-x="710" 
d="M494 786l-49 -63l-221 114l66 97zM598 0h-146l57 396q8 56 24 109h-6q-35 -68 -51 -91l-289 -414h-157l97 690h147l-55 -391q-7 -49 -27 -113h7q22 48 54 94l287 410h155z" />
    <glyph glyph-name="uni040E" unicode="&#x40e;" horiz-adv-x="592" 
d="M471 902l69 -13q-2 -65 -50.5 -107t-128.5 -42q-83 0 -125 45.5t-24 108.5l71 4q-5 -31 16 -46t65 -15q99 0 107 65zM644 690l-240 -514q-42 -91 -84.5 -135.5t-109.5 -50.5q-73 -6 -169 16l24 107q94 -5 123 5t57 58l11 20h-32q-68 0 -80 71l-83 423h152l58 -364
q1 -13 15 -13h27l169 377h162z" />
    <glyph glyph-name="uni040F" unicode="&#x40f;" horiz-adv-x="693" 
d="M677 690l-97 -690h-210l-27 -151h-105l16 151h-223l97 690h153l-81 -580h243l81 580h153z" />
    <glyph glyph-name="uni0410" unicode="&#x410;" horiz-adv-x="647" 
d="M432 180h-238l-74 -180h-159l290 653q14 37 55 37h144q19 0 33.5 -12.5t15.5 -30.5l108 -647h-152zM416 301l-27 209q-3 22 -5 67h-29q-18 -51 -24 -66l-87 -210h172z" />
    <glyph glyph-name="uni0411" unicode="&#x411;" horiz-adv-x="616" 
d="M240 410h99q142 0 193.5 -47.5t34.5 -166.5t-71.5 -162t-177.5 -43q-177 0 -288 9l97 690q109 7 237 7q94 0 231 -7l-29 -118h-303zM197 108h96q68 0 91.5 19.5t31.5 84.5q8 59 -7 76.5t-79 17.5h-105z" />
    <glyph glyph-name="uni0412" unicode="&#x412;" horiz-adv-x="637" 
d="M30 0l97 690q88 8 251 8q133 0 185 -40t37 -146q-11 -74 -42.5 -110t-96.5 -42l-1 -6q144 -11 118 -188q-15 -103 -70 -138.5t-181 -35.5q-196 0 -297 8zM236 409h106q56 0 80 19.5t32 74.5q7 48 -10.5 63.5t-71.5 15.5h-111zM194 108h106q67 0 93 19.5t34 79.5
q8 59 -10 78.5t-80 20.5h-115z" />
    <glyph glyph-name="uni0413" unicode="&#x413;" horiz-adv-x="527" 
d="M28 0l76 548q10 69 52 107t104 38q212 0 306 -12l-18 -111h-231q-34 0 -47 -11.5t-18 -46.5l-72 -512h-152z" />
    <glyph glyph-name="uni0414" unicode="&#x414;" horiz-adv-x="738" 
d="M677 7l-22 -158h-114l10 151h-448l-33 -151h-115l21 151l15 110h69q54 99 89.5 203.5t66.5 237.5q14 67 58.5 103t114.5 36h294l-82 -580h90zM449 110l67 470h-81q-32 0 -50 -15t-25 -50q-58 -263 -134 -405h223z" />
    <glyph glyph-name="uni0415" unicode="&#x415;" horiz-adv-x="573" 
d="M565 570h-258q-29 0 -41.5 -11.5t-16.5 -42.5l-15 -104h272l-14 -108h-272l-19 -133q-4 -28 6.5 -39.5t38.5 -11.5h255l-3 -113q-89 -10 -299 -10q-85 0 -124 44.5t-28 121.5l54 394q9 64 51.5 100t113.5 36q218 0 318 -11z" />
    <glyph glyph-name="uni0416" unicode="&#x416;" horiz-adv-x="929" 
d="M690 361l-1 -5q28 -4 48 -12t35.5 -25t26 -37.5t20.5 -56t18 -72.5t19 -96q7 -37 11 -57h-152q-6 30 -15 81q-10 53 -14.5 76.5t-13 56t-15 44t-18 25.5t-25 17.5t-33.5 3.5h-46q3 -33 -2 -69l-33 -235h-147l34 241q5 29 17 63h-43q-55 0 -89.5 -48t-111.5 -209
q-14 -31 -22 -47h-162q23 52 33.5 75.5t29 62.5t27 55t24 43.5t24.5 38t23.5 27.5t26 23t27.5 15t32.5 12.5t36.5 6.5l1 5q-28 5 -48.5 14.5t-35.5 27t-25.5 39t-19.5 56.5t-16 72t-17 93q-3 16 -4 24h151q3 -16 8 -46q9 -51 13 -74t12 -56t15 -46.5t18 -29t24.5 -20.5
t32.5 -5h52q-3 42 3 85l27 192h146l-29 -198q-5 -41 -16 -79h34q57 0 91.5 48.5t101.5 194.5q11 22 16 34h157q-79 -176 -95 -206q-44 -80 -99 -105q-29 -13 -68 -18z" />
    <glyph glyph-name="uni0417" unicode="&#x417;" horiz-adv-x="563" 
d="M98 569l-5 110q92 19 218 19q128 0 180.5 -41t37.5 -145q-11 -74 -42 -110t-96 -42l-1 -6q136 -13 111 -188q-14 -101 -66.5 -137.5t-175.5 -36.5q-154 0 -265 31l18 103q121 -18 216 -18q62 0 88 20.5t34 78.5q9 58 -9.5 77.5t-77.5 19.5h-134l13 107h127q55 0 78 19.5
t30 72.5q7 49 -10 64t-73 15q-77 0 -196 -13z" />
    <glyph glyph-name="uni0418" unicode="&#x418;" horiz-adv-x="710" 
d="M598 0h-146l57 396q8 56 24 109h-6q-35 -68 -51 -91l-289 -414h-157l97 690h147l-55 -391q-7 -49 -27 -113h7q22 48 54 94l287 410h155z" />
    <glyph glyph-name="uni0419" unicode="&#x419;" horiz-adv-x="710" 
d="M504 894h97q-2 -66 -50.5 -110t-125.5 -44q-84 0 -126.5 44t-25.5 110h99q-9 -44 6 -62.5t52 -18.5q69 0 74 81zM598 0h-146l57 396q8 56 24 109h-6q-35 -68 -51 -91l-289 -414h-157l97 690h147l-55 -391q-7 -49 -27 -113h7q22 48 54 94l287 410h155z" />
    <glyph glyph-name="uni041A" unicode="&#x41a;" horiz-adv-x="633" 
d="M390 360l-1 -4q38 -6 62.5 -19.5t42 -35t29.5 -59.5t21.5 -85.5t22.5 -120.5l6 -36h-154q-31 183 -41 218q-19 65 -61 79q-18 7 -46 7h-53q3 -33 -3 -69l-33 -235h-152l97 690h152l-28 -198q-7 -48 -17 -79h45q30 0 54.5 12t42 28.5t39.5 58t36.5 74t44.5 104.5h158
q-76 -176 -103 -220q-47 -78 -113 -100q-22 -7 -48 -10z" />
    <glyph glyph-name="uni041B" unicode="&#x41b;" horiz-adv-x="678" 
d="M662 690l-97 -690h-152l82 580h-81q-35 0 -51.5 -14t-24.5 -50q-24 -107 -37 -159t-32.5 -113t-41.5 -103q-84 -163 -246 -144l-6 121q21 4 30.5 7t27 11t31 22t25.5 36q28 49 49.5 123.5t56.5 236.5q30 136 173 136h294z" />
    <glyph glyph-name="uni041C" unicode="&#x41c;" horiz-adv-x="911" 
d="M674 690h148q27 0 41 -16t11 -43l-62 -631h-143l59 571h-16l-164 -430q-15 -46 -65 -46h-100q-52 0 -57 51l-48 425h-18l-99 -571h-144l115 636q5 28 19 41t41 13h143q49 0 54 -52l40 -344q4 -44 4 -98h15q12 43 31 95l130 352q15 46 65 47z" />
    <glyph glyph-name="uni041D" unicode="&#x41d;" horiz-adv-x="687" 
d="M672 690l-97 -690h-153l44 307h-240l-43 -307h-153l97 690h153l-37 -264h239l37 264h153z" />
    <glyph glyph-name="uni041E" unicode="&#x41e;" horiz-adv-x="680" 
d="M388 703q159 0 220 -81.5t33 -282.5q-27 -202 -100.5 -277t-231.5 -75q-162 0 -222 80t-33 284q28 199 101.5 275.5t232.5 76.5zM383 580q-80 0 -114 -48.5t-55 -192.5q-19 -135 1 -182t97 -47q79 0 114 49.5t56 191.5q20 137 -0.5 183t-98.5 46z" />
    <glyph glyph-name="uni041F" unicode="&#x41f;" horiz-adv-x="688" 
d="M673 690l-97 -690h-154l82 580h-239l-82 -580h-153l97 690h546z" />
    <glyph glyph-name="uni0420" unicode="&#x420;" horiz-adv-x="611" 
d="M30 0l97 690q92 9 254 9q139 0 191 -51.5t34 -179.5q-18 -132 -73 -176t-187 -44q-68 0 -128 9l-36 -257h-152zM233 365h103q62 0 85.5 22t33.5 92q9 60 -8 81.5t-71 21.5l-113 -1z" />
    <glyph glyph-name="uni0421" unicode="&#x421;" horiz-adv-x="583" 
d="M516 129l6 -114q-90 -27 -220 -27q-160 0 -217.5 84.5t-30.5 278.5q28 200 100 275.5t232 75.5q115 0 206 -24l-20 -113q-81 5 -192 5q-53 0 -83 -17t-50.5 -66.5t-33.5 -147.5q-18 -129 1 -174t93 -45q119 -1 209 9z" />
    <glyph glyph-name="uni0422" unicode="&#x422;" horiz-adv-x="594" 
d="M617 566h-206l-79 -566h-153l80 566h-205l17 124h563z" />
    <glyph glyph-name="uni0423" unicode="&#x423;" horiz-adv-x="592" 
d="M644 690l-240 -514q-42 -91 -84.5 -135.5t-109.5 -50.5q-73 -6 -169 16l24 107q94 -5 123 5t57 58l11 20h-32q-68 0 -80 71l-83 423h152l58 -364q1 -13 15 -13h27l169 377h162z" />
    <glyph glyph-name="uni0424" unicode="&#x424;" horiz-adv-x="841" 
d="M560 722l-12 -88q166 -11 228.5 -77t41.5 -215q-20 -149 -98 -211t-254 -70l-12 -87h-153l12 88q-169 11 -230.5 76.5t-40.5 215.5q21 149 99.5 211.5t253.5 70.5l11 86h154zM525 520l-50 -342q99 7 137.5 44t51.5 132q12 91 -16.5 125.5t-122.5 40.5zM336 177l49 342
q-99 -7 -137.5 -44t-50.5 -133q-13 -91 15 -125.5t124 -39.5z" />
    <glyph glyph-name="uni0425" unicode="&#x425;" horiz-adv-x="638" 
d="M458 354l129 -354h-153l-100 307h-11l-187 -307h-168l230 354l-117 336h151l90 -285h13l177 285h160z" />
    <glyph glyph-name="uni0426" unicode="&#x426;" horiz-adv-x="718" 
d="M671 110l-15 -110l-21 -151h-114l10 151h-500l97 690h153l-81 -580h230l81 580h153l-82 -580h89z" />
    <glyph glyph-name="uni0427" unicode="&#x427;" horiz-adv-x="653" 
d="M638 690l-97 -690h-153l42 293q-112 -59 -210 -59q-93 0 -131.5 42t-27.5 129l41 285h152l-36 -259q-7 -38 8 -53t54 -15q78 0 166 46l39 281h153z" />
    <glyph glyph-name="uni0428" unicode="&#x428;" horiz-adv-x="968" 
d="M953 690l-97 -690h-826l97 690h149l-82 -580h190l82 580h148l-81 -580h190l81 580h149z" />
    <glyph glyph-name="uni0429" unicode="&#x429;" horiz-adv-x="1005" 
d="M958 110l-15 -110l-21 -151h-114l9 151h-786l97 690h149l-82 -580h189l81 580h149l-82 -580h189l81 580h149l-81 -580h88z" />
    <glyph glyph-name="uni042A" unicode="&#x42a;" horiz-adv-x="759" 
d="M399 434h94q139 0 190 -50.5t32 -177.5q-17 -125 -69.5 -169.5t-175.5 -44.5q-188 0 -285 8l80 566h-212l17 124h365zM353 110h90q66 0 88.5 19.5t32.5 87.5q9 66 -5 88t-77 22h-98z" />
    <glyph glyph-name="uni042B" unicode="&#x42b;" horiz-adv-x="896" 
d="M244 434h95q139 0 189.5 -50t32.5 -178q-17 -125 -69.5 -169.5t-175.5 -44.5q-189 0 -286 8l97 690h153zM880 690l-97 -690h-153l97 690h153zM198 110h91q66 0 88.5 19.5t32.5 87.5q9 66 -5 88t-76 22h-100z" />
    <glyph glyph-name="uni042C" unicode="&#x42c;" horiz-adv-x="608" 
d="M244 434h97q139 0 190 -50.5t33 -177.5q-17 -124 -70 -169t-176 -45q-191 0 -288 8l97 690h153zM198 110h92q68 0 90.5 19.5t31.5 87.5q9 66 -5 88t-77 22h-101z" />
    <glyph glyph-name="uni042D" unicode="&#x42d;" horiz-adv-x="587" 
d="M94 565l-6 114q86 23 196 23q169 0 230 -81t34 -282q-26 -194 -99.5 -270.5t-232.5 -80.5q-125 -2 -218 29l19 113q86 -13 197 -10q79 4 115 43t56 142h-280l13 108h282q5 52 0 83.5t-22 47.5t-39.5 21t-61.5 5q-76 0 -183 -5z" />
    <glyph glyph-name="uni042E" unicode="&#x42e;" horiz-adv-x="968" 
d="M242 412h128q31 165 100 228t207 63q153 0 216 -83t36 -281q-29 -203 -101.5 -277.5t-233.5 -74.5q-146 0 -202 70t-38 245h-128l-42 -302h-153l97 690h153zM769 351q19 135 -0.5 182t-94.5 47q-78 0 -112.5 -49.5t-54.5 -191.5q-19 -135 0.5 -182t91.5 -47
q80 0 115.5 50t54.5 191z" />
    <glyph glyph-name="uni042F" unicode="&#x42f;" horiz-adv-x="638" 
d="M196 316l1 4q-68 10 -94.5 65.5t-15.5 128.5q14 105 77 145t191 40q170 0 268 -9l-97 -690h-153l37 265h-94q-33 0 -52.5 -14t-32.5 -48l-78 -203h-166l87 215q41 95 122 101zM427 382l28 199l-103 1q-57 0 -81.5 -19t-31.5 -71q-8 -59 9.5 -84.5t70.5 -25.5h108z" />
    <glyph glyph-name="uni0430" unicode="&#x430;" horiz-adv-x="594" 
d="M491 0h-115l1 89q-76 -98 -202 -101q-93 -3 -125.5 60.5t-11.5 207.5q10 68 28 114.5t40 73.5t57 41t67.5 18t82.5 4q53 0 127 -9t119 -21zM400 398h-76q-72 0 -98 -25t-39 -119q-13 -95 -6 -121.5t44 -24.5q65 1 147 93z" />
    <glyph glyph-name="uni0431" unicode="&#x431;" horiz-adv-x="590" 
d="M560 728l13 -123q-59 -17 -133.5 -22t-108.5 -13q-56 -14 -81.5 -38.5t-44.5 -66.5q-19 -32 -29 -71l1 3q34 39 74.5 59.5t105.5 20.5q119 0 159 -60t25 -179q-17 -132 -79.5 -191t-188.5 -59q-53 0 -93 9.5t-65.5 24t-41 40t-22.5 49.5t-7 62t3 67t9 74
q24 168 68.5 250.5t155.5 116.5q49 15 138.5 24.5t141.5 22.5zM323 375q-65 0 -90 -30t-36 -108q-11 -81 3.5 -110t67.5 -29t80 31.5t40 118.5q11 78 -2 102.5t-63 24.5z" />
    <glyph glyph-name="uni0432" unicode="&#x432;" horiz-adv-x="564" 
d="M384 261l-1 -4q74 -4 103.5 -39t18.5 -101q-11 -73 -65.5 -101.5t-175.5 -28.5q-151 0 -201 58.5t-26 213.5q22 147 84 198.5t202 49.5q46 -1 80.5 -7.5t66 -21.5t44.5 -44.5t6 -71.5q-17 -92 -136 -101zM191 294l91 8q52 4 72.5 15.5t26.5 33.5q7 29 -10.5 39.5
t-67.5 10.5q-57 0 -78.5 -22t-33.5 -85zM277 215l-99 -8q-9 -73 5.5 -93.5t66.5 -20.5q59 0 83 12.5t29 49.5q5 36 -13 50t-72 10z" />
    <glyph glyph-name="uni0433" unicode="&#x433;" horiz-adv-x="534" 
d="M70 372l-2 98q100 34 221 37q49 1 85 -3.5t68 -17t47.5 -40.5t11.5 -69q-3 -32 -17 -58.5t-29 -41.5t-41.5 -29t-36.5 -17.5t-32 -10.5l-127 -44q-35 -12 -47 -21t-13 -23q-2 -20 16 -25.5t65 -3.5q119 4 219 30l8 -102q-115 -43 -240 -43q-112 0 -166 35.5t-46 112.5
q6 56 40.5 88t99.5 54l122 41q47 15 65 26t18 28q1 16 -17 20.5t-77 2.5q-66 -4 -195 -24z" />
    <glyph glyph-name="uni0434" unicode="&#x434;" horiz-adv-x="583" 
d="M135 620l21 99q214 -23 311.5 -126t69.5 -312q-21 -156 -87 -225t-201 -69q-243 0 -212 235q15 115 71 172t160 57q77 0 123 -36q-6 96 -64.5 138t-191.5 67zM259 98q58 0 83.5 41.5t42.5 154.5l3 28q-37 22 -81 22q-55 0 -80.5 -30t-35.5 -97t5 -93t63 -26z" />
    <glyph glyph-name="uni0435" unicode="&#x435;" horiz-adv-x="560" 
d="M472 117l10 -94q-83 -35 -217 -35q-141 0 -194 66t-37 203q18 144 82 197t204 53q130 0 176.5 -43t34.5 -127q-10 -70 -57 -100t-145 -37l-146 -11q1 -49 24.5 -66t74.5 -17q97 0 190 11zM192 276l115 11q40 3 58.5 16t22.5 48q3 33 -12.5 41t-65.5 7q-58 0 -81.5 -24.5
t-36.5 -98.5z" />
    <glyph glyph-name="uni0436" unicode="&#x436;" horiz-adv-x="794" 
d="M579 258l-1 -4q18 -3 30.5 -7t23.5 -7t20 -13t16 -16.5t14 -25t11.5 -30t12 -42t12.5 -50t15 -63.5h-140q-32 143 -45 170q-16 33 -51 36h-11h-40q1 -24 0 -46l-22 -160h-130l24 164q1 16 10 42h-33q-45 0 -72.5 -35t-95.5 -171h-149q77 155 95 181q33 51 80 65
q21 7 55 11l1 4q-73 10 -94 47.5t-49 184.5h140q24 -120 39.5 -153.5t60.5 -33.5h38q-3 31 1 62l18 125h130l-19 -129q-5 -34 -13 -58h24q46 0 73.5 34t85.5 153h147q-70 -142 -94 -174q-35 -47 -90 -57q-13 -3 -28 -4z" />
    <glyph glyph-name="uni0437" unicode="&#x437;" horiz-adv-x="514" 
d="M68 382l-4 103q77 20 182 20q130 0 181.5 -28.5t40.5 -111.5q-7 -53 -33.5 -79t-87.5 -31l-1 -4q63 -4 88.5 -37t16.5 -97q-11 -80 -62 -104.5t-172 -24.5q-131 0 -224 21l16 101q108 -10 195 -10q59 0 78.5 10t23.5 44q4 29 -11.5 39t-63.5 11l-144 1l11 92h137
q46 0 65 11.5t24 41.5q4 27 -11 34.5t-73 7.5q-76 0 -172 -10z" />
    <glyph glyph-name="uni0438" unicode="&#x438;" horiz-adv-x="592" 
d="M557 493l-68 -493h-114v93q-110 -106 -213 -106q-71 0 -103.5 37t-22.5 102l51 367h148l-47 -327q-4 -30 4.5 -42.5t32.5 -12.5q32 0 62.5 17t81.5 60l42 305h146z" />
    <glyph glyph-name="uni0439" unicode="&#x439;" horiz-adv-x="592" 
d="M411 712h97q-2 -67 -50 -110.5t-126 -43.5q-84 0 -126.5 43.5t-25.5 110.5h99q-17 -82 58 -82q69 0 74 82zM557 493l-68 -493h-114v93q-110 -106 -213 -106q-71 0 -103.5 37t-22.5 102l51 367h148l-47 -327q-4 -30 4.5 -42.5t32.5 -12.5q32 0 62.5 17t81.5 60l42 305h146
z" />
    <glyph glyph-name="uni043A" unicode="&#x43a;" horiz-adv-x="560" 
d="M345 257l-1 -4q33 -4 52.5 -11t34 -20t23.5 -38.5t17.5 -60.5t20.5 -92q4 -20 6 -31h-148q-28 140 -40 166q-15 33 -51 37q-8 1 -19 1h-49q3 -21 0 -45l-23 -159h-147l70 493h146l-17 -129q-4 -25 -14 -57h32q57 0 84 33t78 153h156q-64 -140 -88 -172q-32 -45 -88 -58
q-15 -3 -35 -6z" />
    <glyph glyph-name="uni043B" unicode="&#x43b;" horiz-adv-x="593" 
d="M558 493l-69 -493h-147l55 390h-59q-26 0 -39.5 -12t-21.5 -43q-35 -134 -68 -223q-44 -137 -216 -117l-9 115q47 5 62 15q18 11 30 39q31 75 64 210q15 61 50 90t98 29h270z" />
    <glyph glyph-name="uni043C" unicode="&#x43c;" horiz-adv-x="781" 
d="M550 493h134q54 0 49 -54l-46 -439h-134l39 385h-13l-117 -279q-16 -43 -59 -43h-81q-46 0 -51 49l-43 273h-14l-67 -385h-134l77 440q4 28 17 40.5t40 12.5h129q46 0 51 -49l30 -208q5 -47 6 -81h13q13 50 23 77l93 218q14 43 58 43z" />
    <glyph glyph-name="uni043D" unicode="&#x43d;" horiz-adv-x="601" 
d="M567 493l-70 -493h-145l30 209h-186l-29 -209h-146l70 493h145l-25 -181h185l26 181h145z" />
    <glyph glyph-name="uni043E" unicode="&#x43e;" horiz-adv-x="588" 
d="M317 507q137 0 191 -62t33 -205q-19 -139 -82.5 -196t-197.5 -57q-136 0 -191 61.5t-36 203.5q20 140 83.5 197.5t199.5 57.5zM315 396q-61 0 -87 -31t-40 -125q-12 -85 3 -113.5t73 -28.5q60 0 86 31.5t39 122.5q13 86 -2.5 115t-71.5 29z" />
    <glyph glyph-name="uni043F" unicode="&#x43f;" horiz-adv-x="601" 
d="M206 493v-98q115 112 225 112q63 0 97 -36.5t25 -103.5l-52 -367h-148l46 323q4 36 -3 48t-31 11q-56 -1 -154 -78l-42 -304h-148l69 493h116z" />
    <glyph glyph-name="uni0440" unicode="&#x440;" horiz-adv-x="597" 
d="M208 493l-2 -95q43 45 98 76t108 31q87 0 120 -61t14 -207q-11 -79 -31.5 -130.5t-53 -76.5t-66 -34t-83.5 -9q-73 0 -147 13q0 -47 -7 -93l-16 -97h-148l97 683h117zM184 90h76q76 0 98.5 25.5t36.5 123.5q13 94 5.5 120.5t-42.5 26.5q-26 0 -66 -22t-80 -59z" />
    <glyph glyph-name="uni0441" unicode="&#x441;" horiz-adv-x="509" 
d="M436 117l11 -97q-77 -32 -193 -32q-133 0 -186.5 62t-33.5 203q20 139 80.5 196.5t191.5 57.5q117 0 189 -32l-20 -90q-116 2 -149 2q-69 0 -98.5 -28.5t-39.5 -112.5q-11 -87 7.5 -112.5t85.5 -25.5q92 0 155 9z" />
    <glyph glyph-name="uni0442" unicode="&#x442;" horiz-adv-x="881" 
d="M205 493v-89q102 103 198 103q54 0 85 -24t36 -68q95 92 187 92q68 0 99.5 -37.5t21.5 -102.5l-51 -367h-146l45 327q4 31 -5 43t-30 12q-26 0 -53.5 -15.5t-76.5 -59.5l-43 -307h-142l46 327q5 30 -3 42.5t-33 12.5q-26 0 -54 -15.5t-75 -55.5l-43 -311h-147l70 493h114
z" />
    <glyph glyph-name="uni0443" unicode="&#x443;" horiz-adv-x="580" 
d="M418 493h156q-51 -253 -150 -435q-80 -160 -183 -225.5t-242 -37.5l12 105q133 -24 227 100h-59q-24 0 -41 14t-21 36l-80 443h158l46 -377q4 -16 18 -16h39l4 9q79 153 116 384z" />
    <glyph glyph-name="uni0444" unicode="&#x444;" horiz-adv-x="745" 
d="M496 700l-26 -196q139 -11 193 -73t35 -191q-17 -127 -86 -185t-216 -66l-24 -179h-133l24 181q-140 10 -193.5 71.5t-35.5 189.5q18 129 87 187t216 66l27 195h132zM448 398l-44 -301q77 7 110 40.5t44 110.5q11 79 -12.5 111t-97.5 39zM285 96l43 302
q-76 -7 -109.5 -41.5t-44.5 -112.5q-11 -77 13 -109t98 -39z" />
    <glyph glyph-name="uni0445" unicode="&#x445;" horiz-adv-x="562" 
d="M396 253l115 -253h-143l-88 207h-8l-147 -207h-157l188 254l-105 239h141l78 -190h12l136 190h153z" />
    <glyph glyph-name="uni0446" unicode="&#x446;" horiz-adv-x="628" 
d="M566 0l-21 -149h-123l38 149q-38 0 -62 24.5t-23 68.5q-109 -106 -213 -106q-71 0 -103.5 37t-22.5 102l51 367h148l-46 -327q-4 -31 4 -43t32 -12q32 0 62.5 17t81.5 60l42 305h147l-52 -378q-1 -8 4 -14t13 -6h56z" />
    <glyph glyph-name="uni0447" unicode="&#x447;" horiz-adv-x="568" 
d="M533 493l-69 -493h-147l26 190q-84 -35 -160 -35q-82 -1 -117.5 29.5t-25.5 96.5l31 212h147l-25 -179q-4 -28 4.5 -37.5t37.5 -9.5q58 0 123 34l27 192h148z" />
    <glyph glyph-name="uni0448" unicode="&#x448;" horiz-adv-x="869" 
d="M835 493l-70 -493h-114v89q-99 -102 -193 -102q-52 0 -83 24t-37 67q-91 -91 -180 -91q-68 0 -100 37t-22 102l51 367h147l-46 -327q-4 -28 5 -39t33 -11q25 0 49.5 14.5t72.5 56.5l43 306h140l-45 -327q-5 -28 3 -39t34 -11q27 0 51 14t71 54l43 309h147z" />
    <glyph glyph-name="uni0449" unicode="&#x449;" horiz-adv-x="905" 
d="M842 0l-21 -149h-122l40 149h-2q-38 0 -62 24t-24 66q-99 -103 -192 -103q-53 0 -84 24t-37 67q-90 -91 -180 -91q-68 0 -100 37t-22 102l51 367h147l-45 -327q-5 -28 4 -39t33 -11q25 0 49.5 14.5t72.5 56.5l43 306h140l-45 -327q-5 -28 3 -39t34 -11q27 0 51 14t71 54
l43 309h146l-51 -378q-2 -8 3 -14t14 -6h56z" />
    <glyph glyph-name="uni044A" unicode="&#x44a;" horiz-adv-x="644" 
d="M390 493l-47 -180q38 9 73 9q115 -1 154.5 -36.5t24.5 -133.5q-13 -93 -62.5 -126.5t-158.5 -33.5q-24 0 -42.5 1t-42 3.5t-41.5 8.5t-36 14.5t-29.5 22.5t-19.5 32t-7.5 43t8.5 56l57 210h-191l15 110h345zM319 221l-18 -68q-8 -32 8.5 -43.5t53.5 -11.5q44 0 61.5 14
t24.5 54q7 38 -4.5 50.5t-54.5 12.5q-38 0 -71 -8z" />
    <glyph glyph-name="uni044B" unicode="&#x44b;" horiz-adv-x="770" 
d="M736 493l-69 -493h-149l70 493h148zM229 493l-26 -186q48 15 94 15q115 -1 153.5 -36.5t25.5 -133.5q-12 -92 -62 -126t-159 -34q-32 0 -53.5 1.5t-51.5 5.5t-49 14.5t-36.5 27t-24 43.5t-2.5 63l49 346h142zM190 219l-10 -73q-4 -28 12.5 -38t52.5 -10q43 0 61.5 14
t23.5 54q6 39 -5.5 51t-54.5 12q-39 0 -80 -10z" />
    <glyph glyph-name="uni044C" unicode="&#x44c;" horiz-adv-x="527" 
d="M229 493l-26 -186q48 15 94 15q116 -1 155 -36.5t26 -133.5q-13 -93 -62.5 -126.5t-159.5 -33.5q-39 0 -64.5 1.5t-60 10t-54 24t-32 46t-7.5 73.5l49 346h142zM190 219l-10 -73q-4 -28 12.5 -38t53.5 -10q43 0 61.5 14t24.5 54q6 38 -6 50.5t-55 12.5q-40 0 -81 -10z
" />
    <glyph glyph-name="uni044D" unicode="&#x44d;" horiz-adv-x="532" 
d="M65 385l-6 95q75 24 185 24q145 0 201 -59t38 -206q-17 -145 -83 -199t-212 -52q-119 0 -192 28l17 94q39 -2 157 -5q83 -2 114 16.5t44 82.5h-245l11 93h246q3 59 -19.5 75t-89.5 16q-141 -2 -166 -3z" />
    <glyph glyph-name="uni044E" unicode="&#x44e;" horiz-adv-x="829" 
d="M212 305h97q24 117 80.5 159.5t171.5 42.5q138 0 190 -57t30 -209q-21 -147 -80 -199t-195 -52q-123 0 -172 45.5t-40 165.5h-97l-28 -201h-147l69 493h147zM629 250q11 85 -4 113t-71 28q-58 0 -82.5 -29.5t-36.5 -115.5q-12 -85 2.5 -112.5t69.5 -27.5q59 0 84.5 29.5
t37.5 114.5z" />
    <glyph glyph-name="uni044F" unicode="&#x44f;" horiz-adv-x="562" 
d="M459 0h-144l24 168h-80q-61 0 -75 -41l-44 -127h-150l49 148q12 36 43 52.5t65 14.5l1 5q-107 24 -91 138q11 91 68 118t198 27q122 0 206 -7zM353 265l18 129h-97q-42 0 -57 -11.5t-20 -47.5q-5 -40 7.5 -55t54.5 -15h94z" />
    <glyph glyph-name="uni0451" unicode="&#x451;" horiz-adv-x="560" 
d="M271 580h-53q-31 0 -28 30l10 62q4 32 36 32h50q32 0 28 -31l-10 -63q-3 -30 -33 -30zM446 580h-53q-31 0 -28 30l10 63q4 31 35 31h51q32 0 28 -31l-10 -63q-3 -30 -33 -30zM472 117l10 -94q-83 -35 -217 -35q-141 0 -194 66t-37 203q18 144 82 197t204 53
q130 0 176.5 -43t34.5 -127q-10 -70 -57 -100t-145 -37l-146 -11q1 -49 24.5 -66t74.5 -17q97 0 190 11zM192 276l115 11q40 3 58.5 16t22.5 48q3 33 -12.5 41t-65.5 7q-58 0 -81.5 -24.5t-36.5 -98.5z" />
    <glyph glyph-name="uni0452" unicode="&#x452;" horiz-adv-x="602" 
d="M257 482l-9 -66q-7 -42 -19 -89q105 86 202 86q72 0 105 -36t23 -104l-38 -273h-148l34 231q4 31 -6.5 42.5t-42.5 11.5q-55 0 -139 -60l-30 -225h-148l68 482h-65l9 71h66l21 147h147l-20 -147h175l-10 -71h-175z" />
    <glyph glyph-name="uni0453" unicode="&#x453;" horiz-adv-x="534" 
d="M477 647l-238 -106l-37 63l218 150zM70 372l-2 98q100 34 221 37q49 1 85 -3.5t68 -17t47.5 -40.5t11.5 -69q-3 -32 -17 -58.5t-29 -41.5t-41.5 -29t-36.5 -17.5t-32 -10.5l-127 -44q-35 -12 -47 -21t-13 -23q-2 -20 16 -25.5t65 -3.5q119 4 219 30l8 -102
q-115 -43 -240 -43q-112 0 -166 35.5t-46 112.5q6 56 40.5 88t99.5 54l122 41q47 15 65 26t18 28q1 16 -17 20.5t-77 2.5q-66 -4 -195 -24z" />
    <glyph glyph-name="uni0454" unicode="&#x454;" horiz-adv-x="530" 
d="M516 478l-18 -93q-116 2 -169 2q-68 0 -96 -17t-42 -73h247l-11 -93h-249q-4 -60 19 -78.5t94 -20.5q58 -1 166 5l8 -97q-78 -25 -188 -25q-143 0 -201 62t-42 201q18 148 86.5 200.5t204.5 52.5q117 0 191 -26z" />
    <glyph glyph-name="uni0455" unicode="&#x455;" horiz-adv-x="527" 
d="M269 177l-118 49q-60 24 -84.5 61.5t-17.5 92.5q9 69 60.5 98.5t161.5 28.5q135 -2 227 -20l-14 -94q-192 3 -194 3q-58 0 -77.5 -4.5t-21.5 -21.5q-3 -17 8.5 -25.5t44.5 -21.5l121 -48q62 -24 86.5 -58t17.5 -91q-6 -44 -23.5 -72t-50.5 -42t-71 -18.5t-97 -4.5
q-90 0 -217 18l14 95q36 -2 157 -2q87 0 114.5 6t31.5 26q2 15 -7.5 22.5t-39.5 18.5q-7 2 -11 4z" />
    <glyph glyph-name="uni0456" unicode="&#x456;" horiz-adv-x="280" 
d="M164 711h63q47 0 41 -46l-7 -54q-6 -40 -47 -40h-63q-47 0 -41 46l8 53q3 41 46 41zM173 0h-147l68 493h147z" />
    <glyph glyph-name="uni0457" unicode="&#x457;" horiz-adv-x="276" 
d="M255 704h51q32 0 28 -31l-10 -63q-3 -30 -32 -30h-54q-31 0 -28 30l10 63q6 31 35 31zM81 704h50q32 0 28 -31l-10 -63q-3 -30 -32 -30h-54q-31 0 -28 30l10 62q4 32 36 32zM171 0h-148l69 493h148z" />
    <glyph glyph-name="uni0458" unicode="&#x458;" horiz-adv-x="280" 
d="M164 711h62q47 0 41 -46l-7 -54q-6 -40 -48 -40h-62q-47 0 -41 46l8 53q4 41 47 41zM242 493l-67 -473q-9 -69 -48.5 -128t-100.5 -90l-81 68q72 70 83 156l67 467h147z" />
    <glyph glyph-name="uni0459" unicode="&#x459;" horiz-adv-x="824" 
d="M524 493l-26 -187q49 16 109 16q108 -1 144 -38.5t23 -131.5q-13 -93 -62.5 -125t-157.5 -33q-54 0 -91 5t-69 20.5t-45.5 47t-8.5 80.5l35 249h-47q-25 0 -37.5 -10t-18.5 -33q-2 -7 -7.5 -30t-7 -29.5t-6.5 -26.5t-7 -27.5t-7 -24.5t-7.5 -25t-7 -21.5t-8.5 -22.5
t-8.5 -19.5t-9.5 -19.5q-36 -71 -87.5 -93.5t-119.5 -17.5l-6 107q57 6 88 51q15 21 28 58t20 66.5t26 109.5q13 54 45 79.5t89 25.5h245zM485 217l-10 -71q-4 -28 12.5 -38t54.5 -10q45 0 63 14t23 54q6 38 -5.5 50.5t-49.5 12.5q-45 0 -88 -12z" />
    <glyph glyph-name="uni045A" unicode="&#x45a;" horiz-adv-x="827" 
d="M530 493l-27 -186q51 15 97 15q114 -1 152.5 -36.5t25.5 -133.5q-13 -91 -63 -124.5t-158 -33.5q-39 0 -64 1.5t-59 10t-53 24t-31 45.5t-7 72l10 72h-166l-31 -219h-135l70 493h134l-25 -178h166l25 178h139zM491 218l-10 -72q-4 -28 12.5 -38t53.5 -10q43 0 61 14
t24 54q5 39 -6.5 51t-53.5 12q-41 0 -81 -11z" />
    <glyph glyph-name="uni045B" unicode="&#x45b;" horiz-adv-x="602" 
d="M257 482l-8 -52q-6 -52 -21 -103q106 86 203 86q73 0 105.5 -36t22.5 -104l-36 -253q-9 -69 -48.5 -128t-99.5 -90l-80 68q69 69 82 156l30 208q4 30 -6.5 40.5t-42.5 10.5q-55 0 -139 -60l-30 -225h-148l68 482h-65l9 71h66l21 147h147l-20 -147h175l-10 -71h-175z" />
    <glyph glyph-name="uni045C" unicode="&#x45c;" horiz-adv-x="560" 
d="M289 541l-38 63l219 150l56 -107zM345 257l-1 -4q33 -4 52.5 -11t34 -20t23.5 -38.5t17.5 -60.5t20.5 -92q4 -20 6 -31h-148q-28 140 -40 166q-15 33 -51 37q-8 1 -19 1h-49q3 -21 0 -45l-23 -159h-147l70 493h146l-17 -129q-4 -25 -14 -57h32q57 0 84 33t78 153h156
q-64 -140 -88 -172q-32 -45 -88 -58q-15 -3 -35 -6z" />
    <glyph glyph-name="uni045D" unicode="&#x45d;" horiz-adv-x="592" 
d="M352 541l-221 113l66 98l204 -149zM557 493l-68 -493h-114v93q-110 -106 -213 -106q-71 0 -103.5 37t-22.5 102l51 367h148l-47 -327q-4 -30 4.5 -42.5t32.5 -12.5q32 0 62.5 17t81.5 60l42 305h146z" />
    <glyph glyph-name="uni045E" unicode="&#x45e;" horiz-adv-x="580" 
d="M401 712h97q-2 -67 -50 -110.5t-126 -43.5q-84 0 -126.5 43.5t-25.5 110.5h99q-9 -44 5.5 -63t51.5 -19q70 0 75 82zM418 493h156q-51 -253 -150 -435q-80 -160 -183 -225.5t-242 -37.5l12 105q133 -24 227 100h-59q-24 0 -41 14t-21 36l-80 443h158l46 -377
q4 -16 18 -16h39l4 9q79 153 116 384z" />
    <glyph glyph-name="uni045F" unicode="&#x45f;" horiz-adv-x="592" 
d="M557 493l-68 -493h-114v93q-110 -106 -213 -106q-71 0 -103.5 37t-22.5 102l51 367h148l-47 -327q-4 -30 4.5 -42.5t32.5 -12.5q32 0 62.5 17t81.5 60l42 305h146zM222 -41h95l-17 -200h-119z" />
    <glyph glyph-name="uni0490" unicode="&#x490;" horiz-adv-x="537" 
d="M576 675l-18 -105h-241q-30 0 -45 -13t-20 -45l-72 -512h-152l76 548q10 68 51.5 106.5t103.5 38.5q141 0 207 -4l32 153h103z" />
    <glyph glyph-name="uni0491" unicode="&#x491;" horiz-adv-x="471" 
d="M505 637l-23 -151l-17 -103h-196q-50 0 -56 -48l-47 -335h-147l53 382q9 61 41.5 89t92.5 28q112 0 167 -3l30 141h102z" />
    <glyph glyph-name="uni04B0" unicode="&#x4b0;" horiz-adv-x="613" 
d="M413 289h109l-12 -83h-140l-28 -206h-153l28 206h-141l12 83h113l-141 401h154l78 -256q7 -24 14 -89l11 3q14 47 36 88l151 254h163z" />
    <glyph glyph-name="uni04B1" unicode="&#x4b1;" horiz-adv-x="613" 
d="M384 96h108l-12 -90h-141l-28 -199h-153l28 199h-138l11 90h110l-139 397h153l78 -255q11 -44 13 -89h11q10 47 36 90l150 254h164z" />
    <glyph glyph-name="uni04B6" unicode="&#x4b6;" horiz-adv-x="699" 
d="M652 102l-13 -102l-22 -151h-113l13 151h-121l41 295q-114 -57 -229 -57q-168 0 -146 171l40 281h153l-36 -255q-6 -39 7.5 -54t58.5 -15q77 0 169 46l39 278h152l-83 -588h90z" />
    <glyph glyph-name="uni04B7" unicode="&#x4b7;" horiz-adv-x="602" 
d="M539 5l-21 -146h-129l41 141h-114l27 191q-83 -36 -161 -36q-81 -1 -116.5 29.5t-25.5 96.5l30 212h147l-25 -179q-4 -28 5 -37.5t38 -9.5q58 0 123 34l28 192h147l-56 -387h75z" />
    <glyph glyph-name="uni04BA" unicode="&#x4ba;" horiz-adv-x="659" 
d="M280 690l-41 -293q114 55 226 55q171 0 146 -171l-39 -281h-153l36 255q6 40 -8 55t-58 14q-75 -1 -166 -45l-40 -279h-153l97 690h153z" />
    <glyph glyph-name="uni04C0" unicode="&#x4c0;" horiz-adv-x="296" 
d="M183 0h-152l97 690h152z" />
    <glyph glyph-name="Wgrave" unicode="&#x1e80;" horiz-adv-x="967" 
d="M621 785l-49 -63l-221 114l66 97zM998 690l-202 -651q-12 -39 -56 -39h-144q-20 0 -35 13.5t-16 32.5l-13 446v88h-19q-13 -55 -23 -89l-137 -451q-12 -40 -57 -40h-145q-20 0 -35.5 13t-15.5 32l-21 645h152v-482q0 -17 -1.5 -53.5t-1.5 -46.5h20q5 21 29 106l133 432
q13 44 58 44h129q21 0 34.5 -14.5t13.5 -35.5l19 -433q2 -65 1 -99h21q15 68 25 104l132 478h155z" />
    <glyph glyph-name="wgrave" unicode="&#x1e81;" horiz-adv-x="888" 
d="M551 603l-49 -63l-221 114l66 97zM226 102h11q29 0 48 50q17 40 33 115q13 57 31 190q6 36 42 36h139q16 0 26.5 -10t11.5 -25l27 -356h10q14 0 22.5 13t17.5 38q23 49 46 128q27 98 39 212h150q-25 -139 -63 -249q-34 -102 -68 -159q-25 -47 -56 -66t-90 -19h-73
q-18 0 -30 11t-13 28l-23 364h-12q-6 -69 -26 -165q-20 -84 -43 -134q-24 -63 -61.5 -83.5t-96.5 -20.5h-80q-18 0 -30 11t-14 28l-61 455h152z" />
    <glyph glyph-name="Wacute" unicode="&#x1e82;" horiz-adv-x="967" 
d="M741 829l-238 -107l-37 64l218 150zM998 690l-202 -651q-12 -39 -56 -39h-144q-20 0 -35 13.5t-16 32.5l-13 446v88h-19q-13 -55 -23 -89l-137 -451q-12 -40 -57 -40h-145q-20 0 -35.5 13t-15.5 32l-21 645h152v-482q0 -17 -1.5 -53.5t-1.5 -46.5h20q5 21 29 106l133 432
q13 44 58 44h129q21 0 34.5 -14.5t13.5 -35.5l19 -433q2 -65 1 -99h21q15 68 25 104l132 478h155z" />
    <glyph glyph-name="wacute" unicode="&#x1e83;" horiz-adv-x="888" 
d="M671 647l-237 -107l-38 64l219 150zM226 102h11q29 0 48 50q17 40 33 115q13 57 31 190q6 36 42 36h139q16 0 26.5 -10t11.5 -25l27 -356h10q14 0 22.5 13t17.5 38q23 49 46 128q27 98 39 212h150q-25 -139 -63 -249q-34 -102 -68 -159q-25 -47 -56 -66t-90 -19h-73
q-18 0 -30 11t-13 28l-23 364h-12q-6 -69 -26 -165q-20 -84 -43 -134q-24 -63 -61.5 -83.5t-96.5 -20.5h-80q-18 0 -30 11t-14 28l-61 455h152z" />
    <glyph glyph-name="Wdieresis" unicode="&#x1e84;" horiz-adv-x="967" 
d="M625 886h50q33 0 29 -31l-10 -63q-4 -30 -33 -30h-53q-32 0 -28 30l10 63q4 31 35 31zM451 886h49q33 0 29 -31l-10 -63q-4 -30 -33 -30h-53q-33 0 -28 30l10 62q4 32 36 32zM998 690l-202 -651q-12 -39 -56 -39h-144q-20 0 -35 13.5t-16 32.5l-13 446v88h-19
q-13 -55 -23 -89l-137 -451q-12 -40 -57 -40h-145q-20 0 -35.5 13t-15.5 32l-21 645h152v-482q0 -17 -1.5 -53.5t-1.5 -46.5h20q5 21 29 106l133 432q13 44 58 44h129q21 0 34.5 -14.5t13.5 -35.5l19 -433q2 -65 1 -99h21q15 68 25 104l132 478h155z" />
    <glyph glyph-name="wdieresis" unicode="&#x1e85;" horiz-adv-x="888" 
d="M555 703h51q32 0 28 -30l-10 -63q-3 -30 -32 -30h-54q-31 0 -28 29l10 63q6 31 35 31zM381 703h50q18 0 24 -7t4 -23l-10 -63q-3 -30 -32 -30h-54q-31 0 -28 29l10 63q4 31 36 31zM226 102h11q29 0 48 50q17 40 33 115q13 57 31 190q6 36 42 36h139q16 0 26.5 -10
t11.5 -25l27 -356h10q14 0 22.5 13t17.5 38q23 49 46 128q27 98 39 212h150q-25 -139 -63 -249q-34 -102 -68 -159q-25 -47 -56 -66t-90 -19h-73q-18 0 -30 11t-13 28l-23 364h-12q-6 -69 -26 -165q-20 -84 -43 -134q-24 -63 -61.5 -83.5t-96.5 -20.5h-80q-18 0 -30 11
t-14 28l-61 455h152z" />
    <glyph glyph-name="Ygrave" unicode="&#x1ef2;" horiz-adv-x="605" 
d="M389 723l-221 114l66 97l204 -148zM367 225l-31 -225h-154l33 233l-160 457h153l78 -256q11 -44 13 -89h11q10 46 36 91l150 254h164z" />
    <glyph glyph-name="ygrave" unicode="&#x1ef3;" 
d="M341 541l-222 113l66 98l204 -149zM417 493h156q-21 -114 -62.5 -232.5t-87.5 -203.5q-75 -136 -160.5 -194.5t-203.5 -67.5l-18 91q69 18 112.5 40.5t83.5 73.5h-59q-24 0 -40.5 14t-21.5 36l-81 443h159l47 -377q2 -16 17 -16h40l4 9q79 164 115 384z" />
    <glyph glyph-name="endash" unicode="&#x2013;" horiz-adv-x="561" 
d="M491 206h-445l14 97h444z" />
    <glyph glyph-name="emdash" unicode="&#x2014;" horiz-adv-x="859" 
d="M787 206h-741l14 97h741z" />
    <glyph glyph-name="quoteleft" unicode="&#x2018;" horiz-adv-x="224" 
d="M150 445h-31q-53 0 -44 50l7 58q12 85 70 166l62 -22q-21 -54 -36 -116q22 1 31 -10t7 -32l-7 -48q-4 -26 -17 -36t-42 -10z" />
    <glyph glyph-name="quoteright" unicode="&#x2019;" horiz-adv-x="222" 
d="M152 708h31q28 0 38.5 -11.5t6.5 -38.5l-8 -58q-12 -85 -70 -165l-62 21q25 64 37 117q-44 -3 -39 41l7 48q5 27 17.5 36.5t41.5 9.5z" />
    <glyph glyph-name="quotesinglbase" unicode="&#x201a;" horiz-adv-x="234" 
d="M80 131h31q28 0 38.5 -11.5t6.5 -37.5l-8 -59q-12 -85 -70 -165l-62 21q25 64 37 117q-23 -1 -32 9.5t-7 32.5l7 48q5 26 17.5 35.5t41.5 9.5z" />
    <glyph glyph-name="quotedblleft" unicode="&#x201c;" horiz-adv-x="403" 
d="M150 445h-31q-53 0 -44 50l7 58q12 85 70 166l62 -22q-21 -54 -36 -116q22 1 31 -10t7 -32l-7 -48q-4 -26 -17 -36t-42 -10zM330 445h-31q-28 0 -38.5 12t-6.5 38l8 58q12 85 70 166l62 -22q-24 -60 -37 -116q23 1 32 -10t7 -32l-7 -48q-5 -26 -18 -36t-41 -10z" />
    <glyph glyph-name="quotedblright" unicode="&#x201d;" horiz-adv-x="402" 
d="M152 708h31q28 0 38.5 -11.5t6.5 -38.5l-8 -58q-12 -85 -70 -165l-62 21q25 64 37 117q-44 -3 -39 41l7 48q5 27 17.5 36.5t41.5 9.5zM331 708h32q27 0 37.5 -11.5t6.5 -38.5l-8 -58q-11 -85 -70 -165l-61 21q22 58 36 117q-43 -3 -38 41l7 48q4 27 17 36.5t41 9.5z" />
    <glyph glyph-name="quotedblbase" unicode="&#x201e;" horiz-adv-x="414" 
d="M80 131h31q28 0 38.5 -11.5t6.5 -38.5l-8 -58q-12 -85 -70 -166l-62 22q24 60 37 116q-23 -1 -32 10t-7 32l7 48q5 27 17.5 36.5t41.5 9.5zM260 131h31q27 0 37.5 -11.5t6.5 -38.5l-8 -58q-11 -85 -69 -166l-62 22q21 54 36 116q-22 -1 -31 10t-7 32l7 48q4 27 17 36.5
t42 9.5z" />
    <glyph glyph-name="dagger" unicode="&#x2020;" horiz-adv-x="469" 
d="M239 -110h-123l80 521l11 74l22 206h123l-36 -206l-10 -74zM44 381l15 112h129l-14 -96zM466 493l-15 -112l-127 16l13 96h129z" />
    <glyph glyph-name="daggerdbl" unicode="&#x2021;" horiz-adv-x="503" 
d="M333 492l-57 -399l-21 -203h-123l36 203l56 399l21 199h123zM190 397l-131 -16l16 112h129zM466 381l-127 16l14 96h129zM161 184l-14 -96h-129l15 112zM425 88h-129l14 96l131 16z" />
    <glyph glyph-name="bullet" unicode="&#x2022;" horiz-adv-x="370" 
d="M188 380h17q56 0 77 -24t13 -81l-2 -15q-9 -61 -32.5 -83t-80.5 -22h-19q-59 0 -79.5 25t-12.5 86l2 14q8 58 32.5 79t84.5 21z" />
    <glyph glyph-name="ellipsis" unicode="&#x2026;" horiz-adv-x="889" 
d="M67 151h37q56 0 49 -54l-7 -48q-6 -49 -56 -49h-37q-57 0 -50 55l7 48q7 48 57 48zM391 151h36q58 0 49 -54l-6 -48q-6 -49 -56 -49h-37q-57 0 -50 55l7 48q6 48 57 48zM714 151h37q57 0 49 -54l-6 -48q-7 -49 -57 -49h-37q-56 0 -49 55l7 48q6 48 56 48z" />
    <glyph glyph-name="perthousand" unicode="&#x2030;" horiz-adv-x="1295" 
d="M251 703q98 0 132.5 -47.5t18.5 -163.5q-16 -113 -57.5 -156t-133.5 -43q-96 0 -130.5 47.5t-18.5 163.5q16 113 57 156t132 43zM255 0h-101l511 690h100zM252 621q-42 0 -57 -25t-26 -104q-10 -70 -1.5 -93.5t43.5 -23.5q42 0 57.5 25t26.5 104q9 70 0.5 93.5
t-43.5 23.5zM709 399q97 0 132 -48t19 -163q-17 -113 -58 -156.5t-134 -43.5q-96 0 -130.5 48t-18.5 163q17 113 58 156.5t132 43.5zM1095 399q97 0 132 -48t19 -163q-16 -113 -57.5 -156.5t-134.5 -43.5q-95 0 -130 48t-19 163q17 113 58 156.5t132 43.5zM709 316
q-41 0 -56 -24.5t-26 -103.5q-10 -71 -2 -94t43 -23q43 0 58.5 24.5t25.5 103.5q9 71 1 94t-44 23zM1095 316q-41 0 -56 -24.5t-26 -103.5q-10 -71 -2 -94t43 -23q43 0 58.5 24.5t25.5 103.5q10 71 1.5 94t-44.5 23z" />
    <glyph glyph-name="guilsinglleft" unicode="&#x2039;" horiz-adv-x="306" 
d="M276 413l-122 -162l88 -169l-75 -50l-139 206l2 32l176 195z" />
    <glyph glyph-name="guilsinglright" unicode="&#x203a;" horiz-adv-x="306" 
d="M266 259l-3 -32l-176 -195l-70 51l122 163l-87 169l75 50z" />
    <glyph glyph-name="fraction" unicode="&#x2044;" horiz-adv-x="160" 
d="M-114 0h-103l505 690h103z" />
    <glyph glyph-name="Euro" unicode="&#x20ac;" horiz-adv-x="635" 
d="M63 463h75q34 123 109 181t210 58q95 0 174 -24l-20 -110q-82 11 -166 5q-58 -4 -91.5 -29.5t-53.5 -80.5h224l-23 -94h-452zM456 236h-190q2 -58 25.5 -87t75.5 -33q90 -8 189 11l6 -112q-79 -27 -189 -27q-133 0 -197.5 61t-67.5 187h-78l14 94h434z" />
    <glyph glyph-name="trademark" unicode="&#x2122;" horiz-adv-x="976" 
d="M320 616l-42 -300h-102l42 300h-119l11 80h340l-10 -80h-120zM823 696h98q17 0 26.5 -11t7.5 -29l-34 -340h-93l29 303h-10l-87 -218q-10 -29 -40 -29h-61q-16 0 -26.5 9.5t-11.5 24.5l-28 213h-11l-54 -303h-94l63 347q3 18 11 25.5t25 7.5h95q34 0 36 -35l23 -168
q2 -19 2 -59h9q7 30 16 58l69 175q10 29 40 29z" />
    <glyph glyph-name="partialdiff" unicode="&#x2202;" 
d="M160 600l5 103q65 2 116 -1.5t96 -14.5t76 -29.5t54 -47t33.5 -68t10 -92t-12.5 -118.5q-33 -182 -107.5 -263t-201.5 -81q-53 0 -93 15t-62.5 40.5t-36 58.5t-13 68.5t6.5 71.5q18 91 77 152t155 60q89 0 136 -55q16 76 0.5 120.5t-69.5 62.5t-170 18zM240 107
q60 0 91 52.5t53 162.5q-43 20 -87 20q-97 0 -121 -113q-26 -122 64 -122z" />
    <glyph glyph-name="emptyset" unicode="&#x2205;" horiz-adv-x="685" 
d="M350 633q121 0 206.5 -85.5t85.5 -206.5t-85.5 -207t-206.5 -86q-122 0 -207.5 86t-85.5 207t86 206.5t207 85.5zM319 241h54q0 35 14.5 64.5t32.5 46.5t32.5 43.5t14.5 56.5q0 93 -117 93q-50 0 -122 -11l3 -45q60 9 119 9q66 0 66 -46q0 -21 -15 -44.5t-33.5 -42.5
t-33.5 -52t-15 -72zM366 171h-39q-7 0 -7 -8v-37q0 -7 7 -7h39q8 0 8 7v37q0 8 -8 8z" />
    <glyph glyph-name="product" unicode="&#x220f;" horiz-adv-x="713" 
d="M721 578h-86l-95 -675h-148l95 675h-183l-94 -675h-148l95 675h-87l16 112h652z" />
    <glyph glyph-name="summation" unicode="&#x2211;" horiz-adv-x="594" 
d="M586 580h-333l111 -248l-201 -358h348l-16 -110h-514l14 110l208 360l-108 246l14 110h492z" />
    <glyph glyph-name="minus" unicode="&#x2212;" 
d="M510 239h-458l16 109h458z" />
    <glyph glyph-name="radical" unicode="&#x221a;" horiz-adv-x="577" 
d="M648 876l-348 -871q-2 -5 -10 -5h-173q-5 0 -10.5 3.5t-4.5 7.5l-58 482h117l45 -398h13l307 781h122z" />
    <glyph glyph-name="infinity" unicode="&#x221e;" horiz-adv-x="766" 
d="M590 453q65 0 104.5 -39t29.5 -111q-10 -71 -59 -109.5t-115 -38.5q-96 0 -169 84q-54 -42 -98 -63t-96 -21q-68 0 -110 42t-31 117q9 69 55 104t112 35q55 0 95 -23.5t79 -66.5q54 43 100 66.5t103 23.5zM157 304q-4 -28 10 -41.5t43 -12.5q23 1 45.5 11t35 20t35.5 31
q-37 45 -93 45q-69 0 -76 -53zM611 307q6 50 -47 50q-11 0 -20.5 -1.5t-20 -6.5t-16.5 -7.5t-17.5 -12t-14.5 -12t-16.5 -14.5t-14.5 -13q32 -40 86 -40q72 0 81 57z" />
    <glyph glyph-name="integral" unicode="&#x222b;" horiz-adv-x="357" 
d="M89 -53l42 637q4 64 39 97t91 33q87 0 125 -4l-20 -106h-57q-48 0 -54 -56l-42 -640q-5 -69 -35.5 -99.5t-102.5 -30.5q-90 0 -117 4l19 106h55q53 0 57 59z" />
    <glyph glyph-name="approxequal" unicode="&#x2248;" horiz-adv-x="584" 
d="M162 311l-92 6q-5 78 30 115t96 32q30 -2 104.5 -25t97.5 -24q25 -2 35 9t14 39l93 -7q4 -74 -28 -111t-100 -35q-32 1 -106 24.5t-96 25.5q-24 1 -34 -10t-14 -39zM135 115l-93 6q-4 78 31 115t96 33q30 -2 104.5 -25.5t97.5 -25.5q25 -2 35 9t14 39l93 -6
q4 -74 -28 -111t-100 -35q-33 1 -106 24.5t-96 24.5q-25 1 -35 -10t-13 -38z" />
    <glyph glyph-name="notequal" unicode="&#x2260;" horiz-adv-x="611" 
d="M557 456l-15 -108h-459l16 108h225l74 146l88 -42l-54 -104h125zM70 245h458l-16 -108h-244l-71 -140l-86 41l50 99h-107z" />
    <glyph glyph-name="lessequal" unicode="&#x2264;" horiz-adv-x="555" 
d="M509 446l-307 -70l289 -68l-16 -112l-407 124l16 115l443 128zM457 51h-439l16 110h439z" />
    <glyph glyph-name="greaterequal" unicode="&#x2265;" horiz-adv-x="554" 
d="M512 435l-16 -115l-443 -124l18 121l308 67l-289 67l15 112zM470 51h-440l15 110h441z" />
    <glyph glyph-name="lozenge" unicode="&#x25ca;" horiz-adv-x="570" 
d="M34 359l296 333q9 11 17 -5l202 -334q6 -13 2 -20l-294 -335q-12 -12 -18 5l-204 336q-6 12 -1 20zM150 345l113 -200l174 203l-114 199z" />
    <glyph glyph-name="fi" unicode="&#xfb01;" horiz-adv-x="662" 
d="M628 493l-70 -493h-147l55 394h-200l-64 -439q-21 -150 -173 -150q-43 0 -137 11l23 98h65q39 0 56 13.5t23 52.5l60 414h-85l12 94l87 5l10 69q12 78 52.5 118t122.5 40q83 0 137 -10l-17 -98h-71q-38 0 -56.5 -17t-24.5 -58l-6 -44h348zM548 715h65q22 0 33 -12.5
t7 -33.5l-7 -54q-3 -22 -12.5 -31t-31.5 -9h-66q-46 0 -40 46l8 53q4 41 44 41z" />
    <glyph glyph-name="fl" unicode="&#xfb02;" horiz-adv-x="713" 
d="M670 102l7 -96q-35 -18 -112 -18q-68 0 -102.5 35t-26.5 95l70 496h-140q-38 0 -56.5 -17.5t-24.5 -59.5l-6 -44h126l-13 -99h-127l-61 -439q-21 -150 -174 -150q-43 0 -136 11l23 98h64q39 0 56 13.5t23 52.5l58 414h-85l12 94l87 5l10 69q11 78 52 118.5t123 39.5
q245 0 345 -18l-74 -552q-4 -26 5.5 -37t35.5 -11h41z" />
    <glyph glyph-name="brevecy" horiz-adv-x="392" 
d="M326 701h97q-2 -67 -50 -111t-126 -44q-84 0 -126.5 44t-25.5 111h99q-9 -45 6 -63.5t52 -18.5q69 0 74 82z" />
    </font>
</defs>
</svg>
